<?xml version="1.0" encoding="utf-8"?>
<!-- Generator: Adobe Illustrator 16.0.0, SVG Export Plug-In . SVG Version: 6.00 Build 0)  -->
<!DOCTYPE svg PUBLIC "-//W3C//DTD SVG 1.1//EN" "http://www.w3.org/Graphics/SVG/1.1/DTD/svg11.dtd">
<svg version="1.1" id="Layer_1" xmlns="http://www.w3.org/2000/svg" xmlns:xlink="http://www.w3.org/1999/xlink" x="0px" y="0px"
	 width="200px" height="200px" viewBox="0 0 200 200" enable-background="new 0 0 200 200" xml:space="preserve">
<path fill-rule="evenodd" clip-rule="evenodd" fill="#FFFFFF" d="M141.795,95.107c5.229,0,10.173,0,15.116,0
	c7.139,0,14.277-0.002,21.415,0.001c3.766,0.002,4.709,0.942,4.708,4.651c-0.003,16.3,0.028,32.601-0.017,48.901
	c-0.03,11.233-7.769,21.124-18.681,23.646c-2.798,0.646-5.783,0.632-8.685,0.652c-10.23,0.074-20.46,0.031-30.69,0.031
	c-27.767,0-55.535,0.019-83.302-0.011c-12.458-0.014-22.539-8.682-24.491-20.977c-0.166-1.048-0.171-2.129-0.172-3.194
	c-0.01-39.233-0.012-78.468-0.012-117.702c0-2.934,1.134-4.075,4.079-4.075c38.841-0.001,77.681,0,116.522,0.007
	c2.993,0,4.259,1.286,4.255,4.143c-0.023,18.604-0.033,37.209-0.046,55.814C141.793,89.624,141.795,92.252,141.795,95.107z
	 M142.521,166.393c-0.086-0.324-0.084-0.393-0.117-0.431c-0.26-0.292-0.528-0.577-0.792-0.866
	c-4.295-4.734-6.531-10.26-6.529-16.688c0.017-37.549,0.016-75.097,0.021-112.646c0-0.654,0-1.308,0-2.046
	c-0.703-0.035-1.199-0.081-1.694-0.081c-36.031-0.003-72.062,0.004-108.092-0.029c-1.32-0.001-1.722,0.358-1.721,1.696
	c0.033,37.83,0.001,75.66,0.045,113.489c0.012,10.588,7.165,17.594,17.771,17.599c27.094,0.012,54.187,0.004,81.28,0.004
	C129.256,166.393,135.819,166.393,142.521,166.393z M141.83,101.828c0,0.749,0,1.407,0,2.065
	c0.001,15.063,0.034,30.126-0.007,45.189c-0.029,10.634,8.448,18.33,19.04,17.188c9.504-1.025,15.501-7.771,15.52-17.549
	c0.028-15.007,0.013-30.014,0.011-45.021c-0.001-0.599-0.057-1.196-0.09-1.873C164.768,101.828,153.39,101.828,141.83,101.828z"/>
<path fill-rule="evenodd" clip-rule="evenodd" fill="#FFFFFF" d="M57.17,89.905c-6.182,0-12.363,0-18.544,0
	c-3.074,0-4.237-1.105-4.239-4.111c-0.01-12.419-0.009-24.838,0-37.257c0.002-2.979,1.201-4.131,4.236-4.132
	c12.307-0.003,24.614-0.003,36.92,0c3.247,0.001,4.329,1.248,4.317,4.547c-0.044,12.138-0.022,24.276-0.027,36.415
	c-0.001,3.551-0.967,4.531-4.457,4.531c-6.069,0.001-12.138,0-18.207,0C57.17,89.901,57.17,89.903,57.17,89.905z M41.104,83.087
	c10.723,0,21.349,0,31.999,0c0-10.734,0-21.318,0-31.907c-10.73,0-21.327,0-31.999,0C41.104,61.861,41.104,72.447,41.104,83.087z"/>
<path fill-rule="evenodd" clip-rule="evenodd" fill="#FFFFFF" d="M80.267,107.768c-13.933-0.002-27.867,0.03-41.799-0.062
	c-1.148-0.007-2.622-0.568-3.336-1.396c-0.602-0.698-0.631-2.245-0.352-3.261c0.392-1.423,1.757-1.949,3.22-1.955
	c3.371-0.014,6.742-0.011,10.113-0.011c24.551-0.001,49.103-0.001,73.654,0.003c0.672,0,1.359-0.022,2.013,0.103
	c1.683,0.322,2.798,1.735,2.736,3.353c-0.064,1.698-1.352,3.039-3.104,3.206c-0.445,0.043-0.897,0.022-1.348,0.022
	C108.133,107.771,94.2,107.771,80.267,107.768z"/>
<path fill-rule="evenodd" clip-rule="evenodd" fill="#FFFFFF" d="M80.45,130.387c-14.045,0-28.09,0.004-42.135-0.003
	c-2.9-0.002-4.649-2.162-3.672-4.553c0.697-1.706,2.15-2.129,3.848-2.125c6.798,0.017,13.596,0.006,20.394,0.007
	c20.956,0.002,41.911,0.004,62.866,0.006c0.281,0,0.563-0.004,0.843,0.002c2.454,0.049,3.985,1.388,3.926,3.433
	c-0.057,1.97-1.564,3.224-3.934,3.225c-14.045,0.006-28.09,0.003-42.135,0.003C80.45,130.383,80.45,130.385,80.45,130.387z"/>
<path fill-rule="evenodd" clip-rule="evenodd" fill="#FFFFFF" d="M80.442,152.999c-14.045,0-28.091,0.004-42.136-0.004
	c-2.788-0.002-4.416-1.854-3.769-4.231c0.428-1.572,1.673-2.393,3.794-2.399c5.956-0.02,11.911-0.014,17.866-0.014
	c21.967,0.001,43.934,0.004,65.901,0.009c0.504,0.001,1.017-0.013,1.513,0.063c1.752,0.264,2.959,1.682,2.912,3.373
	c-0.048,1.737-1.438,3.171-3.271,3.19c-4.382,0.046-8.765,0.02-13.146,0.02c-9.888,0.001-19.776,0-29.664,0
	C80.442,153.003,80.442,153.001,80.442,152.999z"/>
<path fill-rule="evenodd" clip-rule="evenodd" fill="#FFFFFF" d="M108.695,52.744c5.28,0,10.561-0.01,15.841,0.004
	c2.446,0.006,3.843,1.191,3.877,3.227c0.034,2.103-1.385,3.376-3.917,3.381c-10.561,0.018-21.121,0.016-31.682-0.001
	c-2.453-0.004-3.982-1.384-3.913-3.419c0.068-1.985,1.537-3.184,3.953-3.188C98.135,52.738,103.415,52.744,108.695,52.744z"/>
<path fill-rule="evenodd" clip-rule="evenodd" fill="#FFFFFF" d="M108.726,75.005c5.28,0,10.561-0.008,15.841,0.003
	c2.431,0.005,3.829,1.206,3.849,3.253c0.019,2.042-1.388,3.34-3.78,3.345c-10.617,0.021-21.234,0.021-31.851,0.002
	c-2.383-0.004-3.864-1.306-3.884-3.277c-0.02-2.045,1.48-3.317,3.984-3.323C98.165,74.997,103.445,75.005,108.726,75.005z"/>
</svg>
