<?xml version="1.0" encoding="utf-8"?>
<!-- Generator: Adobe Illustrator 16.0.0, SVG Export Plug-In . SVG Version: 6.00 Build 0)  -->
<!DOCTYPE svg PUBLIC "-//W3C//DTD SVG 1.1//EN" "http://www.w3.org/Graphics/SVG/1.1/DTD/svg11.dtd">
<svg version="1.1" id="Layer_1" xmlns="http://www.w3.org/2000/svg" xmlns:xlink="http://www.w3.org/1999/xlink" x="0px" y="0px"
	 width="200px" height="200px" viewBox="0 0 200 200" enable-background="new 0 0 200 200" xml:space="preserve">
<path fill-rule="evenodd" clip-rule="evenodd" fill="#FFFFFF" d="M95.412,115.031c-25.627,0-51.082,0-76.719,0
	c0-32.006,0-63.973,0-96.09c25.526,0,51.04,0,76.719,0C95.412,50.937,95.412,82.844,95.412,115.031z M85.695,105.295
	c0-25.675,0-51.127,0-76.641c-19.224,0-38.283,0-57.458,0c0,25.596,0,51.049,0,76.641C47.432,105.295,66.492,105.295,85.695,105.295
	z"/>
<path fill-rule="evenodd" clip-rule="evenodd" fill="#FFFFFF" d="M182.05,182.401c-25.684,0-51.156,0-76.767,0
	c0-32.002,0-63.916,0-95.989c25.563,0,51.085,0,76.767,0C182.05,118.371,182.05,150.285,182.05,182.401z M114.913,95.909
	c0,25.624,0,51.186,0,76.861c19.201,0,38.251,0,57.381,0c0-25.686,0-51.242,0-76.861C153.095,95.909,134.092,95.909,114.913,95.909z
	"/>
<path fill-rule="evenodd" clip-rule="evenodd" fill="#FFFFFF" d="M105.27,76.405c0-19.249,0-38.307,0-57.489
	c25.582,0,51.039,0,76.719,0c0,19.118,0,38.223,0,57.489C156.468,76.405,130.954,76.405,105.27,76.405z M172.383,28.671
	c-19.319,0-38.371,0-57.493,0c0,12.817,0,25.475,0,38.125c19.267,0,38.382,0,57.493,0C172.383,54.012,172.383,41.406,172.383,28.671
	z"/>
<path fill-rule="evenodd" clip-rule="evenodd" fill="#FFFFFF" d="M18.638,124.83c25.622,0,51.135,0,76.794,0
	c0,19.209,0,38.323,0,57.549c-25.641,0-51.155,0-76.794,0C18.638,163.226,18.638,144.163,18.638,124.83z M85.713,134.483
	c-19.287,0-38.337,0-57.457,0c0,12.832,0,25.492,0,38.281c19.205,0,38.258,0,57.457,0C85.713,159.965,85.713,147.296,85.713,134.483
	z"/>
</svg>
