<?xml version="1.0" encoding="utf-8"?>
<!-- Generator: Adobe Illustrator 21.0.0, SVG Export Plug-In . SVG Version: 6.00 Build 0)  -->
<svg version="1.1" id="Layer_1" xmlns="http://www.w3.org/2000/svg" xmlns:xlink="http://www.w3.org/1999/xlink" x="0px" y="0px"
	 viewBox="0 0 200 200" style="enable-background:new 0 0 200 200;" xml:space="preserve">
<style type="text/css">
	.st0{fill:#FFFFFF;}
	.st1{fill:#8C8C8C;}
</style>
<circle class="st0" cx="100" cy="100" r="93"/>
<g id="Icons">
	<g>
		<path class="st1" d="M100.3,15.5c-46.1,0-83.7,37.5-83.7,83.7c0,46.1,37.5,83.7,83.7,83.7S184,145.3,184,99.2
			C184,53,146.5,15.5,100.3,15.5z M139.5,141.3H61.2c-1,0-1.9-0.8-1.9-1.9c0-22.6,18.4-41,41-41s41,18.4,41,41
			C141.4,140.5,140.5,141.3,139.5,141.3z M100.3,57c11.4,0,20.6,9.2,20.6,20.6s-9.2,20.6-20.6,20.6S79.7,89,79.7,77.6
			S89,57,100.3,57z M87,32.8c-0.2-1,0.5-2,1.5-2.2c2.9-0.5,5.9-0.9,8.8-1c1-0.1,1.9,0.7,2,1.8c0.1,1-0.7,1.9-1.8,2
			c-2.8,0.1-5.6,0.5-8.4,1c-0.1,0-0.2,0-0.3,0C88,34.4,87.2,33.8,87,32.8z M53.4,48.1c6.2-5.3,16.1-12.4,27.9-15.8
			c1-0.3,2,0.3,2.3,1.3s-0.3,2-1.3,2.3c-11.2,3.2-20.6,9.9-26.5,15c-0.4,0.3-0.8,0.5-1.2,0.5c-0.5,0-1-0.2-1.4-0.6
			C52.5,50,52.6,48.8,53.4,48.1z"/>
	</g>
</g>
</svg>
