<?xml version="1.0" encoding="utf-8"?>
<!-- Generator: Adobe Illustrator 21.0.0, SVG Export Plug-In . SVG Version: 6.00 Build 0)  -->
<svg version="1.1" id="Layer_1" xmlns="http://www.w3.org/2000/svg" xmlns:xlink="http://www.w3.org/1999/xlink" x="0px" y="0px"
	 viewBox="0 0 722.7 200" style="enable-background:new 0 0 722.7 200;" xml:space="preserve">
<style type="text/css">
	.st0{fill:#FFFFFF;}
</style>
<path class="st0" d="M70.1,78.5c4.1,2.5,7.2,5.9,9.6,10.3c2.3,4.4,3.5,9.3,3.5,14.7c0,5.4-1.2,10.3-3.7,14.7
	c-2.5,4.4-5.9,7.9-10.3,10.4c-4.4,2.5-9.3,3.8-14.6,3.8c-5.3,0-10.2-1.3-14.5-3.8c-4.3-2.5-7.8-6-10.3-10.4
	c-2.5-4.4-3.8-9.3-3.8-14.7V56.2c0-1.6,0.5-2.9,1.5-3.8c1-1,2.3-1.5,3.8-1.5c1.6,0,2.9,0.5,3.8,1.5c1,1,1.5,2.3,1.5,3.8v28.1
	c2.4-3,5.4-5.3,8.8-7c3.5-1.7,7.2-2.5,11.2-2.5C61.5,74.8,66.1,76,70.1,78.5z M63.9,120.6c2.8-1.7,5-4,6.7-7c1.6-3,2.4-6.3,2.4-10
	c0-3.7-0.8-7-2.4-9.9c-1.6-2.9-3.8-5.3-6.7-7c-2.8-1.7-5.9-2.5-9.4-2.5c-3.5,0-6.6,0.8-9.4,2.5c-2.8,1.7-5,4-6.6,7
	c-1.6,2.9-2.4,6.3-2.4,9.9c0,3.7,0.8,7,2.4,10c1.6,3,3.8,5.3,6.6,7c2.8,1.7,5.9,2.5,9.4,2.5C57.9,123.1,61.1,122.3,63.9,120.6z"/>
<path class="st0" d="M133.3,76.2c2.1,1.1,3.1,2.5,3.1,4.2c0,0.5,0,0.8-0.1,1c-0.6,2.2-2,3.3-4.2,3.3c-0.3,0-0.9-0.1-1.6-0.2
	c-2.8-0.5-5-0.7-6.8-0.7c-5,0-9,1.1-12.1,3.4c-3.1,2.3-4.6,5.4-4.6,9.3v30.4c0,1.7-0.4,2.9-1.3,3.8c-0.9,0.9-2.2,1.4-3.9,1.4
	c-1.7,0-2.9-0.4-3.8-1.3c-0.9-0.9-1.4-2.2-1.4-3.9V80.4c0-1.7,0.5-2.9,1.4-3.8c0.9-0.9,2.2-1.4,3.8-1.4c3.5,0,5.2,1.7,5.2,5.2v2
	c2.1-2.4,4.6-4.3,7.7-5.7c3.1-1.4,6.3-2.1,9.8-2.1C128.3,74.6,131.2,75.1,133.3,76.2z"/>
<path class="st0" d="M181.3,78.6c4.3,2.5,7.8,6,10.3,10.4c2.5,4.4,3.8,9.3,3.8,14.7v23.2c0,1.5-0.5,2.8-1.5,3.8
	c-1,1-2.3,1.5-3.8,1.5c-1.5,0-2.8-0.5-3.8-1.5c-1-1-1.5-2.3-1.5-3.8V123c-2.4,3-5.4,5.3-8.8,7c-3.5,1.7-7.2,2.5-11.2,2.5
	c-5,0-9.5-1.2-13.6-3.7s-7.2-5.9-9.6-10.3c-2.3-4.4-3.5-9.3-3.5-14.7c0-5.4,1.2-10.3,3.7-14.7c2.5-4.4,5.9-7.9,10.3-10.4
	c4.4-2.5,9.3-3.8,14.6-3.8C172.1,74.8,177,76,181.3,78.6z M176.2,120.6c2.8-1.7,5-4,6.6-7c1.6-2.9,2.4-6.3,2.4-9.9
	c0-3.7-0.8-7-2.4-10c-1.6-3-3.8-5.3-6.6-7c-2.8-1.7-5.9-2.5-9.4-2.5c-3.5,0-6.6,0.8-9.4,2.5c-2.8,1.7-5,4-6.7,7
	c-1.6,3-2.4,6.3-2.4,10c0,3.7,0.8,7,2.4,9.9c1.6,2.9,3.8,5.3,6.7,7c2.8,1.7,5.9,2.5,9.4,2.5C170.2,123.1,173.4,122.3,176.2,120.6z"
	/>
<path class="st0" d="M210.5,63.9c-1.4-1.4-2-3-2-4.8c0-1.9,0.7-3.5,2-4.8c1.4-1.4,3-2,4.8-2s3.5,0.7,4.8,2c1.4,1.4,2,3,2,4.8
	c0,1.9-0.7,3.5-2,4.8s-3,2-4.8,2S211.9,65.3,210.5,63.9z M211.6,130.6c-1-1-1.5-2.3-1.5-3.8V80.5c0-1.6,0.5-2.9,1.5-3.8
	c1-1,2.3-1.5,3.8-1.5c1.6,0,2.9,0.5,3.8,1.5c1,1,1.5,2.3,1.5,3.8v46.3c0,1.5-0.5,2.8-1.5,3.8c-1,1-2.3,1.5-3.8,1.5
	C213.8,132.1,212.6,131.6,211.6,130.6z"/>
<path class="st0" d="M279.4,77.8c3.8,2.1,6.8,5.1,8.9,9.1c2.1,4,3.2,8.8,3.2,14.4v25.6c0,1.5-0.5,2.8-1.5,3.8c-1,1-2.3,1.5-3.8,1.5
	c-1.5,0-2.8-0.5-3.8-1.5c-1-1-1.5-2.3-1.5-3.8v-25.6c0-5.6-1.5-9.9-4.5-12.7c-3-2.9-7-4.3-12-4.3c-2.9,0-5.6,0.6-8,1.8
	c-2.4,1.2-4.3,2.8-5.6,4.8c-1.4,2-2,4.3-2,6.8v29.3c0,1.5-0.5,2.8-1.5,3.8c-1,1-2.3,1.5-3.8,1.5c-1.5,0-2.8-0.5-3.8-1.5
	c-1-1-1.5-2.3-1.5-3.8V80.5c0-1.6,0.5-2.9,1.5-3.8c1-1,2.3-1.5,3.8-1.5c1.6,0,2.9,0.5,3.8,1.5c1,1,1.5,2.3,1.5,3.8v1.1
	c2.2-2.2,4.9-3.9,7.9-5.1c3.1-1.2,6.3-1.8,9.8-1.8C271.3,74.7,275.6,75.7,279.4,77.8z"/>
<path class="st0" d="M428.6,76.5c1,1,1.5,2.3,1.5,3.8v46.4c0,1.5-0.5,2.8-1.5,3.8c-1,1-2.3,1.5-3.8,1.5c-1.5,0-2.8-0.5-3.8-1.5
	c-1-1-1.5-2.3-1.5-3.8v-1.1c-2.2,2.2-4.9,3.9-7.9,5.1c-3.1,1.2-6.3,1.8-9.8,1.8c-4.8,0-9.1-1-12.9-3.1c-3.8-2.1-6.8-5.1-8.9-9.1
	c-2.2-4-3.2-8.8-3.2-14.4V80.4c0-1.5,0.5-2.8,1.5-3.8c1-1,2.3-1.5,3.8-1.5c1.5,0,2.8,0.5,3.8,1.5c1,1,1.5,2.3,1.5,3.8V106
	c0,5.6,1.5,9.9,4.5,12.7c3,2.9,7,4.3,12,4.3c2.9,0,5.6-0.6,8-1.8c2.4-1.2,4.3-2.8,5.6-4.8c1.4-2,2-4.3,2-6.8V80.4
	c0-1.6,0.5-2.9,1.5-3.8c1-1,2.3-1.5,3.8-1.5C426.4,75.1,427.7,75.6,428.6,76.5z"/>
<path class="st0" d="M487.8,77.8c3.8,2.1,6.8,5.1,8.9,9.1c2.1,4,3.2,8.8,3.2,14.4v25.6c0,1.5-0.5,2.8-1.5,3.8c-1,1-2.3,1.5-3.8,1.5
	c-1.5,0-2.8-0.5-3.8-1.5c-1-1-1.5-2.3-1.5-3.8v-25.6c0-5.6-1.5-9.9-4.5-12.7c-3-2.9-7-4.3-12-4.3c-2.9,0-5.6,0.6-8,1.8
	c-2.4,1.2-4.3,2.8-5.6,4.8c-1.4,2-2,4.3-2,6.8v29.3c0,1.5-0.5,2.8-1.5,3.8c-1,1-2.3,1.5-3.8,1.5c-1.5,0-2.8-0.5-3.8-1.5
	c-1-1-1.5-2.3-1.5-3.8V80.5c0-1.6,0.5-2.9,1.5-3.8c1-1,2.3-1.5,3.8-1.5c1.6,0,2.9,0.5,3.8,1.5c1,1,1.5,2.3,1.5,3.8v1.1
	c2.2-2.2,4.9-3.9,7.9-5.1c3-1.2,6.3-1.8,9.8-1.8C479.7,74.7,484,75.7,487.8,77.8z"/>
<path class="st0" d="M568.3,52.3c1,1,1.5,2.3,1.5,3.8v47.4c0,5.4-1.3,10.3-3.8,14.7c-2.5,4.4-6,7.9-10.3,10.4
	c-4.3,2.5-9.2,3.8-14.5,3.8c-5.3,0-10.2-1.3-14.6-3.8c-4.4-2.5-7.9-6-10.3-10.4c-2.5-4.4-3.7-9.3-3.7-14.7c0-5.4,1.2-10.3,3.5-14.7
	c2.3-4.4,5.5-7.9,9.6-10.3s8.6-3.7,13.6-3.7c4,0,7.8,0.8,11.2,2.5c3.5,1.7,6.4,4,8.8,7V56.2c0-1.6,0.5-2.9,1.5-3.8
	c1-1,2.3-1.5,3.8-1.5C566.1,50.9,567.3,51.3,568.3,52.3z M550.6,120.6c2.8-1.7,5-4,6.6-7c1.6-3,2.4-6.3,2.4-10c0-3.7-0.8-7-2.4-9.9
	c-1.6-2.9-3.8-5.3-6.6-7c-2.8-1.7-5.9-2.5-9.4-2.5c-3.5,0-6.6,0.8-9.4,2.5c-2.8,1.7-5,4-6.7,7c-1.6,2.9-2.4,6.3-2.4,9.9
	c0,3.7,0.8,7,2.4,10c1.6,3,3.8,5.3,6.7,7c2.8,1.7,5.9,2.5,9.4,2.5C544.6,123.1,547.8,122.3,550.6,120.6z"/>
<path class="st0" d="M587.8,63.9c-1.4-1.4-2-3-2-4.8c0-1.9,0.7-3.5,2-4.8c1.4-1.4,3-2,4.8-2s3.5,0.7,4.8,2c1.4,1.4,2,3,2,4.8
	c0,1.9-0.7,3.5-2,4.8s-3,2-4.8,2S589.2,65.3,587.8,63.9z M588.9,130.6c-1-1-1.5-2.3-1.5-3.8V80.5c0-1.6,0.5-2.9,1.5-3.8
	c1-1,2.3-1.5,3.8-1.5c1.6,0,2.9,0.5,3.8,1.5c1,1,1.5,2.3,1.5,3.8v46.3c0,1.5-0.5,2.8-1.5,3.8c-1,1-2.3,1.5-3.8,1.5
	C591.1,132.1,589.9,131.6,588.9,130.6z"/>
<path class="st0" d="M642.9,123.1c0.9,1,1.3,2.2,1.3,3.7c0,1.5-0.6,2.8-1.7,3.7c-1.1,1-2.6,1.5-4.4,1.5h-1.9c-3.4,0-6.5-0.9-9.3-2.7
	s-5-4.2-6.6-7.2c-1.6-3.1-2.4-6.5-2.4-10.3V86.2h-4.8c-1.5,0-2.6-0.4-3.5-1.2c-0.9-0.8-1.4-1.9-1.4-3.1c0-1.4,0.5-2.5,1.4-3.3
	c0.9-0.8,2.1-1.2,3.5-1.2h4.8v-15c0-1.5,0.5-2.8,1.5-3.7c1-1,2.2-1.5,3.7-1.5c1.5,0,2.8,0.5,3.7,1.5c1,1,1.5,2.2,1.5,3.7v15h8.8
	c1.5,0,2.6,0.4,3.5,1.2c0.9,0.8,1.4,1.9,1.4,3.3c0,1.2-0.5,2.3-1.4,3.1c-0.9,0.8-2.1,1.2-3.5,1.2h-8.8v25.7c0,2.8,0.8,5.1,2.3,7
	c1.5,1.9,3.4,2.8,5.6,2.8h3.5C641,121.7,642.1,122.2,642.9,123.1z"/>
<path class="st0" d="M662.4,130.3c-4.2-1.5-7.4-3.4-9.8-5.7c-0.9-0.9-1.4-2-1.4-3.2c0-1.7,0.7-3,2.1-4.1c1.3-1,2.5-1.5,3.6-1.5
	c1.4,0,2.7,0.6,4,1.9c1.3,1.5,3.3,2.7,5.9,3.8c2.6,1.1,5.4,1.6,8.4,1.6c4,0,7-0.7,9.2-2c2.2-1.3,3.3-3.1,3.3-5.3
	c0-2.1-1.1-3.9-3.2-5.4c-2.2-1.4-5.8-2.6-10.9-3.6c-13.3-2.6-20-8-20-16.4c0-3.4,1-6.3,3-8.6c2-2.4,4.6-4.1,7.9-5.3
	c3.3-1.2,6.7-1.8,10.4-1.8c4.5,0,8.5,0.7,12.1,2.2c3.6,1.5,6.4,3.5,8.5,6c0.9,1.1,1.4,2.2,1.4,3.3c0,1.2-0.6,2.3-1.8,3.2
	c-0.8,0.6-1.7,0.8-2.9,0.8c-1.8,0-3.4-0.7-4.9-2c-1.7-1.6-3.6-2.7-5.5-3.4c-1.9-0.7-4.3-1-7.1-1c-3.2,0-5.8,0.5-7.9,1.6
	c-2,1.1-3.1,2.6-3.1,4.5c0,1.4,0.3,2.5,1,3.5c0.7,0.9,2,1.8,4,2.6c1.9,0.8,4.7,1.6,8.4,2.3c7.6,1.5,12.9,3.6,16.1,6.3
	c3.2,2.7,4.7,6.2,4.7,10.5c0,3.2-0.9,6.1-2.6,8.7c-1.7,2.6-4.3,4.6-7.6,6.1c-3.4,1.5-7.4,2.2-12.1,2.2
	C671,132.5,666.6,131.8,662.4,130.3z"/>
<g>
	<path class="st0" d="M354.3,42c0,0.1,0,1.1-0.2,2.9c0,0.2,0,0.4-0.1,0.6c0,0.1,0,0.4-0.1,0.8c0,0.3-0.1,0.7-0.1,1.1
		c0,0.3-0.1,0.7-0.2,1.4c-0.1,0.3-0.1,0.6-0.2,0.9c0,0,0,0,0,0c-0.1,0.6-0.2,1.2-0.4,1.8c0,0.2-0.1,0.4-0.1,0.6
		c-0.1,0.2-0.2,0.7-0.3,1.3c-0.1,0.2-0.1,0.4-0.2,0.7c-0.1,0.4-0.3,0.9-0.4,1.3c-0.1,0.2-0.1,0.4-0.2,0.7c0,0.1-0.1,0.3-0.2,0.7
		c-2.5,6.9-7.2,13.8-16.4,15v-21c0.1,0,0.2-0.1,0.3-0.1c0.1,0,0.1-0.1,0.2-0.1c0.2-0.1,0.3-0.2,0.5-0.2c0.2-0.1,0.3-0.2,0.5-0.2
		c0.2-0.1,0.3-0.1,0.4-0.2c1.1-0.4,2-0.7,2.6-0.8c0.1,0,0.1,0,0.2,0c0.2,0,0.3-0.1,0.3-0.1s-3,3-3,5c0,0,3-4,9-5
		C352.2,48,354.2,42.3,354.3,42z"/>
	<path class="st0" d="M354.1,45.5c0-0.2,0-0.4,0.1-0.6C354.2,45.1,354.1,45.3,354.1,45.5z"/>
	<path class="st0" d="M354,46.4c0,0.3-0.1,0.7-0.1,1.1C354,47.1,354,46.7,354,46.4z"/>
	<path class="st0" d="M353.7,48.8c0,0.3-0.1,0.6-0.2,0.9C353.6,49.4,353.7,49.1,353.7,48.8z"/>
	<path class="st0" d="M353.2,51.6c0.1-0.6,0.3-1.2,0.4-1.8C353.4,50.4,353.3,51,353.2,51.6z"/>
	<path class="st0" d="M353,52.2c0-0.2,0.1-0.4,0.1-0.6C353.1,51.8,353.1,52,353,52.2z"/>
	<path class="st0" d="M352.5,54.2c0.1-0.2,0.1-0.4,0.2-0.7C352.7,53.7,352.6,54,352.5,54.2z"/>
	<path class="st0" d="M352.2,55.5c0.1-0.5,0.3-0.9,0.4-1.3C352.4,54.6,352.3,55,352.2,55.5z"/>
	<path class="st0" d="M351.9,56.2c0.1-0.2,0.2-0.4,0.2-0.7C352.1,55.7,352,55.9,351.9,56.2z"/>
	<path class="st0" d="M340.1,49.1c-0.1,0-0.1,0-0.2,0C339.9,49.1,340,49.1,340.1,49.1z"/>
	<path class="st0" d="M337.3,49.9c-0.1,0-0.3,0.1-0.4,0.2C337,50,337.1,50,337.3,49.9z"/>
	<path class="st0" d="M336.3,50.3c-0.2,0.1-0.3,0.1-0.5,0.2C336,50.5,336.2,50.4,336.3,50.3z"/>
	<path class="st0" d="M335.3,71.8c9.2-1.2,13.9-8.1,16.4-15c-2.7,7.6-8.2,15.3-19.4,15.2c-3.1,0-9-3-6-11c1.6-5.5,5.7-8.5,9-10.2
		V71.8z"/>
	<path class="st0" d="M335.6,50.7c-0.1,0-0.2,0.1-0.3,0.1C335.4,50.7,335.5,50.7,335.6,50.7z"/>
	<path class="st0" d="M359.5,89c-2.5-4.4-6-7.9-10.4-10.4c-4.4-2.5-9.3-3.8-14.6-3.8c-0.1,0-0.2,0-0.2,0c-5.3,0-10,1.3-14.3,3.8
		c-4.3,2.5-7.8,6-10.3,10.4c-2.5,4.4-3.8,9.3-3.8,14.7v47.4c0,1.6,0.5,2.9,1.5,3.8c1,1,2.3,1.5,3.8,1.5c1.6,0,2.9-0.5,3.8-1.5
		c1-1,1.5-2.3,1.5-3.8V123c2.4,3,5.4,5.3,8.8,7c2.8,1.3,5.8,2.1,8.9,2.4c0.8,0.1,1.5,0.1,2.3,0.1c5,0,9.5-1.3,13.6-3.7
		c4.1-2.5,7.2-6,9.6-10.4c2.3-4.4,3.5-9.3,3.5-14.7C363.3,98.3,362,93.4,359.5,89z M344.3,105h-20c-1.1,0-2-0.9-2-2c0-1.1,0.9-2,2-2
		h20c1.1,0,2,0.9,2,2C346.3,104.1,345.4,105,344.3,105z M344.3,98h-20c-1.1,0-2-0.9-2-2c0-1.1,0.9-2,2-2h20c1.1,0,2,0.9,2,2
		C346.3,97.1,345.4,98,344.3,98z M344.3,91h-20c-1.1,0-2-0.9-2-2c0-1.1,0.9-2,2-2h20c1.1,0,2,0.9,2,2C346.3,90.1,345.4,91,344.3,91z
		"/>
</g>
</svg>
