<svg id="Layer_1" data-name="Layer 1" xmlns="http://www.w3.org/2000/svg" viewBox="0 0 196.16 152.06"><defs><style>.cls-1{fill:#ccc;}.cls-2{fill:#d7f0db;}.cls-3{fill:#feefd8;}</style></defs><title>no image icon</title><path class="cls-1" d="M113.65,53.56h76.69c5.37,0,7.64,2.22,7.65,7.56q0,54.8,0,109.59c0,5.33-2.45,7.67-8,7.68q-64.31,0-128.63,0c-8.07,0-16.14,0-24.2,0-6.11,0-8.17-2.06-8.17-8.14q0-54.8,0-109.59c0-5,2.18-7.11,7.14-7.11h77.5Zm-.08,12.29v0c-22.94,0-45.88,0-68.83-.06-2.8,0-3.49.84-3.49,3.55.08,30.83,0,61.66,0,92.49,0,3.91,0,3.95,3.89,3.95H182c3.69,0,3.71,0,3.71-3.84q0-46.25,0-92.49c0-3.61,0-3.62-3.6-3.62Z" transform="translate(-1.84 -26.35)"/><path class="cls-1" d="M86.27,26.36H163c5.8,0,7.84,2.07,7.86,7.85,0,2.81,0,5.62,0,8.43,0,1.61-.68,2.34-2.25,2.35s-3.08,0-4.62.05c-4.76,0-4.83,0-5.42-4.65-.24-1.93-1.51-1.73-2.76-1.73H135.13q-58.76,0-117.52,0c-2.75,0-3.52.73-3.52,3.5q.14,46.52,0,93c0,2.51.61,3.8,3.31,3.49,2.42-.28,3.21,1,3.11,3.23s-.06,4.53,0,6.8c0,1.83-.84,2.6-2.67,2.56-3-.06-6,0-9,0-4.59-.11-7-2.52-7-7.2q0-34.41,0-68.83,0-20.54,0-41.08c0-5.56,2.17-7.75,7.71-7.75Z" transform="translate(-1.84 -26.35)"/><path class="cls-2" d="M113.61,151.91q-29.09,0-58.18,0c-3.75,0-4-.35-2.66-3.84,3.92-10.53,12.3-15.2,22.67-17.17a64.73,64.73,0,0,1,24,.39c1.83.34,2.9,0,4-1.67,7.5-11.88,15.13-23.66,22.72-35.48,1.69-2.63,1.87-2.65,3.63-.14,5.83,8.31,11.7,16.59,17.45,24.95,1.29,1.88,2,2.11,3.36.07,2.45-3.7,5.17-7.22,7.73-10.84,1.17-1.66,1.91-1.66,2.59.36q6.81,20.36,13.72,40.68c1,2.87-.69,2.7-2.56,2.7q-29.23,0-58.45,0Z" transform="translate(-1.84 -26.35)"/><path class="cls-3" d="M78.61,112.69a14.05,14.05,0,1,1,14.28-14A14.17,14.17,0,0,1,78.61,112.69Z" transform="translate(-1.84 -26.35)"/></svg>