<svg xmlns="http://www.w3.org/2000/svg" viewBox="0 0 53 53"><defs><style>.cls-1{fill:#98c1d9;}.cls-2{fill:#e7eced;}</style></defs><title>Asset 1</title><g id="Layer_2" data-name="Layer 2"><g id="Capa_1" data-name="Capa 1"><rect class="cls-1" width="53" height="53" rx="2.68" ry="2.68"/><path class="cls-2" d="M43.36,46.77h0a6.87,6.87,0,0,0-1.28-.85L33.6,41.69a3.23,3.23,0,0,1-1.79-2.89V35.48a12.78,12.78,0,0,0,.8-1,19.48,19.48,0,0,0,2.63-5.3,2.66,2.66,0,0,0,1.89-2.53V23.07a2.65,2.65,0,0,0-.89-2V16S37.3,8,26.5,8s-9.75,8-9.75,8V21.1a2.64,2.64,0,0,0-.89,2v3.55a2.66,2.66,0,0,0,1.23,2.23,17.6,17.6,0,0,0,3.21,6.63v3.24a3.23,3.23,0,0,1-1.68,2.83s-8.79,4.88-9.18,5.22C3.41,50.25,3.55,53,3.55,53H49.24S49.38,50.25,43.36,46.77Z"/></g></g></svg>