<?xml version="1.0" encoding="utf-8"?>
<!-- Generator: Adobe Illustrator 21.0.0, SVG Export Plug-In . SVG Version: 6.00 Build 0)  -->
<svg version="1.1" id="Capa_1" xmlns="http://www.w3.org/2000/svg" xmlns:xlink="http://www.w3.org/1999/xlink" x="0px" y="0px"
	 viewBox="0 0 130 130" style="enable-background:new 0 0 130 130;" xml:space="preserve">
<style type="text/css">
	.st0{fill:#818181;}
</style>
<g>
	<path class="st0" d="M103.5,113.3c-0.5,0-1.1-0.1-1.6-0.3l-16.6-6.3C78.9,108.9,72,110,65,110C34.6,110,9.8,89.1,9.8,63.4
		c0-25.8,24.8-46.7,55.2-46.7s55.2,20.9,55.2,46.6c0,10.6-4.3,21-12.2,29.2v16.3c0,1.5-0.7,2.9-1.9,3.7
		C105.3,113,104.4,113.3,103.5,113.3z M85.4,97.4c0.5,0,1.1,0.1,1.6,0.3l12,4.6V90.7c0-1.2,0.5-2.4,1.4-3.2
		c7.1-6.9,10.8-15.3,10.8-24.2c0-20.7-20.7-37.6-46.2-37.6c-25.5,0-46.2,16.9-46.2,37.7C18.8,84.1,39.5,101,65,101
		c6.6,0,12.9-1.1,18.8-3.3C84.3,97.5,84.9,97.4,85.4,97.4z"/>
</g>
</svg>
