<?xml version="1.0" encoding="utf-8"?>
<!-- Generator: Adobe Illustrator 21.0.0, SVG Export Plug-In . SVG Version: 6.00 Build 0)  -->
<svg version="1.1" id="Layer_1" xmlns="http://www.w3.org/2000/svg" xmlns:xlink="http://www.w3.org/1999/xlink" x="0px" y="0px"
	 viewBox="0 0 130 130" style="enable-background:new 0 0 130 130;" xml:space="preserve">
<style type="text/css">
	.st0{fill:#818181;}
</style>
<g>
	<path class="st0" d="M65,8.7C34,8.7,8.7,34,8.7,65c0,5,0.7,9.9,2,14.7c-2-1.2-4.7-0.6-6,1.4c-1.4,2.1-0.8,4.9,1.3,6.2l12,8
		c0,0,0,0,0,0l0,0c0.1,0,0.1,0.1,0.2,0.1c0.1,0.1,0.3,0.2,0.4,0.2c0.1,0,0.2,0.1,0.3,0.1c0.1,0,0.2,0.1,0.3,0.1
		c0.1,0,0.2,0.1,0.3,0.1c0.1,0,0.2,0.1,0.3,0.1c0.1,0,0.3,0,0.4,0c0.1,0,0.2,0,0.3,0c0,0,0,0,0,0c0.2,0,0.4,0,0.6,0c0,0,0,0,0,0
		c0,0,0.1,0,0.1,0c0.2,0,0.3-0.1,0.5-0.1c0.1,0,0.1,0,0.2-0.1c0.1,0,0.3-0.1,0.4-0.1c0.1,0,0.1-0.1,0.2-0.1c0.1-0.1,0.3-0.1,0.4-0.2
		c0.1,0,0.1-0.1,0.2-0.1c0.1-0.1,0.3-0.2,0.4-0.3c0,0,0.1-0.1,0.1-0.1c0.2-0.1,0.3-0.3,0.4-0.4c0,0,0,0,0,0c0.1-0.1,0.2-0.3,0.3-0.4
		c0,0,0,0,0,0c0.1-0.2,0.3-0.5,0.4-0.7c0-0.1,0.1-0.1,0.1-0.2c0-0.1,0.1-0.2,0.1-0.3l3.6-13c0.7-2.4-0.7-4.9-3.1-5.5
		c-2.4-0.7-4.9,0.7-5.5,3.1l-0.2,0.7c-1.2-4.3-1.9-8.7-1.9-13.1c0-26.1,21.2-47.3,47.3-47.3s47.3,21.2,47.3,47.3
		S91.1,112.3,65,112.3c-2.5,0-4.5,2-4.5,4.5s2,4.5,4.5,4.5c31,0,56.3-25.3,56.3-56.3S96,8.7,65,8.7z"/>
	<path class="st0" d="M65,69.5c1.2,0,2.3-0.4,3.2-1.3l24.2-24.3c1.8-1.8,1.7-4.6,0-6.4c-1.8-1.8-4.6-1.7-6.4,0L64.8,58.9L49.2,45.6
		c-1.9-1.6-4.7-1.4-6.3,0.5c-1.6,1.9-1.4,4.7,0.5,6.3l18.7,16C62.9,69.1,64,69.5,65,69.5z"/>
</g>
</svg>
