<?xml version="1.0" encoding="utf-8"?>
<!-- Generator: Adobe Illustrator 21.0.0, SVG Export Plug-In . SVG Version: 6.00 Build 0)  -->
<svg version="1.1" id="Capa_1" xmlns="http://www.w3.org/2000/svg" xmlns:xlink="http://www.w3.org/1999/xlink" x="0px" y="0px"
	 viewBox="0 0 130 130" style="enable-background:new 0 0 130 130;" xml:space="preserve">
<style type="text/css">
	.st0{fill:#818181;}
</style>
<g>
	<path class="st0" d="M63.5,112.5C63.5,112.5,63.5,112.5,63.5,112.5c-1.2,0-2.3-0.5-3.2-1.3L20.5,71.3c-6-5.9-9.2-13.8-9.3-22.2
		c0-8.4,3.3-16.4,9.3-22.4c5.9-6,13.8-9.2,22.2-9.3c0,0,0.1,0,0.1,0c7.7,0,15,2.7,20.7,7.8c5.7-5,12.9-7.8,20.6-7.8c0,0,0.1,0,0.1,0
		c8.4,0,16.3,3.3,22.3,9.3l0,0l0,0c6,6,9.3,13.9,9.3,22.3c0,8.4-3.3,16.4-9.3,22.3l-39.8,39.8C65.8,112,64.7,112.5,63.5,112.5z
		 M42.8,26.4C42.7,26.4,42.7,26.4,42.8,26.4c-6,0-11.7,2.4-15.9,6.6c-4.3,4.3-6.7,10-6.6,16c0,6,2.4,11.6,6.6,15.8l36.6,36.7
		L100.1,65c4.3-4.3,6.6-9.9,6.6-16c0-6-2.4-11.7-6.6-16l0,0c-4.3-4.3-9.9-6.6-16-6.6c0,0,0,0-0.1,0c-6,0-11.6,2.4-15.8,6.6l-1.6,1.6
		c-1.8,1.8-4.6,1.8-6.4,0l-1.6-1.6C54.4,28.8,48.8,26.4,42.8,26.4z"/>
</g>
</svg>
