<?xml version="1.0" encoding="utf-8"?>
<!-- Generator: Adobe Illustrator 21.0.0, SVG Export Plug-In . SVG Version: 6.00 Build 0)  -->
<svg version="1.1" id="Capa_1" xmlns="http://www.w3.org/2000/svg" xmlns:xlink="http://www.w3.org/1999/xlink" x="0px" y="0px"
	 viewBox="0 0 130 130" style="enable-background:new 0 0 130 130;" xml:space="preserve">
<style type="text/css">
	.st0{fill:#818181;}
</style>
<g>
	<path class="st0" d="M24.4,81c-8.8,0-16-7.2-16-16s7.2-16,16-16s16,7.2,16,16S33.2,81,24.4,81z M24.4,58c-3.9,0-7,3.1-7,7
		c0,3.9,3.1,7,7,7s7-3.1,7-7C31.4,61.1,28.3,58,24.4,58z"/>
</g>
<g>
	<path class="st0" d="M64.9,81c-8.8,0-16-7.2-16-16s7.2-16,16-16c8.8,0,16,7.2,16,16S73.7,81,64.9,81z M64.9,58c-3.9,0-7,3.1-7,7
		c0,3.9,3.1,7,7,7s7-3.1,7-7C71.9,61.1,68.8,58,64.9,58z"/>
</g>
<g>
	<path class="st0" d="M105.3,81c-8.8,0-16-7.2-16-16s7.2-16,16-16s16,7.2,16,16S114.1,81,105.3,81z M105.3,58c-3.9,0-7,3.1-7,7
		c0,3.9,3.1,7,7,7s7-3.1,7-7C112.3,61.1,109.2,58,105.3,58z"/>
</g>
</svg>
