<?xml version="1.0" encoding="utf-8"?>
<!-- Generator: Adobe Illustrator 21.0.0, SVG Export Plug-In . SVG Version: 6.00 Build 0)  -->
<svg version="1.1" id="Layer_1" xmlns="http://www.w3.org/2000/svg" xmlns:xlink="http://www.w3.org/1999/xlink" x="0px" y="0px"
	 viewBox="0 0 130 130" style="enable-background:new 0 0 130 130;" xml:space="preserve">
<style type="text/css">
	.st0{fill:#818181;}
</style>
<g>
	<path class="st0" d="M124.3,64.6C112,44,89.1,31.2,64.6,31.2C40.2,31.2,17.3,44,4.9,64.6c-0.9,1.4-0.9,3.2,0,4.6
		c12.3,20.6,35.2,33.4,59.7,33.4c24.6,0,47.4-12.8,59.7-33.4C125.1,67.8,125.1,66,124.3,64.6z M91.3,66.9c0,14.7-12,26.7-26.7,26.7
		c-14.7,0-26.7-12-26.7-26.7c0-14.7,12-26.7,26.7-26.7C79.3,40.2,91.3,52.2,91.3,66.9z M14.1,66.9c5.2-7.7,12.1-14,20-18.6
		c-3.3,5.4-5.2,11.8-5.2,18.6c0,6.8,1.9,13.2,5.3,18.6C26.2,81,19.3,74.6,14.1,66.9z M95,85.6c3.4-5.4,5.3-11.8,5.3-18.7
		c0-6.8-1.9-13.2-5.3-18.7c8,4.6,14.9,10.9,20.1,18.7C110,74.7,103,81,95,85.6z"/>
	<path class="st0" d="M64.6,85.3C74.7,85.3,83,77,83,66.9c0-10.1-8.3-18.4-18.4-18.4c-10.1,0-18.4,8.3-18.4,18.4
		C46.2,77,54.5,85.3,64.6,85.3z M64.6,57.5c5.2,0,9.4,4.2,9.4,9.4c0,5.2-4.2,9.4-9.4,9.4s-9.4-4.2-9.4-9.4
		C55.2,61.7,59.4,57.5,64.6,57.5z"/>
</g>
</svg>
