<?xml version="1.0" encoding="utf-8"?>
<!-- Generator: Adobe Illustrator 21.0.0, SVG Export Plug-In . SVG Version: 6.00 Build 0)  -->
<svg version="1.1" id="Capa_1" xmlns="http://www.w3.org/2000/svg" xmlns:xlink="http://www.w3.org/1999/xlink" x="0px" y="0px"
	 viewBox="0 0 130 130" style="enable-background:new 0 0 130 130;" xml:space="preserve">
<style type="text/css">
	.st0{fill:none;stroke:#818181;stroke-width:9;stroke-linecap:round;stroke-linejoin:round;stroke-miterlimit:10;}
	.st1{fill:none;stroke:#818181;stroke-width:9;stroke-miterlimit:10;}
</style>
<g>
	<path class="st0" d="M29,26.3v58.6c0,0-15.9,28.7-15.9,29.1V26.3H29z"/>
	<path class="st1" d="M15.2,116.5c-0.5-0.1-1-0.4-1.3-0.7C14.2,116.1,14.7,116.4,15.2,116.5z"/>
	<path class="st0" d="M46.9,17.5v45.1h-5c-1.6,1.3-13,22.3-13,22.3V17.5H46.9z"/>
	<line class="st0" x1="57.4" y1="26.7" x2="93.2" y2="26.7"/>
	<line class="st0" x1="57.4" y1="44.1" x2="93.2" y2="44.1"/>
	<path class="st0" d="M103.7,8.4v54.1l-56.8,0.1V8.4H103.7z"/>
	<path class="st0" d="M119.1,66.4l-27.5,48.9c-0.5,0.8-1.3,1.3-2.3,1.3H15.7c-0.1,0-0.2,0-0.2,0c-0.1,0-0.2,0-0.3,0c0,0,0,0-0.1,0
		c-0.5-0.1-1-0.4-1.3-0.7c-0.1-0.1-0.1-0.1-0.2-0.2c-0.1-0.1-0.2-0.3-0.3-0.5c0-0.1-0.1-0.2-0.1-0.3c0-0.1-0.1-0.2-0.1-0.4
		c0-0.2-0.1-0.4-0.1-0.5c0-0.4,0.1-0.8,0.3-1.2l5.9-10.5l7.6-13.5l14-24.9c0.5-0.8,1.3-1.3,2.3-1.3h73.6
		C118.8,62.5,120.1,64.6,119.1,66.4z"/>
</g>
</svg>
