<?xml version="1.0" encoding="utf-8"?>
<!-- Generator: Adobe Illustrator 21.0.0, SVG Export Plug-In . SVG Version: 6.00 Build 0)  -->
<svg version="1.1" id="Layer_1" xmlns="http://www.w3.org/2000/svg" xmlns:xlink="http://www.w3.org/1999/xlink" x="0px" y="0px"
	 viewBox="0 0 129 129" style="enable-background:new 0 0 129 129;" xml:space="preserve">
<style type="text/css">
	.st0{fill:#818181;}
</style>
<g>
	<path class="st0" d="M101.8,28.5h-11V11c0-2.5-2-4.5-4.5-4.5H42.7c-2.5,0-4.5,2-4.5,4.5v17.5h-11c-6.4,0-11.6,5.2-11.6,11.6v56.1
		c0,2.5,2,4.5,4.5,4.5h18.1v20.3c0,2.5,2,4.5,4.5,4.5h43.7c2.5,0,4.5-2,4.5-4.5v-20.3h18.1c2.5,0,4.5-2,4.5-4.5V40.1
		C113.4,33.7,108.2,28.5,101.8,28.5z M47.2,15.5h34.7v12.8H47.2V15.5z M81.8,116.6H47.2V85.2h34.7V116.6z M104.4,91.8H90.8v-6.6h3.5
		c2.5,0,4.5-2,4.5-4.5s-2-4.5-4.5-4.5h-8H42.7h-8c-2.5,0-4.5,2-4.5,4.5s2,4.5,4.5,4.5h3.5v6.6H24.6V40.1c0-1.5,1.2-2.6,2.6-2.6h74.6
		c1.5,0,2.6,1.2,2.6,2.6V91.8z"/>
	<circle class="st0" cx="90" cy="53.2" r="6.1"/>
</g>
</svg>
