<?xml version="1.0" encoding="utf-8"?>
<!-- Generator: Adobe Illustrator 21.0.0, SVG Export Plug-In . SVG Version: 6.00 Build 0)  -->
<svg version="1.1" id="Capa_1" xmlns="http://www.w3.org/2000/svg" xmlns:xlink="http://www.w3.org/1999/xlink" x="0px" y="0px"
	 viewBox="0 0 130 130" style="enable-background:new 0 0 130 130;" xml:space="preserve">
<style type="text/css">
	.st0{fill:#818181;}
</style>
<g>
	<path class="st0" d="M26.7,45.9c-8.7,0-15.8-7.1-15.8-15.8c0-8.7,7.1-15.8,15.8-15.8c8.7,0,15.8,7.1,15.8,15.8
		C42.5,38.8,35.4,45.9,26.7,45.9z M26.7,23.3c-3.7,0-6.8,3.1-6.8,6.8s3.1,6.8,6.8,6.8s6.8-3.1,6.8-6.8S30.4,23.3,26.7,23.3z"/>
</g>
<g>
	<path class="st0" d="M26.7,83.2c-8.7,0-15.8-7.1-15.8-15.8c0-8.7,7.1-15.8,15.8-15.8c8.7,0,15.8,7.1,15.8,15.8
		C42.5,76.1,35.4,83.2,26.7,83.2z M26.7,60.6c-3.7,0-6.8,3.1-6.8,6.8c0,3.7,3.1,6.8,6.8,6.8s6.8-3.1,6.8-6.8
		C33.5,63.7,30.4,60.6,26.7,60.6z"/>
</g>
<g>
	<path class="st0" d="M26.7,120.5c-8.7,0-15.8-7.1-15.8-15.8S18,88.9,26.7,88.9c8.7,0,15.8,7.1,15.8,15.8S35.4,120.5,26.7,120.5z
		 M26.7,97.9c-3.7,0-6.8,3.1-6.8,6.8s3.1,6.8,6.8,6.8s6.8-3.1,6.8-6.8S30.4,97.9,26.7,97.9z"/>
</g>
<g>
	<path class="st0" d="M113.3,34.6H52.8c-2.5,0-4.5-2-4.5-4.5s2-4.5,4.5-4.5h60.5c2.5,0,4.5,2,4.5,4.5S115.8,34.6,113.3,34.6z"/>
</g>
<g>
	<path class="st0" d="M113.3,71.9H52.8c-2.5,0-4.5-2-4.5-4.5s2-4.5,4.5-4.5h60.5c2.5,0,4.5,2,4.5,4.5S115.8,71.9,113.3,71.9z"/>
</g>
<g>
	<path class="st0" d="M113.3,109.2H52.8c-2.5,0-4.5-2-4.5-4.5s2-4.5,4.5-4.5h60.5c2.5,0,4.5,2,4.5,4.5S115.8,109.2,113.3,109.2z"/>
</g>
</svg>
