<?xml version="1.0" encoding="utf-8"?>
<!-- Generator: Adobe Illustrator 21.0.0, SVG Export Plug-In . SVG Version: 6.00 Build 0)  -->
<svg version="1.1" id="Layer_1" xmlns="http://www.w3.org/2000/svg" xmlns:xlink="http://www.w3.org/1999/xlink" x="0px" y="0px"
	 viewBox="0 0 130 130" style="enable-background:new 0 0 130 130;" xml:space="preserve">
<style type="text/css">
	.st0{fill:#818181;}
</style>
<path class="st0" d="M97.3,40c-13.8,0-25,11.2-25,25s11.2,25,25,25s25-11.2,25-25S111.1,40,97.3,40z M97.3,80.9
	c-8.8,0-15.9-7.1-15.9-15.9s7.1-15.9,15.9-15.9s15.9,7.1,15.9,15.9C113.2,73.8,106.1,80.9,97.3,80.9z"/>
<path class="st0" d="M32.7,40c-13.8,0-25,11.2-25,25s11.2,25,25,25s25-11.2,25-25S46.6,40,32.7,40z M32.7,80.9
	c-8.8,0-15.9-7.1-15.9-15.9s7.1-15.9,15.9-15.9S48.6,56.2,48.6,65S41.5,80.9,32.7,80.9z"/>
<path class="st0" d="M78.8,48.1c-9.1-1.8-18.5-1.8-27.7-0.1c2.9,3.1,5,7,6,11.3c5.2-0.6,10.5-0.6,15.8,0.1
	C73.9,55.1,75.9,51.3,78.8,48.1z"/>
</svg>
