<?xml version="1.0" encoding="utf-8"?>
<!-- Generator: Adobe Illustrator 21.0.0, SVG Export Plug-In . SVG Version: 6.00 Build 0)  -->
<svg version="1.1" id="Capa_1" xmlns="http://www.w3.org/2000/svg" xmlns:xlink="http://www.w3.org/1999/xlink" x="0px" y="0px"
	 viewBox="0 0 130 130" style="enable-background:new 0 0 130 130;" xml:space="preserve">
<style type="text/css">
	.st0{fill:none;stroke:#818181;stroke-width:9;stroke-linecap:round;stroke-linejoin:round;stroke-miterlimit:10;}
</style>
<g>
	<polygon class="st0" points="28.8,111.1 28.8,118.1 13.4,118.1 13.4,68.4 28.8,68.4 28.8,75 	"/>
	<path class="st0" d="M78.2,11c4.9,0,7.2,7,7.2,12c0,4.2-1.7,9.9-5.1,17.6c-1.7,3.8-1.8,7.3-0.3,9.6c0.9,1.5,2.5,2.3,4.3,2.3h27.2
		c0.2,0,6,0.8,6,6.7c0,6-3.4,7.1-3.5,7.1c-0.7,0.2-1.2,0.8-1.3,1.6c-0.1,0.8,0.4,1.5,1.1,1.7c0,0,3.7,1.5,3.7,6.6s-5.8,7.6-5.9,7.6
		c-0.7,0.3-1.1,0.9-1.1,1.6s0.5,1.3,1.1,1.6c0.1,0,2.7,1.1,2.7,6.2c0,5.2-7.4,7-7.4,7c-0.6,0.1-1.1,0.6-1.3,1.2
		c-0.2,0.6,0,1.2,0.4,1.7c1.4,1.5,2.1,3.3,1.5,7.3c-0.3,2.1-4.6,5.6-29.1,5.6c-13.7,0-20.8-2-25.4-3.3c-2.5-0.7-4.4-1.2-6.3-1.2
		H28.8V74.3c7.3-0.6,13.6-4.8,18.6-12.7c6.7-10.3,10.7-16.1,17.7-25.2C72.3,27.3,76.2,17,77,13.8l0.3-1.3c0.1-0.6,0.2-1.3,0.3-1.5
		C77.5,11,77.7,11,78.2,11z"/>
</g>
</svg>
