<?xml version="1.0" encoding="utf-8"?>
<!-- Generator: Adobe Illustrator 21.0.0, SVG Export Plug-In . SVG Version: 6.00 Build 0)  -->
<svg version="1.1" id="Capa_1" xmlns="http://www.w3.org/2000/svg" xmlns:xlink="http://www.w3.org/1999/xlink" x="0px" y="0px"
	 viewBox="0 0 175.2 175.2" style="enable-background:new 0 0 175.2 175.2;" xml:space="preserve">
<style type="text/css">
	.st0{fill:#818181;}
</style>
<g>
	<circle class="st0" cx="95.9" cy="33.6" r="8.3"/>
	<circle class="st0" cx="74.1" cy="13.3" r="4.1"/>
	<circle class="st0" cx="76.8" cy="147.2" r="4.1"/>
	<circle class="st0" cx="97.7" cy="138.6" r="4.1"/>
	<path class="st0" d="M136.1,152.8l-22.6-34.5c-1.1-1.7-1.7-3.7-1.7-5.8V67.6c1.2-0.8,1.9-2.2,1.9-3.7v-3.6c0-3.3-2.7-5.9-5.9-5.9
		H67.4c-3.3,0-5.9,2.7-5.9,5.9v3.6c0,1.5,0.8,2.9,1.9,3.7v44.9c0,2.1-0.6,4.1-1.7,5.8l-22.6,34.5c-2,3.1-2.2,7.1-0.4,10.4
		c1.8,3.3,5.2,5.3,8.9,5.3h80c3.7,0,7.1-2,8.9-5.3C138.3,159.9,138.1,156,136.1,152.8z M103.2,63.4c-0.3,0.7-0.5,1.6-0.5,2.4v46.7
		c0,1.7,0.2,3.4,0.7,5.1H71.8c0.4-1.6,0.7-3.3,0.7-5.1V65.8c0-0.8-0.2-1.7-0.5-2.4H103.2z M128.6,158.9c-0.1,0.3-0.4,0.6-1,0.6h-80
		c-0.6,0-0.8-0.3-1-0.6s-0.3-0.7,0-1.1l20.4-31.2h41.1l20.4,31.2C128.8,158.2,128.7,158.6,128.6,158.9z"/>
</g>
</svg>
