<?xml version="1.0" encoding="utf-8"?>
<!-- Generator: Adobe Illustrator 19.2.0, SVG Export Plug-In . SVG Version: 6.00 Build 0)  -->
<svg version="1.1" id="Layer_1" xmlns="http://www.w3.org/2000/svg" xmlns:xlink="http://www.w3.org/1999/xlink" x="0px" y="0px"
	 viewBox="0 0 256 256" style="enable-background:new 0 0 256 256;" xml:space="preserve">
<style type="text/css">
	.st0{fill:#BDDBFF;stroke:#3D9AE2;stroke-width:5;stroke-miterlimit:10;}
	.st1{fill:#FFD400;}
</style>
<g>
	<g>
		<path class="st0" d="M151.1,162c0,2.1-0.6,3.8-2,5.4c-1.4,1.6-2.9,2.3-4.7,2.3h-33.2c-1.8,0-3.3-0.7-4.7-2.3s-2-3.3-2-5.4v-18.9
			H35v57c0,5.2,1.7,9.7,4.8,13.4c3.2,3.6,7.1,5.6,11.7,5.6H204c4.5,0,8.5-1.9,11.7-5.6c3.2-3.6,4.8-8.2,4.8-13.4v-57h-69.7V162
			H151.1z"/>
		<rect x="114.6" y="143.1" class="st1" width="26.5" height="15.3"/>
		<path class="st0" d="M216,72.6c-3.2-3.6-7.1-5.6-11.7-5.6h-36.5V48.1c0-3.1-0.9-5.9-2.9-8.2s-4.2-3.3-7.1-3.3H98.1
			c-2.7,0-5.1,1-7.1,3.3c-2,2.3-2.9,4.9-2.9,8.2V67H51.6c-4.5,0-8.5,1.9-11.7,5.6c-3.2,3.6-4.8,8.2-4.8,13.4v45.7h185.7V85.9
			C220.8,80.7,219.1,76.4,216,72.6z M154.5,67h-53V51.7h53V67z"/>
	</g>
</g>
</svg>
