<?xml version="1.0" encoding="utf-8"?>
<!-- Generator: Adobe Illustrator 19.2.0, SVG Export Plug-In . SVG Version: 6.00 Build 0)  -->
<svg version="1.1" id="Layer_1" xmlns="http://www.w3.org/2000/svg" xmlns:xlink="http://www.w3.org/1999/xlink" x="0px" y="0px"
	 viewBox="0 0 256 256" style="enable-background:new 0 0 256 256;" xml:space="preserve">
<style type="text/css">
	.st0{fill:#BDDBFF;stroke:#3D9AE2;stroke-width:6;stroke-miterlimit:10;}
	.st1{fill:#FFFFFF;stroke:#3D9AE2;stroke-width:6;stroke-miterlimit:10;}
	.st2{fill:#FFFFFF;stroke:#3D9AE2;stroke-width:3;stroke-miterlimit:10;}
	.st3{fill:#FFD400;}
	.st4{fill:#FDBF00;}
	.st5{fill:none;stroke:#3D9AE2;stroke-width:2;stroke-miterlimit:10;}
</style>
<path class="st0" d="M186.2,100.2v38.5l-51.7,23.3c-5.8,2.6-12.4,2.6-18.2,0L69,140.4c-2.4-1.1-4-3.5-4-6.2v-34.1H186.2z"/>
<path class="st1" d="M186.2,100.2v32.1c0,3.9-2.3,7.4-5.8,9l-47.9,21.7c-3.3,1.5-7.1-1-7.1-4.6v-58.1L186.2,100.2L186.2,100.2z"/>
<path class="st0" d="M208.2,83.6v87.8h-11V89.1L208.2,83.6z"/>
<path class="st0" d="M202.7,163.7l-14,14c-1.6,1.6-2.5,3.8-2.5,6v35.9c0,1,0.8,1.7,1.7,1.7h29c1.2,0,2.2-1,2.2-2.2v-34.4
	c0-2.8-1.1-5.6-3.2-7.7L202.7,163.7z"/>
<path class="st2" d="M219.1,182.9v37.2h-16.5v-55l14.8,13.9C218.5,180,219.1,181.4,219.1,182.9z"/>
<path class="st0" d="M214.2,86.2l-87.3,46c-0.9,0.4-1.9,0.4-2.8,0l-87.3-46c-2.1-1.1-2.1-4.1,0-5.3L123.2,35c1.4-0.8,3.2-0.8,4.6,0
	L214.2,81C216.3,82.1,216.3,85.2,214.2,86.2z"/>
<path class="st1" d="M211.8,87.6l-86.3,45.6V37c0-1.5,1.6-2.4,2.8-1.7l83.5,44.4C214.9,81.4,214.9,85.9,211.8,87.6z"/>
<path class="st3" d="M125.4,67.1c-12.3,0-22,7.2-22,16.5s9.7,16.5,22,16.5s22-7.2,22-16.5C147.4,74.4,137.7,67.1,125.4,67.1z"/>
<path class="st4" d="M147.4,83.6c0,9.2-9.7,16.5-22,16.5V67.1C137.7,67.1,147.4,74.4,147.4,83.6z"/>
<line class="st5" x1="202.7" y1="163.7" x2="202.7" y2="93.3"/>
</svg>
