<?xml version="1.0" encoding="utf-8"?>
<!-- Generator: Adobe Illustrator 19.2.0, SVG Export Plug-In . SVG Version: 6.00 Build 0)  -->
<svg version="1.1" id="Layer_1" xmlns="http://www.w3.org/2000/svg" xmlns:xlink="http://www.w3.org/1999/xlink" x="0px" y="0px"
	 viewBox="0 0 256 256" style="enable-background:new 0 0 256 256;" xml:space="preserve">
<style type="text/css">
	.st0{fill:#3D9AE2;}
	.st1{fill:#BDDBFF;}
	.st2{fill:#FFFFFF;}
	.st3{fill:#FFD400;}
</style>
<g>
	<path class="st0" d="M41.9,222.9c-2.1-1-2.7-2.3-2.7-4.3c0-60.7,0-121.4,0-182.2c0-1.9,0.8-3.2,2.7-4.1c57.2,0,114.4,0,171.7,0
		c2.1,1,2.7,2.3,2.7,4.3c0,47.9,0,95.8,0,143.7c0,1.6-0.6,2.8-2.1,3.9c-15,12.3-30,24.7-44.9,37c-0.8,0.6-1.5,1.2-2.3,1.7
		C125.3,222.9,83.7,222.9,41.9,222.9z M208.9,38.5c-54.1,0-108.1,0-162.3,0c0,59.5,0,118.9,0,178.3c38.6,0,77,0,115.6,0
		c0-0.8,0-1.6,0-2.3c0-10.6,0-21.1,0-31.7c0-3.4,1.2-4.4,5.4-4.4c12.9,0,25.7,0,38.6,0c0.9,0,1.8,0,2.7,0
		C208.9,131.6,208.9,85.1,208.9,38.5z M169.7,211.6c11.1-9.1,22-18.1,32.9-27.1c-0.1,0-0.8-0.1-1.3-0.1c-9.8,0-19.4,0-29.2,0
		c-2.1,0-2.4,0.6-2.4,2.1c0.1,5.6,0,11.3,0,17C169.7,206.3,169.7,209,169.7,211.6z"/>
	<path class="st1" d="M208.9,38.5c0,46.6,0,93.1,0,139.8c-0.9,0-1.8,0-2.7,0c-12.9,0-25.7,0-38.6,0c-4.2,0-5.4,1-5.4,4.4
		c0,10.6,0,21.1,0,31.7c0,0.7,0,1.5,0,2.3c-38.6,0-77,0-115.6,0c0-59.4,0-118.9,0-178.3C100.8,38.5,154.8,38.5,208.9,38.5z
		 M144.9,93.2c-12,0-23.9,0-35.9,0c-1,0-1.9,0-3,0.2c-1.7,0.2-2.6,1.2-2.7,2.5c-0.1,1.5,0.6,2.5,2.4,3c0.9,0.2,1.9,0.3,2.8,0.3
		c24.2,0,48.5,0,72.7,0c3.6,0,5.4-1.1,5.4-3.1c0-2-1.8-3-5.4-3C169.2,93.2,157.1,93.2,144.9,93.2z M144.9,155.9
		c12.5,0,24.8,0,37.3,0c2.8,0,4.5-1.1,4.5-3c0-1.9-1.7-3-4.5-3c-0.3,0-0.6,0-0.9,0c-24.2,0-48.5,0-72.7,0c-0.9,0-1.8,0-2.7,0.2
		c-1.8,0.4-2.7,1.5-2.6,3.1c0.1,1.5,1.3,2.3,3,2.6c0.8,0.1,1.7,0.1,2.4,0.1C120.8,155.9,132.9,155.9,144.9,155.9z M144.9,121.6
		c-11.6,0-23,0-34.6,0c-1.3,0-2.6,0-3.9,0.1c-1.9,0.1-3.1,1.1-3.2,2.6c-0.1,1.6,0.8,2.6,2.6,3.1c0.6,0.2,1.5,0.2,2.2,0.2
		c24.6,0,49.1,0,73.6,0c0.9,0,1.8-0.1,2.7-0.3c1.7-0.4,2.3-1.5,2.2-2.9c-0.1-1.5-1.2-2.4-3-2.6c-0.8-0.1-1.5-0.1-2.3-0.1
		C169.3,121.6,157.1,121.6,144.9,121.6z M95.8,181.4C95.6,181.4,95.6,181.4,95.8,181.4c0-2.5,0-5.1,0-7.6c0-2.1-1.2-3.4-3.7-3.4
		c-6.4-0.1-12.7-0.1-19.2,0c-2.6,0-4,1.2-4,3.3c-0.1,5.3-0.1,10.5,0,15.8c0,2,1.4,3.1,3.9,3.1c6.3,0,12.6,0.1,18.9,0
		c2.7,0,4-1.2,4.1-3.3C95.8,186.6,95.8,183.9,95.8,181.4z M95.6,124.6L95.6,124.6c0-2.5,0-5.1,0-7.6c0-2.3-1.4-3.4-4.2-3.4
		c-6.2,0-12.3,0-18.5,0c-2.7,0-4.1,1.1-4.2,3.3c-0.1,5.2-0.1,10.4,0,15.6c0,2.1,1.3,3.3,3.9,3.3c6.4,0.1,12.7,0.1,19.2,0
		c2.6,0,3.9-1.3,3.9-3.4C95.8,129.8,95.6,127.1,95.6,124.6z M95.6,153c0-2.4,0-5,0-7.4c0-2.5-1.3-3.7-4.4-3.7
		c-6-0.1-12.2-0.1-18.3,0c-3,0-4.4,1.2-4.4,3.6c-0.1,5.1-0.1,10.2,0,15.3c0,2.3,1.4,3.4,4.2,3.4c6.2,0,12.3,0,18.5,0
		c2.8,0,4.1-1.2,4.2-3.4C95.8,158.1,95.6,155.5,95.6,153z M95.6,96.2C95.6,96.2,95.8,96.2,95.6,96.2c0-2.4,0-4.9,0-7.2
		c0-2.8-1.2-3.8-4.6-3.8c-5.9,0-11.8,0-17.7,0c-3.1,0-4.5,1.1-4.5,3.6c-0.1,5-0.1,10.1,0,15c0,2.4,1.4,3.5,4.4,3.5
		c6.2,0,12.3,0,18.5,0c2.8,0,4.1-1.2,4.1-3.5C95.8,101.3,95.6,98.7,95.6,96.2z M147.6,70.9C147.6,70.8,147.6,70.8,147.6,70.9
		c11.2,0,22.2,0,33.4,0c1,0,1.9,0,3-0.1c1.7-0.3,2.6-1.3,2.7-2.6s-0.6-2.4-2.2-2.9c-1-0.2-2.1-0.3-3.1-0.3c-22.4,0-44.7,0-67.1,0
		c-0.6,0-1.4,0-2.1,0.1c-2.2,0.3-3.5,1.5-3.3,3.1c0.1,1.6,1.4,2.6,3.6,2.8c0.8,0.1,1.5,0,2.3,0C125.6,70.9,136.6,70.9,147.6,70.9z
		 M129.1,184.3L129.1,184.3c5.4,0,10.8,0,16.2,0c2.1,0,4.1,0,6-0.1c2.1-0.1,3.2-1.2,3.3-2.8c0.1-1.5-0.9-2.5-2.7-3
		c-0.5-0.1-1.2-0.2-1.8-0.2c-14.1,0-28.3,0-42.4,0c-0.8,0-1.5,0.1-2.2,0.3c-1.7,0.5-2.4,1.7-2.2,3.1c0.3,1.4,1.2,2.2,3,2.4
		c0.8,0.1,1.7,0.1,2.4,0.1C115.6,184.3,122.2,184.3,129.1,184.3z M82.1,71.8c-1.5-1.4-2.8-2.5-4.2-3.7c-1.9-1.5-4.1-1.6-5.5-0.3
		c-1.5,1.3-1.4,3.1,0.5,4.6c2.1,1.7,4.1,3.4,6.2,5.1c2.3,1.9,4.1,1.9,6.4,0c6.2-5,12.2-10.1,18.4-15.1c2.1-1.7,2.3-3.4,0.6-4.8
		c-1.5-1.3-3.7-1.2-5.8,0.4c-2.6,2-5,4.1-7.5,6.1C88.3,66.7,85.3,69.2,82.1,71.8z"/>
	<path class="st2" d="M169.7,211.6c0-2.5,0-5.4,0-8.2c0-5.6,0-11.3,0-17c0-1.6,0.4-2.2,2.4-2.1c9.6,0.1,19.4,0,29.2,0
		c0.6,0,1.2,0.1,1.3,0.1C191.7,193.4,180.6,202.5,169.7,211.6z"/>
	<path class="st2" d="M144.9,93.2c12.1,0,24.2,0,36.4,0c3.7,0,5.4,1,5.4,3c0,2-1.8,3.1-5.4,3.1c-24.2,0-48.5,0-72.7,0
		c-1,0-1.9,0-2.8-0.3c-1.7-0.4-2.6-1.5-2.4-3c0.1-1.4,1-2.3,2.7-2.5c0.9-0.1,1.9-0.2,3-0.2C121,93.2,132.9,93.2,144.9,93.2z"/>
	<path class="st2" d="M144.9,155.9c-12.1,0-24,0-36.1,0c-0.8,0-1.7,0-2.4-0.1c-1.8-0.2-2.8-1.2-3-2.6c-0.1-1.6,0.8-2.6,2.6-3.1
		c0.9-0.2,1.8-0.2,2.7-0.2c24.2,0,48.5,0,72.7,0c0.3,0,0.6,0,0.9,0c2.8,0,4.5,1.2,4.5,3c0,1.9-1.7,3-4.5,3
		C169.8,155.9,157.3,155.9,144.9,155.9z"/>
	<path class="st2" d="M144.9,121.6c12.2,0,24.4,0,36.5,0c0.8,0,1.5,0,2.3,0.1c1.8,0.2,2.8,1.2,3,2.6c0.1,1.4-0.6,2.4-2.2,2.9
		c-0.8,0.2-1.8,0.3-2.7,0.3c-24.6,0-49.1,0-73.6,0c-0.8,0-1.5,0-2.2-0.2c-1.8-0.4-2.7-1.5-2.6-3.1c0.1-1.6,1.3-2.4,3.2-2.6
		c1.3-0.1,2.6-0.1,3.9-0.1C121.9,121.6,133.4,121.6,144.9,121.6z"/>
	<path class="st2" d="M95.8,181.4c0,2.6,0,5.2,0,7.8c0,2.2-1.4,3.3-4.1,3.3c-6.3,0-12.6,0-18.9,0c-2.4,0-3.9-1.1-3.9-3.1
		c-0.1-5.3-0.1-10.5,0-15.8c0-2.1,1.4-3.3,4-3.3c6.4-0.1,12.7-0.1,19.2,0c2.6,0,3.7,1.3,3.7,3.4C95.8,176.3,95.6,178.8,95.8,181.4
		C95.6,181.4,95.6,181.4,95.8,181.4z M76.2,176.4c0,3.5,0,6.7,0,10c4.1,0,8.1,0,12.1,0c0-3.4,0-6.7,0-10
		C84.3,176.4,80.3,176.4,76.2,176.4z"/>
	<path class="st2" d="M95.6,124.6c0,2.6,0,5.2,0,7.8c0,2.1-1.3,3.3-3.9,3.4c-6.4,0.1-12.7,0.1-19.2,0c-2.6,0-3.9-1.2-3.9-3.3
		c-0.1-5.2-0.1-10.4,0-15.6c0-2.2,1.5-3.2,4.2-3.3c6.2,0,12.3,0,18.5,0c2.8,0,4.1,1.1,4.2,3.4C95.8,119.5,95.6,122,95.6,124.6
		L95.6,124.6z M76.2,129.6c4.1,0,8.1,0,12.1,0c0-3.4,0-6.7,0-10c-4.1,0-8.1,0-12.1,0C76.2,123,76.2,126.2,76.2,129.6z"/>
	<path class="st2" d="M95.6,153c0,2.5,0,5.1,0,7.6c0,2.3-1.4,3.4-4.2,3.4c-6.2,0-12.3,0-18.5,0c-2.8,0-4.2-1.1-4.2-3.4
		c-0.1-5.1-0.1-10.2,0-15.3c0-2.4,1.4-3.5,4.4-3.6c6,0,12.2,0,18.3,0c3,0,4.2,1.2,4.4,3.7C95.8,148.1,95.6,150.5,95.6,153z
		 M88.4,148c-4.1,0-8.1,0-12.1,0c0,3.4,0,6.7,0,10c4.1,0,8.1,0,12.1,0C88.4,154.7,88.4,151.5,88.4,148z"/>
	<path class="st2" d="M95.6,96.2c0,2.5,0,5.1,0,7.6c0,2.3-1.3,3.4-4.1,3.5c-6.2,0.1-12.3,0.1-18.5,0c-3,0-4.2-1.1-4.4-3.5
		c-0.1-5-0.1-10.1,0-15c0-2.5,1.4-3.5,4.5-3.6c5.9,0,11.8,0,17.7,0c3.5,0,4.6,1,4.6,3.8C95.8,91.3,95.8,93.8,95.6,96.2
		C95.8,96.2,95.6,96.2,95.6,96.2z M76.2,91.2c0,3.4,0,6.7,0,10c4.1,0,8.1,0,12.1,0c0-3.4,0-6.7,0-10C84.2,91.2,80.3,91.2,76.2,91.2z
		"/>
	<path class="st2" d="M147.6,70.9c-10.9,0-22,0-32.9,0c-0.8,0-1.5,0-2.3,0c-2.2-0.2-3.5-1.3-3.6-2.8c-0.1-1.7,1.2-2.9,3.3-3.1
		c0.6-0.1,1.4-0.1,2.1-0.1c22.4,0,44.7,0,67.1,0c1,0,2.2,0.1,3.1,0.3c1.7,0.4,2.3,1.6,2.2,2.9c-0.1,1.4-1,2.3-2.7,2.6
		c-0.9,0.1-1.9,0.1-3,0.1C169.9,70.8,158.8,70.8,147.6,70.9C147.6,70.8,147.6,70.8,147.6,70.9z"/>
	<path class="st2" d="M129.1,184.3c-6.8,0-13.5,0-20.3,0c-0.8,0-1.7,0-2.4-0.1c-1.7-0.2-2.7-1.1-3-2.4c-0.3-1.5,0.5-2.5,2.2-3.1
		c0.6-0.2,1.4-0.3,2.2-0.3c14.1,0,28.3,0,42.4,0c0.6,0,1.2,0.1,1.8,0.2c1.9,0.4,2.8,1.5,2.7,3c-0.1,1.6-1.3,2.6-3.3,2.8
		c-2.1,0.1-4.1,0.1-6,0.1C139.9,184.3,134.5,184.3,129.1,184.3L129.1,184.3z"/>
	<path class="st3" d="M82.1,71.8c3.2-2.6,6.2-5.1,9-7.5c2.4-2,5-4.1,7.5-6.1c1.9-1.6,4.2-1.7,5.8-0.4c1.5,1.4,1.4,3-0.6,4.8
		c-6,5.1-12.2,10.1-18.4,15.1c-2.3,1.9-4,1.9-6.4,0c-2.1-1.7-4.2-3.4-6.2-5.1c-1.8-1.6-1.9-3.3-0.5-4.6c1.5-1.3,3.7-1.2,5.5,0.3
		C79.3,69.3,80.6,70.5,82.1,71.8z"/>
	<path class="st1" d="M76.2,176.4c4.1,0,8,0,12.1,0c0,3.4,0,6.6,0,10c-4,0-8,0-12.1,0C76.2,183.1,76.2,179.9,76.2,176.4z"/>
	<path class="st1" d="M76.2,129.6c0-3.3,0-6.6,0-10c4.1,0,8,0,12.1,0c0,3.3,0,6.6,0,10C84.3,129.6,80.3,129.6,76.2,129.6z"/>
	<path class="st1" d="M88.4,148c0,3.5,0,6.7,0,10c-4,0-8,0-12.1,0c0-3.3,0-6.6,0-10C80.3,148,84.3,148,88.4,148z"/>
	<path class="st1" d="M76.2,91.2c4.1,0,8,0,12.1,0c0,3.3,0,6.6,0,10c-4,0-8,0-12.1,0C76.2,97.9,76.2,94.6,76.2,91.2z"/>
</g>
</svg>
