<?xml version="1.0" encoding="utf-8"?>
<!-- Generator: Adobe Illustrator 19.2.0, SVG Export Plug-In . SVG Version: 6.00 Build 0)  -->
<svg version="1.1" id="Layer_1" xmlns="http://www.w3.org/2000/svg" xmlns:xlink="http://www.w3.org/1999/xlink" x="0px" y="0px"
	 viewBox="0 0 256 256" style="enable-background:new 0 0 256 256;" xml:space="preserve">
<style type="text/css">
	.st0{fill:#BDDBFF;}
	.st1{fill:#FFD400;}
	.st2{fill:#3D9AE2;}
</style>
<g>
	<path class="st0" d="M191.6,46.7l-6.2,6.6l6.2,5.8h-18.7V46.7H191.6z"/>
	<path class="st0" d="M148,37.3l-6.2,6.6l6.2,5.8h-18.7V37.3H148z"/>
	<path class="st0" d="M85.8,46.7l-6.2,6.6l6.2,5.8H67.1V46.7H85.8z"/>
	<path class="st0" d="M185.4,112h18.7v62.2h-18.7V112z"/>
	<path class="st0" d="M160.5,112v74.7h-18.7V112H160.5z"/>
	<path class="st0" d="M116.9,112v74.7H98.2V112H116.9z"/>
	<path class="st0" d="M54.7,112h18.7v62.2H54.7V112z"/>
	<path class="st0" d="M172.9,71.3L133,63.1l-3.7-0.8L67.1,75.1l-28.1,5.8v18.7h180.6V80.9L172.9,71.3z M129.4,90.3
		c-5.2,0-9.4-4.2-9.4-9.4s4.2-9.4,9.4-9.4c0.6,0,1.2,0.1,1.9,0.2c4.7,0.9,8,5.3,7.4,10.1C138.2,86.6,134.2,90.3,129.4,90.3z"/>
</g>
<path class="st1" d="M129.4,68.5c-6.8,0-12.4,5.6-12.4,12.4s5.6,12.4,12.4,12.4c6.8,0,12.4-5.6,12.4-12.4S136.2,68.5,129.4,68.5z
	 M129.4,87.1c-3.5,0-6.2-2.8-6.2-6.2s2.8-6.2,6.2-6.2c3.5,0,6.2,2.8,6.2,6.2C135.6,84.4,132.8,87.1,129.4,87.1z"/>
<path class="st2" d="M209.4,110.9v-9.4h9.4c1.7,0,3.2-1.4,3.2-3.2V79.7c0-1.4-1-2.8-2.4-3.1l-44.2-9.2v-6.5h15.6
	c1.3,0,2.4-0.8,2.9-1.9c0.4-1.1,0.2-2.6-0.8-3.5l-4-3.7l4.1-4.4c0.8-0.9,1.1-2.2,0.6-3.4s-1.6-1.8-2.9-1.8h-18.7
	c-1.7,0-3.2,1.4-3.2,3.2v20.7l-37.3-7.8v-6.8h15.6c1.3,0,2.4-0.8,2.9-1.9c0.4-1.1,0.2-2.6-0.8-3.5l-4-3.7l4.1-4.4
	c0.8-0.9,1.1-2.2,0.6-3.4s-1.6-1.8-2.9-1.8h-18.7c-1.7,0-3.2,1.4-3.2,3.2v22.3L69.3,70v-9.1h15.6c1.3,0,2.4-0.8,2.9-1.9
	c0.5-1.2,0.2-2.6-0.8-3.5l-4-3.7l4.1-4.4c0.8-0.9,1.1-2.2,0.6-3.4s-1.6-1.8-2.9-1.8H66.2c-1.7,0-3.2,1.4-3.2,3.2v25.9l-25.5,5.3
	c-1.4,0.3-2.4,1.5-2.4,3.1v18.8c0,1.7,1.4,3.2,3.2,3.2h9.4v9.4c0,1.7,1.4,3.2,3.2,3.2v56c-1.7,0-3.2,1.4-3.2,3.2v9.4h-3.2
	c-1.7,0-3.2,1.4-3.2,3.2v9.4h-3.2c-1.7,0-3.2,1.4-3.2,3.2v18.7c0,1.7,1.4,3.2,3.2,3.2h180.5c1.7,0,3.2-1.4,3.2-3.2v-18.7
	c0-1.7-1.4-3.2-3.2-3.2h-3.2v-9.4c0-1.7-1.4-3.2-3.2-3.2h-3.2v-9.4c0-1.7-1.4-3.2-3.2-3.2v-56C208,114,209.4,112.6,209.4,110.9z
	 M175,48.7h8.4l-1.3,1.4c-0.6,0.6-0.8,1.4-0.8,2.2c0,0.8,0.4,1.6,1,2.1l0.4,0.4H175L175,48.7L175,48.7z M69.3,48.7h8.4l-1.3,1.4
	c-0.6,0.6-0.8,1.4-0.8,2.2c0,0.8,0.4,1.6,1,2.1l0.4,0.4h-7.7C69.3,54.9,69.3,48.7,69.3,48.7z M203.2,107.7h-18.7v-6.2h18.7V107.7z
	 M181.3,170.1c-1.7,0-3.2,1.4-3.2,3.2v9.4h-15.6v-68.5c1.7,0,3.2-1.4,3.2-3.2v-9.5h12.4v9.4c0,1.7,1.4,3.2,3.2,3.2L181.3,170.1
	L181.3,170.1z M106.2,195l2.4-6.2h39.4l2.4,6.2H106.2z M153,201.2l5,12.4H98.7l5-12.4H153z M75.4,170.1v-56c1.7,0,3.2-1.4,3.2-3.2
	v-9.4H91v9.4c0,1.7,1.4,3.2,3.2,3.2v68.5H78.6v-9.4C78.7,171.4,77.1,170.1,75.4,170.1z M159.5,107.7h-18.7v-6.2h18.7V107.7z
	 M137.7,114v68.5H119V114c1.7,0,3.2-1.4,3.2-3.2v-9.3h12.4v9.4C134.6,112.6,136,114,137.7,114z M116,107.7H97.2v-6.2h18.7v6.2H116z
	 M100.3,114h12.4v68.5h-12.4V114z M144,182.5v-68.5h12.4v68.5H144z M131.4,39.3h8.4l-1.3,1.4c-0.6,0.6-0.8,1.4-0.8,2.2
	c0,0.8,0.4,1.6,1,2.1l0.4,0.4h-7.7L131.4,39.3L131.4,39.3z M41.2,82.3l87.1-18.1l87.1,18.1v13.1H41.2V82.3z M72.3,101.5v6.2H53.7
	v-6.2H72.3z M56.7,114h12.4v56H56.7V114z M53.7,176.3h18.7v6.2H53.7V176.3z M47.4,188.8h54.5l-2.4,6.2h-52L47.4,188.8L47.4,188.8z
	 M41.2,201.2H97l-5,12.4H41.2L41.2,201.2L41.2,201.2z M215.6,213.7h-50.8l-5-12.4h55.8V213.7z M157.3,195l-2.4-6.2h54.5v6.2H157.3z
	 M184.5,182.5v-6.2h18.7v6.2H184.5z M199.9,170.1h-12.4v-56h12.4V170.1z"/>
</svg>
