<?xml version="1.0" encoding="utf-8"?>
<!-- Generator: Adobe Illustrator 19.2.0, SVG Export Plug-In . SVG Version: 6.00 Build 0)  -->
<svg version="1.1" id="Layer_1" xmlns="http://www.w3.org/2000/svg" xmlns:xlink="http://www.w3.org/1999/xlink" x="0px" y="0px"
	 viewBox="0 0 256 256" style="enable-background:new 0 0 256 256;" xml:space="preserve">
<style type="text/css">
	.st0{fill:#BDDBFF;stroke:#3D9AE2;stroke-width:5;stroke-miterlimit:10;}
	.st1{fill:#3D9AE2;stroke:#3D9AE2;stroke-width:5;stroke-miterlimit:10;}
	.st2{fill:#FFD400;}
</style>
<rect x="74.7" y="47.2" class="st0" width="53.8" height="24.7"/>
<rect x="128.5" y="47.2" class="st0" width="53.8" height="24.7"/>
<polygon class="st1" points="128.5,36.5 123.1,47.2 123.8,197.8 139.2,197.8 139.2,36.5 "/>
<rect x="117.8" y="36.5" class="st0" width="10.7" height="161.4"/>
<polygon class="st0" points="196.5,187.1 128.5,187.1 114.2,211.5 208.6,211.5 "/>
<g>
	<polygon class="st0" points="60.5,187.1 48.4,211.5 128.5,211.5 128.5,187.1 	"/>
	<polygon class="st0" points="219.9,208.6 128.5,208.6 117.4,213.9 128.5,219.3 219.9,219.3 	"/>
</g>
<rect x="37.1" y="208.6" class="st0" width="91.4" height="10.7"/>
<polygon class="st0" points="37.1,104.4 51.5,120.5 51.5,104.4 72.1,81.9 92.6,104.4 92.6,120.5 107.1,104.4 72.1,66 "/>
<rect x="37.1" y="104.4" class="st0" width="70" height="70"/>
<polygon class="st2" points="88.3,134 77.4,134 77.4,123.1 66.7,123.1 66.7,134 55.8,134 55.8,144.7 66.7,144.7 66.7,155.6 
	77.4,155.6 77.4,144.7 88.3,144.7 "/>
<g>
	<rect x="66.7" y="36.5" class="st0" width="10.7" height="35.5"/>
	<polygon class="st0" points="219.9,104.4 205.5,120.5 205.5,104.4 184.9,81.9 164.4,104.4 164.4,120.5 149.9,104.4 184.9,66 	"/>
</g>
<rect x="149.9" y="104.4" class="st0" width="70" height="70"/>
<rect x="179.6" y="36.5" class="st0" width="10.7" height="35.5"/>
<rect x="168.7" y="134" class="st2" width="32.5" height="10.7"/>
</svg>
