<?xml version="1.0" encoding="utf-8"?>
<!-- Generator: Adobe Illustrator 19.2.0, SVG Export Plug-In . SVG Version: 6.00 Build 0)  -->
<svg version="1.1" id="Layer_1" xmlns="http://www.w3.org/2000/svg" xmlns:xlink="http://www.w3.org/1999/xlink" x="0px" y="0px"
	 viewBox="0 0 256 256" style="enable-background:new 0 0 256 256;" xml:space="preserve">
<style type="text/css">
	.st0{fill:#1A6FB0;}
	.st1{fill:#9ECBF0;}
	.st2{fill:#FFD400;}
	.st3{fill:#FFFFFF;}
</style>
<g>
	<path class="st0" d="M211.9,32.5c1.9,1,2.2,2.3,2.2,3.9c0,53.9,0,107.5,0,161.4c0,0.5,0,1,0,1.6c-0.3,1.3-1.6,2.1-3.2,2.1
		c-1.9,0-2.9-0.8-3.5-2.3c-0.3-0.8,0-1.6,0-2.3c0-42.2,0-84.6,0-126.8c0-0.8,0-1.6,0-2.6c-2.2,0-4.1,0-6.1,0c-2.6,0-3.8-1.3-3.8-2.9
		s1.6-2.6,3.8-2.6c1.9,0,3.8,0,6.1,0c0-8.1,0-16.1,0-24c-53,0-106,0-158.9,0c0,7.8,0,15.9,0,24c1,0,1.9,0,2.9,0
		c44.4,0,88.7,0,133.1,0c0.6,0,1.6,0,2.2,0c1.9,0.3,3.2,1.3,3.2,2.9s-1.3,2.6-3.5,2.6c-0.6,0-1.6,0-2.2,0c-44.4,0-88.4,0-132.8,0
		c-1,0-1.9,0-3.2,0c0,2.6,0,5.2,0,7.6c0,1.3,0,2.6,0,4.2c0,2.1-1.3,3.1-3.5,3.1c-1.9,0-3.2-1.3-3.2-3.1c0-3.9,0-7.8,0-11.5
		c0-10.4,0-21.1,0-31.5c0-1.8,0.6-3.1,2.2-3.9C99.5,32.5,155.7,32.5,211.9,32.5z"/>
	<path class="st0" d="M43.7,223.1c-1.9-1-2.2-2.3-2.2-3.9c0-41.9,0-83.8,0-126c0-0.3,0-0.8,0-1c0.3-1.6,1.6-2.6,3.5-2.6
		s3.2,1,3.5,2.6c0,0.8,0,1.3,0,2.1c0,40.4,0,80.7,0,120.8c0,0.8,0,1.6,0,2.3c53,0,106,0,159.3,0c0-1.8,0-3.6,0-5.5
		c0-2.1,1.3-3.4,3.5-3.4c2.2,0,3.5,1.3,3.5,3.4c0,2.3,0,4.9,0,7.3c0,1.8-0.6,3.1-2.2,3.9C155.7,223.1,99.5,223.1,43.7,223.1z"/>
	<path class="st0" d="M200.4,107.2c0,8.6,0,17.2,0,25.8c0,4.4-2.2,6.2-7.7,6.2c-21.1,0-42.1,0-63.2,0c-5.7,0-8-1.8-8-6.5
		c0-17.2,0-34.4,0-51.5c0-4.4,2.2-6.2,7.7-6.2c21.1,0,42.4,0,63.5,0c5.4,0,7.7,1.8,7.7,6.2C200.4,90,200.4,98.6,200.4,107.2
		L200.4,107.2z M193.7,80.9c-21.7,0-43.4,0-65.1,0c0,17.7,0,35.4,0,52.9c21.7,0,43.4,0,65.1,0C193.7,116.1,193.7,98.6,193.7,80.9z"
		/>
	<path class="st1" d="M127.9,160.3c21.7,0,43.4,0,65.1,0c3.5,0,5.1,0.8,5.1,2.6s-1.6,2.9-5.4,2.9c-43.4,0-86.8,0-130.2,0
		c-3.5,0-5.4-1-5.4-2.9s1.6-2.6,5.1-2.6C84.2,160.3,106.2,160.3,127.9,160.3z"/>
	<path class="st1" d="M127.6,178.8c-21.4,0-42.8,0-64.2,0c-1,0-1.6,0-2.6,0c-2.2,0-3.5-1.3-3.5-2.9c0-1.6,1.3-2.6,3.5-2.9
		c3.2,0,6.1,0,9.3,0c41.2,0,82,0,123.2,0c1,0,1.6,0,2.6,0.3c1.6,0.3,2.6,1.3,2.6,2.6c0,1.6-1.3,2.3-2.9,2.6c-1.3,0-2.6,0-3.5,0
		C170.4,178.8,149,178.8,127.6,178.8z"/>
	<path class="st1" d="M127.6,191.6c-21.4,0-43.1,0-64.5,0c-1,0-1.6,0-2.6,0c-1.9-0.3-3.5-1.3-3.5-2.6s1.3-2.6,3.2-2.9
		c0.6,0,1.3,0,1.9,0c43.4,0,86.8,0,130.2,0c1,0,1.9,0,2.9,0.3c1.6,0.3,2.6,1.3,2.6,2.6s-1,2.3-2.9,2.6c-0.6,0-1.3,0-1.9,0
		C171.3,191.6,149.6,191.6,127.6,191.6z"/>
	<path class="st1" d="M135.6,147.3c19.2,0,38,0,57.1,0c0.3,0,1,0,1.3,0c2.6,0,4.1,1,4.1,2.6c0,1.8-1.6,2.9-4.1,2.9
		c-7,0-13.7,0-20.7,0c-31.6,0-63.2,0-95.1,0c-1,0-2.2,0-3.2-0.3c-1-0.5-1.9-1.8-2.2-2.6c-0.3-1.3,1-2.3,2.9-2.6c1,0,1.6,0,2.6,0
		C97.3,147.3,116.4,147.3,135.6,147.3z"/>
	<path class="st1" d="M91.9,198.6c9.6,0,19.2,0,28.7,0c0.6,0,1.6,0,2.2,0c1.9,0.3,3.2,1,3.2,2.6c0,1.6-1,2.3-2.9,2.9
		c-0.6,0-1.6,0.3-2.2,0.3c-19.5,0-39.3,0-58.7,0c-1,0-1.9,0-2.6-0.3c-1-0.8-2.2-1.8-1.9-2.6c0-1,1.3-1.8,2.6-2.6
		c0.6-0.3,1.6-0.3,2.6-0.3C72.1,198.6,82,198.6,91.9,198.6L91.9,198.6z"/>
	<path class="st1" d="M85.8,116.1c-7.3,0-14.7,0-22,0c-1,0-1.9,0.3-2.6-0.3c-1-0.5-2.6-1.6-2.6-2.3c0-0.8,1.3-2.1,2.2-2.6
		c0.6-0.5,1.9-0.3,2.9-0.3c15,0,29.7,0,44.7,0c0.6,0,1.6,0,2.2,0.3c1.9,0.3,2.6,1.3,2.6,2.9c0,1.3-1.3,2.3-2.9,2.3
		c-0.6,0-1.6,0-2.2,0C100.8,116.1,93.5,116.1,85.8,116.1L85.8,116.1z"/>
	<path class="st1" d="M86.1,127c-7.3,0-15,0-22.3,0c-0.6,0-1.6,0-2.2,0c-1.9-0.3-2.9-1-2.9-2.3c0-1.6,0.6-2.6,2.6-2.9
		c0.6,0,1.3-0.3,1.9-0.3c15,0,30.3,0,45.3,0c1,0,1.6,0,2.6,0.3c1.6,0.5,2.2,1.3,2.2,2.6s-1,2.1-2.6,2.6c-1,0.3-1.6,0-2.6,0
		C100.8,127,93.5,127,86.1,127z"/>
	<path class="st2" d="M92.8,58.3c-5.7,0-10.2-3.9-9.9-8.6c0.3-4.7,4.8-8.1,10.5-8.1c5.7,0,10.2,3.9,9.9,8.6
		C103,54.9,98.2,58.5,92.8,58.3z M93.1,47.3c-1.9,0-3.2,1.3-3.5,2.6c0,1.6,1.3,2.6,3.2,2.9c1.9,0,3.5-1.3,3.5-2.9
		C96.3,48.4,94.7,47.3,93.1,47.3z"/>
	<path class="st2" d="M65.7,58.3c-5.7,0-10.2-3.6-10.2-8.1c0-4.7,4.5-8.3,10.2-8.6c5.7,0,10.2,3.6,10.2,8.3
		C75.9,54.6,71.4,58.3,65.7,58.3z M65.7,52.8c1.9,0,3.2-1.3,3.2-2.6c0-1.6-1.6-2.9-3.5-2.6c-1.9,0-3.2,1.3-3.2,2.9
		C62.5,51.5,63.8,52.8,65.7,52.8z"/>
	<path class="st2" d="M120.3,58.3c-5.7,0-10.2-3.9-10.2-8.6c0-4.4,4.8-8.3,10.2-8.1c5.7,0,10.2,3.9,10.2,8.6
		C130.5,54.6,126,58.3,120.3,58.3z M120.3,52.8c1.9,0,3.5-1,3.5-2.6s-1.3-2.9-3.2-2.9c-1.9,0-3.5,1-3.5,2.6
		C117.1,51.5,118.3,52.5,120.3,52.8z"/>
	<path class="st3" d="M93.1,47.3c1.9,0,3.2,1.3,3.5,2.6c0,1.6-1.6,2.9-3.5,2.9c-1.9,0-3.2-1.3-3.2-2.9
		C89.6,48.4,91.2,47.3,93.1,47.3z"/>
	<path class="st3" d="M65.7,52.8c-1.9,0-3.5-1-3.5-2.6s1.3-2.6,3.2-2.9c1.9,0,3.5,1,3.5,2.6C69.2,51.5,67.6,52.8,65.7,52.8z"/>
	<path class="st3" d="M120.3,52.8c-1.9,0-3.2-1.3-3.2-2.9c0-1.6,1.6-2.9,3.5-2.6c1.9,0,3.2,1.3,3.2,2.9
		C123.8,51.5,122.2,52.8,120.3,52.8z"/>
	<path class="st1" d="M85.8,89.3c-7.3,0-14.7,0-22,0c-1,0-1.9,0.3-2.6-0.3c-1-0.5-2.6-1.6-2.6-2.3c0-0.8,1.3-2.1,2.2-2.6
		c0.6-0.5,1.9-0.3,2.9-0.3c15,0,29.7,0,44.7,0c0.6,0,1.6,0,2.2,0.3c1.9,0.3,2.6,1.3,2.6,2.9c0,1.3-1.3,2.3-2.9,2.3
		c-0.6,0-1.6,0-2.2,0C100.8,89.3,93.1,89.3,85.8,89.3L85.8,89.3z"/>
</g>
</svg>
