<?xml version="1.0" encoding="utf-8"?>
<!-- Generator: Adobe Illustrator 19.2.0, SVG Export Plug-In . SVG Version: 6.00 Build 0)  -->
<svg version="1.1" id="Layer_1" xmlns="http://www.w3.org/2000/svg" xmlns:xlink="http://www.w3.org/1999/xlink" x="0px" y="0px"
	 viewBox="0 0 256 256" style="enable-background:new 0 0 256 256;" xml:space="preserve">
<style type="text/css">
	.st0{fill:#FFFFFF;stroke:#3D9AE2;stroke-width:5;stroke-miterlimit:10;}
	.st1{fill:#FFD400;}
	.st2{fill:#1A6FB0;}
</style>
<path class="st0" d="M205.4,221.1H54.3c-3.7,0-6.8-2.8-6.8-6.2V41.1c0-3.4,3.1-6.2,6.8-6.2h151.2c3.7,0,6.8,2.8,6.8,6.2v173.8
	C212.2,218.3,209.2,221.1,205.4,221.1z"/>
<path class="st1" d="M130.5,83.3c5.1,0,9.2-3.7,9.2-8.3v-5.6c0-4.6-4.1-8.3-9.2-8.3c-5.1,0-9.2,3.7-9.2,8.3V75
	C121.3,79.6,125.4,83.3,130.5,83.3z"/>
<path class="st1" d="M149.3,102.8c0-6.2-5.4-11.1-12.3-11.1h-12.3c-6.8,0-12.3,4.9-12.3,11.1v11.1h36.8L149.3,102.8L149.3,102.8z"/>
<path class="st2" d="M65.5,134.9h52.4v6.5H65.5V134.9z"/>
<path class="st2" d="M104.3,155.5h52.4v6.5h-52.4V155.5z"/>
<path class="st2" d="M123.7,134.9h74.6v6.5h-74.6V134.9z"/>
<path class="st2" d="M65.1,155.5H92v6.5H65.1V155.5z"/>
<path class="st2" d="M165.9,155.5h33.7v6.5h-33.7V155.5z"/>
<path class="st2" d="M65.5,175.9h52.4v6.5H65.5V175.9z"/>
<path class="st2" d="M123,175.9h52.4v6.5H123V175.9z"/>
<path class="st2" d="M156.7,192.9h37.1v6.5h-37.1V192.9z"/>
<path class="st2" d="M65.5,192.9h52.4v6.5H65.5V192.9z"/>
<path class="st2" d="M126.8,192.9H153v6.5h-26.2V192.9z"/>
</svg>
