<svg id="Layer_1" data-name="Layer 1" xmlns="http://www.w3.org/2000/svg" viewBox="0 0 29.96 27.04"><defs><style>.cls-1{fill:#0071bc;}.cls-2{fill:#00a99d;}</style></defs><title>Task date icon</title><path class="cls-1" d="M5.69,2.68A.73.73,0,0,0,5,3.42V6.71H1.92A.87.87,0,0,0,1,7.58v3.51h27V7.58a.87.87,0,0,0-.87-.87H24V3.42a.73.73,0,0,0-.71-.74h-.09a.73.73,0,0,0-.65.74V6.71h-7.3V3.42a.73.73,0,0,0-.71-.75h-.11a.73.73,0,0,0-.65.74V6.71H6.52V3.42a.73.73,0,0,0-.71-.74H5.69Z" transform="translate(-1.04 -2.68)"/><path class="cls-1" d="M1,12.55v13a.87.87,0,0,0,.87.87h15.9a.87.87,0,0,0,.86-1,7.05,7.05,0,0,1,0-2.12,6.94,6.94,0,0,1,7.83-5.91l.55.1a.87.87,0,0,0,1.06-.85V12.55Z" transform="translate(-1.04 -2.68)"/><path class="cls-2" d="M26,18.78a5.48,5.48,0,1,0,5,5A5.48,5.48,0,0,0,26,18.78Zm-.57,1.43a.73.73,0,0,1,.81.74V24.3l1.61,1.61a.73.73,0,0,1-1,1h0L25,25.11a.73.73,0,0,1-.22-.52V20.95a.73.73,0,0,1,.65-.74Z" transform="translate(-1.04 -2.68)"/></svg>