<svg id="Layer_1" data-name="Layer 1" xmlns="http://www.w3.org/2000/svg" viewBox="0 0 58.1 50.41"><defs><style>.cls-1{fill:#00a99d;}.cls-2{fill:#0071bc;}.cls-3{fill:#fff;}</style></defs><title>Chat icon</title><path id="b" class="cls-1" d="M25.34,46.93l.62,1Zm-9.84,6.76-.62-1ZM3.45,24.49V41.7H5.67V24.49ZM9,47.44h4.45V45.14H9Zm4.45,0v5.74h2.23V47.44Zm2.66,7.2L26,47.88,24.73,46l-9.84,6.76Zm11.26-7.2H44.64V45.14H27.38ZM50.2,41.7V24.49H48V41.7ZM44.64,18.75H9V21H44.64Zm-39,5.74A3.39,3.39,0,0,1,9,21V18.75a5.65,5.65,0,0,0-5.57,5.74ZM3.45,41.7A5.65,5.65,0,0,0,9,47.44V45.14A3.39,3.39,0,0,1,5.67,41.7Zm10,5.74h2.23a2.26,2.26,0,0,0-2.23-2.29Zm0,5.74a1.81,1.81,0,0,0,.86,1.64,1.7,1.7,0,0,0,1.8-.17l-1.24-1.91s.07,0,.08,0a2.75,2.75,0,0,1,.4.08,2.86,2.86,0,0,1,.29.3s0,.13,0,.08ZM26,47.88a3.19,3.19,0,0,1,1.42-.44V45.14a5.29,5.29,0,0,0-2.66.83Zm18.68-.44A5.65,5.65,0,0,0,50.2,41.7H48a3.39,3.39,0,0,1-3.34,3.44ZM50.2,24.49a5.65,5.65,0,0,0-5.57-5.74V21A3.39,3.39,0,0,1,48,24.49Z" transform="translate(-3.45 -4.59)"/><path id="b-2" data-name="b" class="cls-2" d="M39,12.66l-.64-1ZM49.12,5.9l.64,1ZM61.55,35.1V17.89H59.26V35.1ZM55.82,12.15H51.23v2.29h4.59Zm-4.59,0V6.42H48.93v5.74Zm-2.74-7.2L38.35,11.71l1.27,1.91L49.76,6.86Zm-11.6,7.2H19.1v2.29H36.88ZM13.36,17.89V35.1h2.29V17.89ZM19.1,40.84H55.82V38.54H19.1ZM59.26,35.1a3.44,3.44,0,0,1-3.44,3.44v2.29a5.74,5.74,0,0,0,5.74-5.74Zm2.29-17.21a5.74,5.74,0,0,0-5.74-5.74v2.29a3.44,3.44,0,0,1,3.44,3.44ZM51.23,12.15H48.93a2.29,2.29,0,0,0,2.29,2.29Zm0-5.74a1.79,1.79,0,0,0-.89-1.64,1.79,1.79,0,0,0-1.85.17l1.27,1.91s-.07,0-.09,0a2.91,2.91,0,0,1-.42-.08,2.9,2.9,0,0,1-.3-.3s0-.13,0-.08ZM38.35,11.71a3.36,3.36,0,0,1-1.47.44v2.29a5.57,5.57,0,0,0,2.74-.83Zm-19.25.44a5.74,5.74,0,0,0-5.74,5.74h2.29a3.44,3.44,0,0,1,3.44-3.44ZM13.36,35.1a5.74,5.74,0,0,0,5.74,5.74V38.54a3.44,3.44,0,0,1-3.44-3.44Z" transform="translate(-3.45 -4.59)"/><path class="cls-2" d="M11.35,14.16h31a4.42,4.42,0,0,1,4.42,4.42V35.41a0,0,0,0,1,0,0H14.46a3.11,3.11,0,0,1-3.11-3.11V14.16A0,0,0,0,1,11.35,14.16Z"/><circle class="cls-3" cx="28.76" cy="25.49" r="2.83"/><circle class="cls-3" cx="38.67" cy="25.49" r="2.83"/><circle class="cls-3" cx="18.85" cy="25.49" r="2.83"/></svg>