<?xml version="1.0" encoding="utf-8"?>
<!-- Generator: Adobe Illustrator 21.0.0, SVG Export Plug-In . SVG Version: 6.00 Build 0)  -->
<svg version="1.1" id="Layer_1" xmlns="http://www.w3.org/2000/svg" xmlns:xlink="http://www.w3.org/1999/xlink" x="0px" y="0px"
	 viewBox="0 0 100 100" style="enable-background:new 0 0 100 100;" xml:space="preserve">
<style type="text/css">
	.st0{fill:#2678E8;}
</style>
<title></title>
<path class="st0" d="M81,10.5H19c-5.5,0-10,4.5-10,10v42c0,5.5,4.5,10,10,10h8v17l25-17h29c5.5,0,10-4.5,10-10v-42
	C91,15,86.5,10.5,81,10.5z M30.8,30.5h20.4c1.7,0,3,1.3,3,3s-1.3,3-3,3H30.8c-1.6,0-3-1.3-3-3C27.8,31.9,29.1,30.5,30.8,30.5z
	 M67.2,50.5H30.8c-1.6,0-3-1.3-3-3c0-1.6,1.3-3,3-3h36.4c1.7,0,3,1.3,3,3S68.9,50.5,67.2,50.5z"/>
</svg>
