<svg id="Layer_1" data-name="Layer 1" xmlns="http://www.w3.org/2000/svg" viewBox="0 0 40.83 47.87"><defs><style>.cls-1{fill:#f6a623;}</style></defs><title>Delete icon</title><path class="cls-1" d="M21.4,1.07h8.33a4.58,4.58,0,0,0,.48.23,6.7,6.7,0,0,1,4.63,5.83c.15,1.12.42,1.34,1.56,1.36,1.62,0,3.25,0,4.87,0,2.09,0,2.52.37,2.77,2.46.08.66.31,1,1,1.11.47.05.69.39.78.84.47,2.26,0,2.93-2.26,3.17h-.18c-.91,0-1.3.41-1.25,1.29,0,.32,0,.65,0,1q0,12.36,0,24.71a5.76,5.76,0,0,1-2,4.62c-.61.53-1.41.74-2,1.24h-25c-.29-.15-.57-.31-.86-.45A5.31,5.31,0,0,1,9,43.57C9,43,9,42.5,9,42q0-8.11,0-16.21c0-2.69,0-5.37,0-8.06,0-1.34-.16-1.5-1.5-1.67C7.13,16,6.77,16,6.42,16c-.64,0-1.2-.24-1.12-.95.11-1-.67-2.3.63-2.85a1.52,1.52,0,0,0,1.15-1.5c.11-1.61.7-2.14,2.31-2.16,1.83,0,3.66,0,5.49,0,1,0,1.28-.28,1.38-1.32a6.44,6.44,0,0,1,4.25-5.71ZM12.87,30.21h0q0,6.2,0,12.4c0,2.07.37,2.44,2.42,2.44H35.77c.24,0,.47,0,.71,0,1-.07,1.45-.45,1.59-1.44a14.35,14.35,0,0,0,.17-1.94q0-12,0-24c0-1.34-.2-1.54-1.55-1.54H14.3c-1.29,0-1.42.14-1.43,1.42Q12.87,23.87,12.87,30.21ZM25.57,8.49h0c1.36,0,2.72,0,4.07,0,.61,0,1.13-.17,1.13-.94a2.46,2.46,0,0,0-2.1-2.38q-3.14-.09-6.28,0a2.15,2.15,0,0,0-2,1.76c-.24,1,.1,1.53,1.18,1.55C22.91,8.52,24.24,8.49,25.57,8.49Z" transform="translate(-5.17 -1.07)"/><path class="cls-1" d="M23.53,30.58q0-4.7,0-9.4c0-1.56.29-1.84,1.88-1.85H26c1.22,0,1.55.34,1.55,1.54q0,9.62,0,19.23c0,1.3-.28,1.53-1.58,1.55-2.46,0-2.45,0-2.45-2.39q0-4.34,0-8.69Z" transform="translate(-5.17 -1.07)"/><path class="cls-1" d="M16.26,30.57q0-4.78,0-9.56c0-1.43.23-1.65,1.63-1.68h.62c1.4,0,1.64.27,1.64,1.68q0,9.43,0,18.85c0,1.54-.27,1.8-1.81,1.8H18c-1.59,0-1.72-.13-1.72-1.71Q16.26,35.27,16.26,30.57Z" transform="translate(-5.17 -1.07)"/><path class="cls-1" d="M34.71,30.59c0,3.19,0,6.38,0,9.57,0,1.26-.25,1.49-1.51,1.51-2.3,0-2.37,0-2.37-2.36q0-8.77,0-17.54c0-.41,0-.83,0-1.24A1.11,1.11,0,0,1,32,19.36h.18c2.31-.15,2.48,0,2.49,2.29q0,4.47,0,8.95Z" transform="translate(-5.17 -1.07)"/></svg>