<svg id="Layer_1" data-name="Layer 1" xmlns="http://www.w3.org/2000/svg" viewBox="0 0 59 60.9"><defs><style>.cls-1{fill:#00a99d;}.cls-2{fill:#0071bc;}</style></defs><title>friends icon</title><path class="cls-1" d="M50.58,45.32h-1.9v-1.9a1.9,1.9,0,1,0-3.81,0v1.9H43a1.9,1.9,0,0,0,0,3.81h1.9V51a1.9,1.9,0,1,0,3.81,0v-1.9h1.9a1.9,1.9,0,0,0,0-3.81Z" transform="translate(-3 -1.55)"/><path class="cls-2" d="M46.77,32a15.19,15.19,0,0,0-11.64,5.42l-1.27-.48a3.59,3.59,0,0,1-2.32-3.35V31.9a17.48,17.48,0,0,0,5.3-7.51,3,3,0,0,0,2.88-2.25l.76-3a1.88,1.88,0,0,0-1.82-2.33c.07-.77.12-1.54.12-2.28,0-8.34-4.6-12.94-12.94-12.94S12.9,6.15,12.9,14.49c0,.74,0,1.51.12,2.28a1.88,1.88,0,0,0-1.82,2.33l.76,3a3,3,0,0,0,2.88,2.25,17.5,17.5,0,0,0,5.3,7.51v1.68a3.59,3.59,0,0,1-2.32,3.35L8.9,40.3A9.12,9.12,0,0,0,3,48.84v6a3.81,3.81,0,0,0,3.81,3.81H36.73A15.22,15.22,0,1,0,46.77,32Zm0,24.74a9.52,9.52,0,1,1,9.52-9.52A9.53,9.53,0,0,1,46.77,56.74Z" transform="translate(-3 -1.55)"/></svg>