<svg xmlns="http://www.w3.org/2000/svg" viewBox="0 0 291.32 291.32"><path d="M145.66 0c80.113 0 145.66 65.547 145.66 145.66s-65.547 145.66-145.66 145.66S0 225.772 0 145.66 65.547 0 145.66 0z" fill="#DD4B39"/><g fill="#FFF"><path d="M219.4 121.08v16.386h16.386v16.387H219.4v16.387h-16.387v-16.387h-16.387v-16.387h16.387V121.08M71.92 186.626c-21.85-21.85-21.85-60.085.91-81.933 16.386-16.387 40.055-20.028 60.994-11.835l8.193 4.552 9.104 6.373-14.565 14.566-5.462-3.642c-12.745-8.193-30.953-6.373-42.787 5.462-13.656 13.656-14.566 38.236 0 52.802 13.656 14.566 38.236 14.566 50.98 0 3.642-3.64 7.284-9.104 8.194-14.566v-1.82h-32.773v-18.208h51.89l.91 4.552v12.745c-.91 11.835-5.46 23.67-13.655 31.863-21.848 20.937-60.084 20.937-81.933-.912z"/></g></svg>