<?xml version="1.0" encoding="iso-8859-1"?>
<!-- Generator: Adobe Illustrator 19.0.0, SVG Export Plug-In . SVG Version: 6.00 Build 0)  -->
<svg version="1.1" id="Layer_1" xmlns="http://www.w3.org/2000/svg" xmlns:xlink="http://www.w3.org/1999/xlink" x="0px" y="0px"
	 viewBox="0 0 469.333 469.333" style="enable-background:new 0 0 469.333 469.333;" xml:space="preserve">
<path style="fill:#FFFFFF;" d="M373.333,458.667H96V96c0-11.787,9.547-21.333,21.333-21.333H352
	c11.787,0,21.333,9.547,21.333,21.333V458.667z"/>
<g>
	<rect x="234.667" y="320" style="fill:#3AADD9;" width="85.333" height="138.667"/>
	<rect x="149.333" y="320" style="fill:#3AADD9;" width="85.333" height="138.667"/>
</g>
<path style="fill:#FFFFFF;" d="M10.667,458.667H96v-320H32c-11.787,0-21.333,9.547-21.333,21.333V458.667z"/>
<g>
	<rect x="138.667" y="202.667" style="fill:#B0DEF0;" width="64" height="74.667"/>
	<rect x="202.667" y="202.667" style="fill:#B0DEF0;" width="64" height="74.667"/>
	<rect x="266.667" y="202.667" style="fill:#B0DEF0;" width="64" height="74.667"/>
</g>
<rect x="10.667" y="394.667" style="fill:#3AADD9;" width="85.333" height="64"/>
<path style="fill:#FFFFFF;" d="M373.333,458.667h85.333V160c0-11.787-9.547-21.333-21.333-21.333h-64V458.667z"/>
<path d="M320,309.333H149.333c-5.899,0-10.667,4.779-10.667,10.667v138.667c0,5.888,4.768,10.667,10.667,10.667H320
	c5.899,0,10.667-4.779,10.667-10.667V320C330.667,314.112,325.899,309.333,320,309.333z M160,330.667h64V448h-64V330.667z
	 M309.333,448h-64V330.667h64V448z"/>
<path d="M330.667,192h-192c-5.899,0-10.667,4.779-10.667,10.667v74.667c0,5.888,4.768,10.667,10.667,10.667h192
	c5.899,0,10.667-4.779,10.667-10.667v-74.667C341.333,196.779,336.565,192,330.667,192z M149.333,213.333H192v53.333h-42.667
	V213.333z M213.333,213.333H256v53.333h-42.667V213.333z M320,266.667h-42.667v-53.333H320V266.667z"/>
<circle cx="53.333" cy="181.333" r="10.667"/>
<circle cx="53.333" cy="224" r="10.667"/>
<circle cx="53.333" cy="266.667" r="10.667"/>
<circle cx="53.333" cy="309.333" r="10.667"/>
<circle cx="53.333" cy="352" r="10.667"/>
<circle cx="416" cy="181.333" r="10.667"/>
<circle cx="416" cy="224" r="10.667"/>
<circle cx="416" cy="266.667" r="10.667"/>
<circle cx="416" cy="309.333" r="10.667"/>
<circle cx="416" cy="352" r="10.667"/>
<rect x="373.333" y="394.667" style="fill:#3AADD9;" width="85.333" height="64"/>
<path d="M437.333,128H384V96c0-17.643-14.357-32-32-32H117.333c-17.643,0-32,14.357-32,32v32H32c-17.643,0-32,14.357-32,32v298.667
	c0,5.888,4.768,10.667,10.667,10.667h448c5.899,0,10.667-4.779,10.667-10.667V160C469.333,142.357,454.976,128,437.333,128z
	 M21.333,160c0-5.877,4.779-10.667,10.667-10.667h53.333V384h-64V160z M21.333,405.333h64V448h-64V405.333z M106.667,394.667v-256
	V96c0-5.877,4.779-10.667,10.667-10.667H352c5.888,0,10.667,4.789,10.667,10.667v42.667v256V448h-256V394.667z M448,448h-64v-42.667
	h64V448z M448,384h-64V149.333h53.333c5.888,0,10.667,4.789,10.667,10.667V384z"/>
<g>
	<circle style="fill:#FFFFFF;" cx="234.667" cy="85.333" r="74.667"/>
	<circle style="fill:#FFFFFF;" cx="234.667" cy="85.333" r="74.667"/>
</g>
<path d="M234.667,170.667c-47.051,0-85.333-38.283-85.333-85.333S187.616,0,234.667,0S320,38.283,320,85.333
	S281.717,170.667,234.667,170.667z M234.667,21.333c-35.296,0-64,28.704-64,64s28.704,64,64,64s64-28.704,64-64
	S269.963,21.333,234.667,21.333z"/>
<path d="M213.333,117.333c-5.899,0-10.667-4.779-10.667-10.667V64c0-5.888,4.768-10.667,10.667-10.667
	C219.232,53.333,224,58.112,224,64v42.667C224,112.555,219.232,117.333,213.333,117.333z"/>
<path d="M256,117.333c-5.899,0-10.667-4.779-10.667-10.667V64c0-5.888,4.768-10.667,10.667-10.667
	c5.899,0,10.667,4.779,10.667,10.667v42.667C266.667,112.555,261.899,117.333,256,117.333z"/>
<path d="M256,96h-42.667c-5.899,0-10.667-4.779-10.667-10.667s4.768-10.667,10.667-10.667H256c5.899,0,10.667,4.779,10.667,10.667
	S261.899,96,256,96z"/>
<g>
</g>
<g>
</g>
<g>
</g>
<g>
</g>
<g>
</g>
<g>
</g>
<g>
</g>
<g>
</g>
<g>
</g>
<g>
</g>
<g>
</g>
<g>
</g>
<g>
</g>
<g>
</g>
<g>
</g>
</svg>
