<svg id="Layer_1" data-name="Layer 1" xmlns="http://www.w3.org/2000/svg" viewBox="0 0 27.5 30.37"><defs><style>.cls-1{fill:#00a99d;}.cls-2{fill:#0071bc;}</style></defs><title>Hourglass</title><path class="cls-1" d="M14.51,13.78h3.41c2.26-.73,3.62-4.26,3.62-7.26H10.93C10.93,9.51,12.27,13,14.51,13.78Z" transform="translate(-2.5 -1.01)"/><path class="cls-2" d="M26.11,28V26.57C25.67,22,23.77,18.24,21,16.2c2.68-2.09,4.62-5.89,5-10.42V4.42h3.23A.67.67,0,0,0,30,3.75V1.68A.67.67,0,0,0,29.28,1H3.17a.67.67,0,0,0-.67.67h0V3.75a.67.67,0,0,0,.67.67H6.39V5.54c.39,4.62,2.29,8.52,5.06,10.61-2.77,2.09-4.67,6-5.06,10.61V28H3.17a.67.67,0,0,0-.67.67h0v2.07a.67.67,0,0,0,.66.67H29.33a.67.67,0,0,0,.67-.67V28.65a.67.67,0,0,0-.67-.67ZM8.8,27.44v0c0-4.15,1.86-9.07,5-10.14v-2c-3.12-1.07-5-6-5-10.14v0H23.65a.18.18,0,0,0,0,0c0,4.17-1.86,9.06-5,10.14v2c3.12,1.08,5,6,5,10.14a.18.18,0,0,0,0,0Z" transform="translate(-2.5 -1.01)"/></svg>