<svg id="Layer_1" data-name="Layer 1" xmlns="http://www.w3.org/2000/svg" viewBox="0 0 49.49 36.1"><defs><style>.cls-1{fill:#999;}.cls-2{fill:#00bcd4;}.cls-3{fill:#666;}</style></defs><title>Investigator svg icon</title><path class="cls-1" d="M46.17,9a5.8,5.8,0,0,0-1.25-.42,6.81,6.81,0,0,0-1.2-.13c-2.93,0-6,2.59-7.68,6.46a12.15,12.15,0,0,0-1,6.62A5.82,5.82,0,0,0,37.86,26l-1.54,3.41a3.39,3.39,0,0,0-.93.42l-5.9,3.91L21,20.93a6.76,6.76,0,0,0-7.22-2.71C6.6,20.42,1.27,33.87.51,41.82H21.28l.4-5.31-6.32-9.64a.6.6,0,1,1,1-.66L25.82,40.5a3.4,3.4,0,0,0,4.59.78l8.75-5.79a3.4,3.4,0,0,0-.67-6l1.18-2.63a5.36,5.36,0,0,0,1.65.26,6.33,6.33,0,0,0,3.55-1.18A12.37,12.37,0,0,0,49,20.56C51.1,15.67,49.77,10.79,46.17,9ZM46,19.19c-1.36,3.14-3.92,5.42-6.1,5.42a2.78,2.78,0,0,1-1.1-.22,3.86,3.86,0,0,1-2-3.15,10.44,10.44,0,0,1,.86-5.66c1.36-3.14,3.92-5.42,6.11-5.42a2.77,2.77,0,0,1,1.1.22C47.08,11.36,47.61,15.4,46,19.19Z" transform="translate(-0.51 -5.74)"/><path class="cls-2" d="M21.94,19.21A7.24,7.24,0,1,0,19.4,9.3,7.24,7.24,0,0,0,21.94,19.21Z" transform="translate(-0.51 -5.74)"/><path class="cls-3" d="M41.69,14.14a1.91,1.91,0,0,1,1.77-.71,1.29,1.29,0,0,1,.73.68.54.54,0,0,0,.95-.5,2.36,2.36,0,0,0-1.35-1.2,2.87,2.87,0,0,0-2.84,1,8.36,8.36,0,0,0-2,3.43,9.47,9.47,0,0,0-.45,2.56.54.54,0,0,0,.52.55h0a.54.54,0,0,0,.54-.52,8.33,8.33,0,0,1,.4-2.26A7.27,7.27,0,0,1,41.69,14.14Z" transform="translate(-0.51 -5.74)"/></svg>