<?xml version="1.0" encoding="utf-8"?>
<!-- Generator: Adobe Illustrator 21.0.0, SVG Export Plug-In . SVG Version: 6.00 Build 0)  -->
<svg version="1.1" id="Layer_1" xmlns="http://www.w3.org/2000/svg" xmlns:xlink="http://www.w3.org/1999/xlink" x="0px" y="0px"
	 viewBox="0 0 250 250" style="enable-background:new 0 0 250 250;" xml:space="preserve">
<style type="text/css">
	.st0{fill:#4374B9;}
</style>
<g>
	<path id="XMLID_5_" class="st0" d="M36.5,170.6V68.1H212v102.5h11.8V66c0-5.4-4.4-9.8-9.8-9.8H34.5c-5.4,0-9.8,4.4-9.8,9.8v104.6
		H36.5z"/>
	<path class="st0" d="M14.5,176.5v9.7c0,6.1,4.9,10.9,10.9,10.9h197.6c6.1,0,10.9-4.9,10.9-10.9v-9.7H14.5z M43.8,191.1
		c-2.4,0-4.3-1.9-4.3-4.3c0-2.4,1.9-4.3,4.3-4.3c2.4,0,4.3,1.9,4.3,4.3C48.1,189.2,46.1,191.1,43.8,191.1z M55.4,191.1
		c-2.4,0-4.3-1.9-4.3-4.3c0-2.4,1.9-4.3,4.3-4.3c2.4,0,4.3,1.9,4.3,4.3C59.7,189.2,57.8,191.1,55.4,191.1z M67.1,191.1
		c-2.4,0-4.3-1.9-4.3-4.3c0-2.4,1.9-4.3,4.3-4.3c2.4,0,4.3,1.9,4.3,4.3C71.4,189.2,69.4,191.1,67.1,191.1z"/>
</g>
<rect x="46.4" y="75.9" class="st0" width="155.1" height="93.6"/>
</svg>
