<svg width="17" height="14" viewBox="0 0 17 14" xmlns="http://www.w3.org/2000/svg" xmlns:xlink="http://www.w3.org/1999/xlink"><title>B358457F-1AE3-4370-BE0B-0741562560A1</title><defs><path id="a" d="M.003.026v13.646h16.995V.026z"/></defs><g fill="none" fill-rule="evenodd"><g transform="translate(0 .044)"><mask id="b" fill="#fff"><use xlink:href="#a"/></mask><path d="M11.314 3.976l-5.63-.038a.71.71 0 0 0 0 1.42l2.123.013-.035 7.591a.71.71 0 0 0 1.42 0l.035-7.58 2.09.014c.412 0 .71-.334.71-.71a.713.713 0 0 0-.713-.71zM1.344.026C.6.026.002.624.002 1.37c-.04.745.597 1.377 1.342 1.377a1.36 1.36 0 0 0 1.342-1.342C2.722.659 2.09.026 1.344.026zM15.654.174c-.745 0-1.343.597-1.343 1.342-.038.745.598 1.378 1.343 1.378s1.342-.597 1.342-1.343C17.035.81 16.4.174 15.654.174z" fill="#9FB3BC" mask="url(#b)"/></g><path d="M4.739 13.793a.721.721 0 0 1-.72-.72V8.785H.953a.721.721 0 0 1-.72-.72V4.568a.721.721 0 0 1 1.44 0v2.777H4.74c.397 0 .72.323.72.72v5.008c0 .397-.323.72-.72.72zM11.943 13.793c.397 0 .72-.323.72-.72V8.785h3.065c.397 0 .72-.323.72-.72V4.568a.721.721 0 0 0-1.44 0v2.777h-3.065a.721.721 0 0 0-.72.72v5.008c0 .397.323.72.72.72z" fill="#9FB3BC"/></g></svg>