<svg id="Layer_1" data-name="Layer 1" xmlns="http://www.w3.org/2000/svg" viewBox="0 0 59.29 50.76"><defs><style>.cls-1{fill:#0071bc;}.cls-2{fill:#00a99d;}</style></defs><title>notification icon</title><path class="cls-1" d="M35.36,16.64c-.8,1.36.39,2.09,1.27,3.05A12.81,12.81,0,0,1,39.7,32.9C38.6,36.41,37.24,39.84,36,43.3c-1.33,3.65-.7,5.74,2.53,7.91.81.54.22,1,.09,1.54-.19.75-.71.4-1.14.25l-19.2-7Q11,43.38,3.76,40.72c-.46-.17-1.33-.08-1-1.07.25-.71.41-1.18,1.45-1A5.53,5.53,0,0,0,10.6,34.9c1.24-3.34,2.43-6.7,3.66-10,2.12-5.76,6.26-8.88,12.39-9.28a1.56,1.56,0,0,0,1.54-1,3.72,3.72,0,0,1,4.31-1.94A3.85,3.85,0,0,1,35.36,16.64Z" transform="translate(-2.71 -4.98)"/><path class="cls-2" d="M39.05,46c.07-.23.16-.61.29-1,1.16-3.2,2.34-6.39,3.49-9.6,2.34-6.55,1.35-12.52-3.14-17.88-.31-.37-.74-.76-.44-1.24s.8-.09,1.17,0a13.07,13.07,0,0,1,8.22,8c1.29,3.41,2.51,6.84,3.75,10.26,1.13,3.13,3.34,4.54,6.62,4,1-.14,1,.43,1.29,1,.35.79-.31.86-.75,1Q50.19,44.1,40.81,47.5C39.83,47.86,39.07,47.24,39.05,46Z" transform="translate(-2.71 -4.98)"/><path class="cls-1" d="M62,9.7a4.76,4.76,0,0,1-9.52.06A4.76,4.76,0,0,1,62,9.7Z" transform="translate(-2.71 -4.98)"/><path class="cls-1" d="M14.5,49.31c0-.24,0-.48,0-.71.07-.86.3-1.29,1.33-.88,2.91,1.13,5.85,2.19,8.81,3.2,1,.33.91.72.46,1.44a5.78,5.78,0,0,1-6.6,2.5A5.65,5.65,0,0,1,14.5,49.31Z" transform="translate(-2.71 -4.98)"/><path class="cls-2" d="M42.18,55.27l1.18-4.73a.37.37,0,0,1,.36-.28H48.6a.37.37,0,0,1,.37.32c.14,1.14.11,5-6.42,5.15A.38.38,0,0,1,42.18,55.27Z" transform="translate(-2.71 -4.98)"/></svg>