<svg id="Layer_1" data-name="Layer 1" xmlns="http://www.w3.org/2000/svg" viewBox="0 0 49 46.01"><defs><style>.cls-1{fill:none;}.cls-2{fill:#e6e6e6;opacity:0.87;}.cls-3{fill:#00796b;}.cls-4{fill:#00bfa5;}.cls-5{fill:#fff;}.cls-6{fill:#ff9800;}.cls-7{fill:#0277bd;}.cls-8{fill:#01579b;}</style></defs><title>Medicine icon svg</title><polygon class="cls-1" points="20.38 13.02 22.08 13.02 22.08 11.88 23.77 11.88 23.77 10.19 22.08 10.19 22.08 8.49 20.38 8.49 20.38 10.19 19.25 10.19 19.25 11.88 20.38 11.88 20.38 13.02"/><path class="cls-1" d="M23.78,19.4a1.27,1.27,0,0,0-1.27-1.27H6.37A1.27,1.27,0,0,0,5.1,19.4V32.7A1.27,1.27,0,0,0,6.37,34H22.5a1.27,1.27,0,0,0,1.27-1.27ZM20.66,31.14H13.12a.85.85,0,1,1,0-1.7h7.54a.85.85,0,1,1,0,1.7Zm0-4H8a.85.85,0,1,1,0-1.7H20.66a.85.85,0,1,1,0,1.7Zm0-4.53H8A.85.85,0,1,1,8,21H20.66a.85.85,0,1,1,0,1.7Z" transform="translate(0 -1.15)"/><path class="cls-1" d="M38.41,31.47l-.31.19a2.76,2.76,0,0,0-.93,3.79L39.7,39.6l5-3L42.2,32.4A2.76,2.76,0,0,0,38.41,31.47Z" transform="translate(0 -1.15)"/><ellipse class="cls-2" cx="14.5" cy="44.91" rx="14.5" ry="1.1"/><ellipse class="cls-2" cx="38.5" cy="43.91" rx="10.5" ry="0.79"/><path class="cls-3" d="M20.66,21H8a.85.85,0,1,0,0,1.7H20.66a.85.85,0,1,0,0-1.7Z" transform="translate(0 -1.15)"/><path class="cls-3" d="M20.66,25.48H8a.85.85,0,1,0,0,1.7H20.66a.85.85,0,1,0,0-1.7Z" transform="translate(0 -1.15)"/><path class="cls-3" d="M20.66,29.44H13.12a.85.85,0,1,0,0,1.7h7.54a.85.85,0,1,0,0-1.7Z" transform="translate(0 -1.15)"/><path class="cls-4" d="M23.51,4.87a1,1,0,0,0,.83-1.11V2.22a1.06,1.06,0,0,0-1.1-1.07H5.44c-.62,0-.91.45-.91,1.07V3.76a1,1,0,0,0,.83,1.11C3,6.48.57,9.39.57,11.34V41.07a4.86,4.86,0,0,0,5.11,4.78H23a5,5,0,0,0,5.3-4.78V11.34C28.3,9.39,25.87,6.48,23.51,4.87Zm-4.26,6.46h1.13V9.63h1.7v1.7h1.7V13h-1.7v1.13h-1.7V13H19.25ZM23.78,32.7A1.27,1.27,0,0,1,22.5,34H6.37A1.27,1.27,0,0,1,5.1,32.7V19.4a1.27,1.27,0,0,1,1.27-1.27H22.5a1.27,1.27,0,0,1,1.27,1.27Z" transform="translate(0 -1.15)"/><rect class="cls-4" x="16" y="6.85" width="9" height="8"/><rect class="cls-5" x="13.92" y="7.35" width="1.17" height="7" rx="0.5" ry="0.5"/><rect class="cls-5" x="13.92" y="8.5" width="1.17" height="7" rx="0.5" ry="0.5" transform="translate(2.5 25.35) rotate(-90)"/><path class="cls-6" d="M47.53,40.22l-4.9-8.09A3.26,3.26,0,0,0,38.15,31l-.31.19a3.26,3.26,0,0,0-1.1,4.48l4.9,8.09a3.26,3.26,0,0,0,4.48,1.1l.31-.19A3.26,3.26,0,0,0,47.53,40.22Z" transform="translate(0 -1.15)"/><path class="cls-5" d="M39.7,39.6l-2.52-4.16a2.76,2.76,0,0,1,.93-3.79l.31-.19a2.76,2.76,0,0,1,3.79.93l2.52,4.16Z" transform="translate(0 -1.15)"/><path class="cls-7" d="M30.86,43.89a3.93,3.93,0,0,0,6.59-4.21Z" transform="translate(0 -1.15)"/><path class="cls-8" d="M31.81,38.1a3.94,3.94,0,0,0-1.41,5.06L37,39A3.94,3.94,0,0,0,31.81,38.1Z" transform="translate(0 -1.15)"/></svg>