<?xml version="1.0" encoding="utf-8"?>
<!-- Generator: Adobe Illustrator 21.0.0, SVG Export Plug-In . SVG Version: 6.00 Build 0)  -->
<svg version="1.1" id="Layer_1" xmlns="http://www.w3.org/2000/svg" xmlns:xlink="http://www.w3.org/1999/xlink" x="0px" y="0px"
	 viewBox="0 0 250 250" style="enable-background:new 0 0 250 250;" xml:space="preserve">
<style type="text/css">
	.st0{fill:#4374B9;}
</style>
<path class="st0" d="M28.1,209.7c5.5-10.8,10.4-20.7,15.6-30.6c1.6-2.9,1.4-5-0.1-7.9c-31.8-57.7,3.4-128.7,68.6-138.9
	c53.5-8.3,103.6,31.8,107.5,85.8c3.7,50-30.6,93.4-80.3,100.9c-20.7,3.2-40.6-0.5-59-10.9c-3.7-2.2-7.2-2.5-11.1-2.2
	c-11.6,1.2-23.2,2.2-34.8,3.2C32.5,209.6,30.7,209.6,28.1,209.7z M135.3,153.8c-1.9-11.1,4.1-17.4,11.6-23.2
	c4.3-3.4,8.3-7.2,11.9-11.1c10.4-11.6,10.2-26.1-0.5-37.7c-7.2-7.9-16.3-11.5-26.7-12.3c-15.7-1.2-29.9,1.9-39.9,15.6
	c-3.7,5-5.9,10.5-5.7,17.4c5.5,0.7,10.9,1.2,16.3,2.2c2.5,0.4,3.6-0.5,4.3-3c3.7-11.6,11.3-16.3,23.2-15.2
	c6.8,0.7,12.2,3.7,14.4,10.4c2.2,6.5-0.5,11.6-5.5,15.9c-5.1,4.3-10.2,8.7-15.2,13.4c-7.2,6.8-8.6,15.9-8.3,25.3
	c0,0.8,1.6,2.5,2.5,2.6C123.4,153.9,129,153.8,135.3,153.8z M115.3,160.9c0,6.6-0.1,12.9,0.1,18.9c0,0.8,1.4,2.5,2.2,2.6
	c6.5,0.1,12.7,0.1,19.3,0.1c0-7.5,0-14.5,0-21.7C129.7,160.9,122.9,160.9,115.3,160.9z"/>
</svg>
