<svg id="Layer_1" data-name="Layer 1" xmlns="http://www.w3.org/2000/svg" viewBox="0 0 28.58 25.33">
  <defs>
    <style>.cls-1{fill:#178cba;}.cls-2{fill:#f98c8c;}.cls-3{fill:#eda2a2;}.cls-4{fill:#fefefe;}</style>
  </defs>
  <title>reminder 30*30</title>
  <path class="cls-1"
        d="M19.38,26.69h2.35c.17,0,.39,0,.38.23s-.22.19-.38.19l-4.35,0q-2.15-.05-4.3,0l-5.81,0H7a.21.21,0,1,1,0-.41h4.1c0-.2-.22-.21-.34-.25a11.81,11.81,0,0,1-7.62-8.27A11.62,11.62,0,0,1,5.35,7.63c.07-.09.2-.15.17-.28s-.1-.13-.16-.17-.16.06-.21.12L2.33,10.11c-.29.29-.33.29-.6,0A4.9,4.9,0,0,1,1.4,3.84c.24-.32.21-.49-.07-.7a1.18,1.18,0,0,1-.19-.2.2.2,0,0,1,0-.28.2.2,0,0,1,.28,0l.08.07c.17.14.28.42.48.41s.32-.24.49-.36a5,5,0,0,1,6.27.35c.24.22.24.36,0,.59-1,1-2,2-2.93,2.93-.08.08-.27.15-.09.32S6,6.92,6,6.83a11.94,11.94,0,0,1,17.25,0c.08.08.12.29.32.15s.21-.22,0-.4C22.81,5.83,22,5,21.19,4.19l-.32-.32c-.51-.51-.51-.51,0-1a4.94,4.94,0,0,1,6.3,0c.22.19.35.19.52,0A1.73,1.73,0,0,1,28,2.66a.2.2,0,0,1,.31,0,.19.19,0,0,1,0,.28l0,0c-.15.19-.46.3-.43.53s.26.37.38.56a5,5,0,0,1-.52,6c-.22.24-.37.23-.59,0-.92-.94-1.85-1.86-2.79-2.79-.09-.09-.15-.28-.34-.09s-.15.25,0,.41A13,13,0,0,1,25.89,11a2.8,2.8,0,0,0,.07.3,11.34,11.34,0,0,1,.54,5.17,11.76,11.76,0,0,1-6.37,9.26,15,15,0,0,1-2.34,1ZM4.22,20a.11.11,0,0,0,0,.06,4.4,4.4,0,0,0,.46.88,11.32,11.32,0,0,0,9.24,5.67,11,11,0,0,0,7.88-2.48,11.18,11.18,0,0,0,4.34-8.67,11.19,11.19,0,0,0-2.93-8,10.89,10.89,0,0,0-3.78-2.78A11.52,11.52,0,0,0,6.46,7c-.34.34-.34.34,0,.69A.35.35,0,0,1,6.23,8l-.32-.42-.22.26a11.4,11.4,0,0,0-2.48,8.61,9.79,9.79,0,0,0,1,3.51ZM.84,6.51a4.86,4.86,0,0,0,1,3.07c.14.19.23.22.42,0q3-3,6-6c.17-.17.19-.27,0-.42A4.41,4.41,0,0,0,3.4,2.69,4.34,4.34,0,0,0,.84,6.51Zm27.74,0A4.32,4.32,0,0,0,26.05,2.7a4.39,4.39,0,0,0-4.81.49c-.17.12-.27.21-.06.41q3,3,6,6c.19.2.28.13.42,0A4.76,4.76,0,0,0,28.58,6.51Z"
        transform="translate(-0.42 -1.8)"/>
  <path class="cls-2"
        d="M19.38,26.69H17.79a15,15,0,0,0,2.34-1,11.76,11.76,0,0,0,6.37-9.26A11.34,11.34,0,0,0,26,11.29a2.8,2.8,0,0,1-.07-.3c.13,0,.15.13.18.23a11.58,11.58,0,0,1,.82,5.53,11.38,11.38,0,0,1-2.42,6.12,11.62,11.62,0,0,1-4.92,3.7A1,1,0,0,0,19.38,26.69Z"
        transform="translate(-0.42 -1.8)"/>
  <path class="cls-1" d="M4.61,27.11H3.37c-.15,0-.32,0-.32-.21s.15-.2.3-.2H5.9c.15,0,.3,0,.31.2s-.15.22-.32.22Z"
        transform="translate(-0.42 -1.8)"/>
  <path class="cls-1" d="M24.39,27.11H23.12c-.15,0-.29,0-.29-.21s.14-.21.29-.21H25.7c.16,0,.29.05.28.23s-.13.19-.28.19Z"
        transform="translate(-0.42 -1.8)"/>
  <path class="cls-1" d="M1.81,27.11H1.3a.2.2,0,0,1,0-.4h1a.2.2,0,1,1,0,.41H1.81Z" transform="translate(-0.42 -1.8)"/>
  <path class="cls-1" d="M27.25,26.7c.16,0,.32,0,.48,0a.2.2,0,0,1,0,.4h-1a.18.18,0,0,1-.2-.19.19.19,0,0,1,.21-.22h.48Z"
        transform="translate(-0.42 -1.8)"/>
  <path class="cls-3"
        d="M19.44,4.65a10.89,10.89,0,0,1,3.78,2.78,11.19,11.19,0,0,1,2.93,8,11.18,11.18,0,0,1-4.34,8.67,11,11,0,0,1-7.88,2.48A11.32,11.32,0,0,1,4.7,20.94a4.4,4.4,0,0,1-.46-.88c.06,0,0-.05,0-.06h0a.86.86,0,0,0-.05-.34,12,12,0,0,1-.58-5.58A12.18,12.18,0,0,1,5.28,9.42c.29-.48.7-.87,1-1.38a.35.35,0,0,0,.26-.34c.13,0,.2-.1.28-.18a12.59,12.59,0,0,1,2.61-2A11.67,11.67,0,0,1,14.94,4a11.45,11.45,0,0,1,4.16.66C19.2,4.65,19.31,4.78,19.44,4.65ZM11.29,23.79h0c.07.17.25.2.39.26a9.13,9.13,0,0,0,4.92.59,9.11,9.11,0,0,0,7.68-8.51,8.55,8.55,0,0,0-.46-3.29,2.31,2.31,0,0,0-.5-1.07h0c0-.06,0-.12-.07-.15l-.17-.33a9,9,0,0,0-8.46-5.42A8.83,8.83,0,0,0,8.45,8.24a9.28,9.28,0,0,0-.18,13.61,10.5,10.5,0,0,0,2.87,1.87C11.17,23.79,11.23,23.78,11.29,23.79Z"
        transform="translate(-0.42 -1.8)"/>
  <path class="cls-4"
        d="M.84,6.51A4.34,4.34,0,0,1,3.4,2.69a4.41,4.41,0,0,1,4.81.51c.2.15.19.25,0,.42q-3,3-6,6c-.19.19-.27.15-.42,0A4.86,4.86,0,0,1,.84,6.51Z"
        transform="translate(-0.42 -1.8)"/>
  <path class="cls-4"
        d="M28.58,6.51a4.76,4.76,0,0,1-1,3.06c-.14.18-.22.24-.42,0q-3-3-6-6c-.21-.21-.11-.29.06-.41a4.39,4.39,0,0,1,4.81-.49A4.32,4.32,0,0,1,28.58,6.51Z"
        transform="translate(-0.42 -1.8)"/>
  <path class="cls-4"
        d="M19.44,4.65c-.13.13-.24,0-.35,0A11.45,11.45,0,0,0,14.94,4,11.67,11.67,0,0,0,9.39,5.5a12.59,12.59,0,0,0-2.61,2c-.08.08-.15.17-.28.18-.37-.34-.37-.34,0-.69A11.52,11.52,0,0,1,19.44,4.65Z"
        transform="translate(-0.42 -1.8)"/>
  <path class="cls-4"
        d="M6.23,8c-.25.51-.66.9-1,1.38A12.18,12.18,0,0,0,3.6,14.08a12,12,0,0,0,.58,5.58.86.86,0,0,1,.05.34,9.79,9.79,0,0,1-1-3.51A11.4,11.4,0,0,1,5.69,7.88l.22-.26Z"
        transform="translate(-0.42 -1.8)"/>
  <path class="cls-4" d="M4.22,20s.08,0,0,.06A.11.11,0,0,1,4.22,20Z" transform="translate(-0.42 -1.8)"/>
  <path class="cls-1"
        d="M11.14,23.72a10.5,10.5,0,0,1-2.87-1.87A9.28,9.28,0,0,1,8.45,8.24a8.83,8.83,0,0,1,6.17-2.37,9,9,0,0,1,8.46,5.42l.17.33c0,.06,0,.12.07.15h0c0,.07,0,.13.05.2a9.45,9.45,0,0,1,.3,5.3,9.31,9.31,0,0,1-9.59,7.11,12,12,0,0,1-2.79-.59h0C11.26,23.73,11.2,23.73,11.14,23.72ZM18.2,7.05A.9.9,0,0,0,18,6.94a8.6,8.6,0,0,0-9,1.34,8.55,8.55,0,0,0-3.16,8.21,5.81,5.81,0,0,0,.67,2.19c0,.08.05.15.08.23A8.84,8.84,0,1,0,22.47,11,8.33,8.33,0,0,0,18.2,7.05Z"
        transform="translate(-0.42 -1.8)"/>
  <path class="cls-4"
        d="M11.29,23.78a12,12,0,0,0,2.79.59,9.31,9.31,0,0,0,9.59-7.11,9.45,9.45,0,0,0-.3-5.3c0-.06,0-.13-.05-.2a2.31,2.31,0,0,1,.5,1.07,8.55,8.55,0,0,1,.46,3.29,9.11,9.11,0,0,1-7.68,8.51A9.13,9.13,0,0,1,11.68,24C11.53,24,11.36,24,11.29,23.78Z"
        transform="translate(-0.42 -1.8)"/>
  <path class="cls-4" d="M23.32,11.77c-.06,0-.06-.09-.07-.15S23.31,11.71,23.32,11.77Z"
        transform="translate(-0.42 -1.8)"/>
  <path class="cls-4" d="M11.14,23.72c.06,0,.12,0,.15.07S11.17,23.79,11.14,23.72Z" transform="translate(-0.42 -1.8)"/>
  <path class="cls-4"
        d="M18.2,7.05a8.33,8.33,0,0,1,4.27,4A8.84,8.84,0,1,1,6.66,18.9c0-.07-.06-.15-.08-.23s0-.24,0-.34a8.85,8.85,0,0,1-.13-4.82,8.8,8.8,0,0,1,4.34-5.7A8.9,8.9,0,0,1,17.89,7C18,7.06,18.09,7.18,18.2,7.05Zm1.63,4.36c-.05-.14-.15-.23-.31-.14a1.21,1.21,0,0,0-.23.2q-2.08,2-4.15,4a.38.38,0,0,1-.52.09c-1.3-.67-2.61-1.32-3.91-2-.14-.07-.3-.19-.42,0s.07.28.21.35l4.22,2.13a.34.34,0,0,0,.46-.06l4.5-4.35A.38.38,0,0,0,19.83,11.41Z"
        transform="translate(-0.42 -1.8)"/>
  <path class="cls-2"
        d="M18.2,7.05c-.11.13-.22,0-.31,0a8.9,8.9,0,0,0-7.14.78,8.8,8.8,0,0,0-4.34,5.7,8.85,8.85,0,0,0,.13,4.82c0,.11.15.22,0,.34a5.8,5.8,0,0,1-.67-2.19A8.55,8.55,0,0,1,9.07,8.28a8.6,8.6,0,0,1,9-1.34A.9.9,0,0,1,18.2,7.05Z"
        transform="translate(-0.42 -1.8)"/>
  <path class="cls-1"
        d="M19.83,11.41a.38.38,0,0,1-.16.28L15.18,16a.34.34,0,0,1-.46.06L10.5,14c-.14-.07-.33-.14-.21-.35s.28-.08.42,0c1.31.66,2.61,1.31,3.91,2a.38.38,0,0,0,.52-.09q2.07-2,4.15-4a1.21,1.21,0,0,1,.23-.2C19.69,11.19,19.78,11.28,19.83,11.41Z"
        transform="translate(-0.42 -1.8)"/>
</svg>
