<svg id="Layer_1" data-name="Layer 1" xmlns="http://www.w3.org/2000/svg" viewBox="0 0 46.32 43.79"><defs><style>.cls-1{fill:#999;}.cls-2{fill:#00bfa5;}</style></defs><title>Sharing icon 2</title><path class="cls-1" d="M4.61,47a3.06,3.06,0,0,1-3.06-3.06h0V12.14A3.06,3.06,0,0,1,4.61,9.08H21l-4.37,4.37H5.92V42.63H33.82V36.76l4.37-4.37V43.94A3.06,3.06,0,0,1,35.13,47H4.61Z" transform="translate(-1.55 -3.21)"/><path class="cls-2" d="M33.67,8.7V3.21l14.2,14.2L33.61,31.67V26s-8.36-.58-14.36,3.13a22.9,22.9,0,0,0-8.33,8.27,39.93,39.93,0,0,1,5.63-16.93A26.9,26.9,0,0,1,33.67,8.7Z" transform="translate(-1.55 -3.21)"/></svg>