<?xml version="1.0" encoding="utf-8"?>
<!-- Generator: Adobe Illustrator 21.0.0, SVG Export Plug-In . SVG Version: 6.00 Build 0)  -->
<svg version="1.1" id="Layer_1" xmlns="http://www.w3.org/2000/svg" xmlns:xlink="http://www.w3.org/1999/xlink" x="0px" y="0px"
	 viewBox="0 0 250 250" style="enable-background:new 0 0 250 250;" xml:space="preserve">
<style type="text/css">
	.st0{fill:#4374B9;}
</style>
<path class="st0" d="M126.6,61.5C88,62.8,58.2,75.1,33.4,99.2c-3.3,3.2-6.9,4.9-11.4,4c-4.4-0.9-7.4-3.6-8.7-8
	c-1.3-4.4-0.2-8.3,3.1-11.6C29.1,71,43.5,60.8,59.7,53.2c22.9-10.8,47.1-15.6,72.3-14.3c39.3,2,73.1,16.9,101.2,44.5
	c5,4.9,5.2,12,0.6,16.7c-4.6,4.6-11.6,4.6-16.6-0.2c-19.3-19-42.2-31.2-68.9-35.9C139.9,62.4,131.2,62,126.6,61.5z"/>
<path class="st0" d="M127.2,78.6c28.9,0.5,55.7,11.3,77.9,33c6.7,6.5,4.2,17.2-4.6,19.6c-4.6,1.3-8.5-0.2-11.9-3.6
	c-9.3-9.2-20-16.3-32.4-20.5c-34.8-11.6-66.1-5.2-93.5,19.4c-2.4,2.2-4.7,4.4-8,4.9c-5.1,0.8-9.9-1.6-12.2-6
	c-2.3-4.5-1.6-9.7,2-13.4c6.8-6.9,14.3-12.8,22.7-17.7C85,83.9,104.4,78.8,127.2,78.6z"/>
<path class="st0" d="M180.6,148.9c-0.3,4.7-2.6,8.3-7.1,10.2c-4.6,1.9-8.9,1-12.5-2.5c-6.2-6-13.2-10.5-21.5-12.8
	c-19-5.1-35.8-1-50.2,12.5c-6.6,6.2-16.7,4-19.3-4.3c-1.5-4.6-0.3-8.6,3.1-12c12-11.7,26.3-18.9,43-20.7
	c23.4-2.6,43.6,4.4,60.6,20.6C179.3,142.3,180.5,145.2,180.6,148.9z"/>
<path class="st0" d="M125.3,170.2c12.4,0.3,22.3,10.4,22.2,22.6c-0.2,12.5-10.5,22.4-23.1,22.2c-12.2-0.2-22.1-10.7-21.8-23
	C102.8,179.9,113.2,170,125.3,170.2z"/>
</svg>
