<svg xmlns="http://www.w3.org/2000/svg" viewBox="0 0 1587 112">
  <defs>
    <style>
      .cls-1, .cls-2 {
        fill: #e6f8f8;
      }

      .cls-1 {
        opacity: 0.55;
      }

      .cls-1, .cls-3 {
        isolation: isolate;
      }

      .cls-3 {
        fill: #fff;
        opacity: 0.63;
      }
    </style>
  </defs>
  <title>Asset 1</title>
  <g id="Layer_2" data-name="Layer 2">
    <g id="Layer_1-2" data-name="Layer 1">
      <g>
        <path class="cls-1" d="M144,78.35A2448.31,2448.31,0,0,0,547.57,112c201.9,0,285.66-33.65,404-33.65S1203,112,1356.57,112q153.59,0,230.43-33.65-180.35,0-334.6-36.65c-353.61-62.89-482.09-26.34-677.28,17Q402,91.85,144,78.35Z"/>
        <path class="cls-2" d="M1584,84.14Q1245.38-22.16,990.78,26C736.18,74.21,711.61,70.09,602.33,70.09S385.59,26,243.77,26Q102,26,31,53.84q166.53,0,309,30.29c326.52,52,445.14,21.77,625.38-14Q1252.83,2.29,1584,84.14Z"/>
        <path class="cls-3" d="M1553,73.14Q1214.38-33.16,959.78,15C705.18,63.21,680.61,59.09,571.33,59.09S354.59,15,212.77,15Q71,15,0,42.84q166.53,0,309,30.29c326.52,52,445.14,21.77,625.38-14Q1221.83-8.71,1553,73.14Z"/>
      </g>
    </g>
  </g>
</svg>
