<svg xmlns="http://www.w3.org/2000/svg" xmlns:xlink="http://www.w3.org/1999/xlink" viewBox="0 0 1400 765.54"><defs><style>.cls-1{isolation:isolate;}.cls-2{mix-blend-mode:multiply;}.cls-3{fill:url(#linear-gradient);}.cls-4{fill:url(#linear-gradient-2);}.cls-5{fill:url(#linear-gradient-3);}.cls-6{fill:url(#linear-gradient-4);}.cls-7{fill:url(#linear-gradient-5);}.cls-8{fill:url(#linear-gradient-6);}.cls-9{fill:url(#linear-gradient-7);}.cls-10{fill:#e2f3f7;}.cls-11,.cls-21,.cls-33{fill:#fff;}.cls-12,.cls-13,.cls-15{fill:#fcb7a2;}.cls-12{opacity:0.32;}.cls-13{opacity:0.3;}.cls-14{fill:#95dba4;}.cls-15{opacity:0.5;}.cls-16{fill:url(#linear-gradient-8);}.cls-17{fill:#b4efc0;}.cls-18{fill:#89ce97;}.cls-19{fill:#666;}.cls-19,.cls-20,.cls-21,.cls-22,.cls-23,.cls-24,.cls-25,.cls-26,.cls-27,.cls-28,.cls-29,.cls-30,.cls-31{stroke:#353535;}.cls-19,.cls-22,.cls-23,.cls-24,.cls-29,.cls-30{stroke-miterlimit:10;}.cls-19,.cls-20,.cls-21,.cls-22,.cls-23,.cls-24,.cls-25,.cls-26,.cls-27,.cls-28,.cls-29,.cls-30{stroke-width:2px;}.cls-20,.cls-31{fill:none;}.cls-20,.cls-21,.cls-25,.cls-26,.cls-27,.cls-28,.cls-31{stroke-linecap:round;stroke-linejoin:round;}.cls-22,.cls-26{fill:#ffc2b6;}.cls-23{fill:#ed88a0;}.cls-24{fill:#8ca3e0;}.cls-25{fill:#754b58;}.cls-27{fill:#ffd0ca;}.cls-28{fill:#e2e2e2;}.cls-29{fill:#57627a;}.cls-30{fill:#7f8da5;}.cls-32{opacity:0.17;}.cls-33{opacity:0.46;}</style><linearGradient id="linear-gradient" x1="1123.08" y1="28.68" x2="1400" y2="28.68" gradientUnits="userSpaceOnUse"><stop offset="0" stop-color="#fff"/><stop offset="1" stop-color="#cff1f9"/></linearGradient><linearGradient id="linear-gradient-2" x1="1018.02" y1="-10.86" x2="1033.76" y2="66.37" xlink:href="#linear-gradient"/><linearGradient id="linear-gradient-3" x1="983" y1="598.18" x2="984.43" y2="350.76" gradientUnits="userSpaceOnUse"><stop offset="0" stop-color="#fff"/><stop offset="1" stop-color="#cad3dd"/></linearGradient><linearGradient id="linear-gradient-4" x1="780.5" y1="622.68" x2="780.5" y2="505.19" gradientUnits="userSpaceOnUse"><stop offset="0" stop-color="#fff"/><stop offset="1" stop-color="#aebfce"/></linearGradient><linearGradient id="linear-gradient-5" x1="1139.8" y1="621.25" x2="1139.8" y2="536.87" xlink:href="#linear-gradient-4"/><linearGradient id="linear-gradient-6" x1="498.16" y1="642.71" x2="498.16" y2="546.71" xlink:href="#linear-gradient-4"/><linearGradient id="linear-gradient-7" x1="475.14" y1="52.76" x2="488.01" y2="117.11" xlink:href="#linear-gradient"/><linearGradient id="linear-gradient-8" x1="362.17" y1="-7.38" x2="360.74" y2="89.88" xlink:href="#linear-gradient"/></defs><title>Asset 1</title><g class="cls-1"><g id="Layer_2" data-name="Layer 2"><g id="Layer_2-2" data-name="Layer 2" class="cls-2"><path class="cls-3" d="M1148.66,29.6s14.12,7.83,27.62,6.09c0,0,15.13,16.54,45.66,7,0,0,11.15,7.71,21.52,3,0,0,13.09,11.82,28.77,7.46,0,0,30.66,8.89,38.84,1,0,0,36.8,6,45-1.83,0,0,44,4.35,44-16.54V0H1123.08Z"/><path class="cls-4" d="M850.41,33.35s-1.32,11,20.48,11c0,0,12.27,13.93,31.34,0,0,0,13.69,18.47,47.73,6.19,0,0,14.55,12,45.42,4.22,0,0,29.7,13.06,35.05,2.63,0,0,27.61,1.7,28.75-10,0,0,41.64,2.21,51.37-10,0,0,18.51,3.15,20.93-4.08,0,0,15.58.6,17.18-3.75,0,0,27.87-6.09,20.87-14.8,0,0,33.08-1.74,27.35-14.8l-326,1Z"/><polygon class="cls-5" points="566.58 611.79 566.58 479.5 582.26 479.5 582.26 532.54 597.17 532.54 597.17 563.83 606.12 563.83 606.12 435.26 627.01 435.26 627.01 484.81 637.45 484.81 637.45 503.27 653.86 503.27 653.86 388 671.01 388 671.01 514.17 685.92 514.17 685.92 547.26 700.09 547.26 700.09 462.53 712.03 462.53 712.03 438.13 749.32 438.13 749.32 507.14 762.52 507.14 762.52 403.63 777.52 403.63 777.52 369.13 793.32 369.13 793.32 491.22 813.46 491.22 813.46 458.82 850.75 458.82 850.75 469.96 867.15 469.96 867.15 447.68 903.7 447.68 903.7 472.89 915.63 472.89 915.63 487.99 930.54 487.99 930.54 408.43 943.75 399.04 943.75 382.98 954.41 382.98 954.41 352.85 964.77 352.85 964.77 384.04 974.55 384.04 974.55 395.7 985.73 403.65 985.73 475.55 1025.72 475.55 1025.72 426.47 1070.68 426.47 1070.68 452.45 1107.18 452.45 1107.18 524.24 1118.49 524.24 1118.49 459.88 1130.53 459.88 1130.53 443.59 1145.56 443.59 1145.56 416.92 1156.49 416.92 1156.49 452.45 1169.95 452.45 1169.95 501.07 1181.13 501.07 1181.13 524.24 1193.06 524.24 1193.06 466.77 1202.76 466.77 1202.76 449.99 1210.22 449.99 1210.22 465.71 1217.54 465.71 1217.54 532.54 1228.12 532.54 1228.12 482.32 1237.93 475.34 1237.93 449.99 1253.88 438.65 1253.88 416.39 1268.19 406.21 1268.19 390.4 1277.34 390.4 1277.34 405.78 1288.43 413.74 1288.43 438.13 1304.56 449.6 1304.56 476.32 1313.88 482.32 1313.88 532.54 1328.8 532.54 1328.8 482.32 1337.75 482.32 1337.75 443.59 1347.45 443.59 1347.45 419.57 1360.13 419.57 1360.13 462 1372.8 462 1372.8 482.32 1381.75 482.32 1381.75 504.92 1400 504.92 1400 616.01 566.58 611.79"/><polygon class="cls-6" points="714.58 625.49 714.58 540.87 740.29 540.87 740.29 527.87 751.12 527.87 751.12 511.08 759.24 511.08 759.24 523.08 770.06 523.08 770.06 540.87 783.59 540.87 783.59 590.43 809.3 590.43 809.3 599.2 823.51 599.2 823.51 604.46 846.41 604.46 846.41 627.56 714.58 625.49"/><polygon class="cls-7" points="879.61 618.08 879.61 562.26 925.46 562.26 925.46 534.21 952.85 534.21 952.85 559.85 965.63 553.39 965.63 518.4 978.68 518.4 978.68 551.49 988.06 559.85 1006.02 559.85 1006.02 579.79 1019.85 579.79 1019.85 542.97 1033.2 542.97 1033.2 579.2 1060.67 579.2 1060.67 591.48 1082.38 591.48 1082.38 568.24 1096.69 568.24 1096.69 585.05 1117.29 585.05 1117.29 562.26 1135.5 562.26 1135.5 578.03 1166.71 578.03 1166.71 592.06 1193.23 592.06 1193.23 568.24 1211.4 559.06 1211.4 538.48 1223.01 538.48 1223.01 559.85 1239.08 567.97 1239.08 593.23 1253.36 593.23 1253.36 575.7 1274.22 575.7 1274.22 603.75 1300.81 603.75 1300.81 551.49 1320.47 551.49 1320.47 578.03 1333.18 578.03 1333.18 587.38 1358.62 587.38 1358.62 565.18 1374.8 565.18 1374.8 582.13 1400 582.13 1400 620.24 879.61 618.08"/><polygon class="cls-8" points="397.13 623.1 397.13 595.06 405.12 595.06 405.12 588.05 423.09 574.9 441.06 588.05 441.06 595.64 453.04 595.64 453.04 603.24 462.62 603.24 462.62 569.35 474.82 569.35 474.82 580.45 489.77 580.45 489.77 590.84 510.54 590.84 510.54 545.57 528.9 545.57 528.9 576.41 540.88 576.41 540.88 586.88 552.07 586.88 552.07 574.02 560.85 574.02 560.85 564.09 570.43 564.09 570.43 545.57 583.21 545.57 583.21 576.41 599.18 576.41 599.18 624.28 397.13 623.1"/><path class="cls-9" d="M184.11,119.43s43.55,12.1,73.53,2.92c0,0,0,10,20.44,8.23,0,0,12.27,16.54,57.24,4.35,0,0,33.07,5.83,39.52-12.59,0,0,13.63,3.33,21.8-2.92,0,0,17.72.71,27.26-7.13,0,0,85.86,9.58,136.28-19.15,0,0,16.35,5.22,19.08,0,0,0,12.27,6.09,19.08,0,0,0,13.63,6.09,24.53,0,0,0,28.62,5.22,30-14.8,0,0,21.8,4.35,30-11.32,0,0,14.35,8.71,24.21,0,0,0,23.49,7,27.58,0,0,0,32.71,3.48,39.52-18.28,0,0,25.89,7,28.62-6.09,0,0,27.26,7.83,32.71-12.19,0,0,20.44,9.58,34.07-6.09,0,0,19.08,9.58,25.89-6.09,0,0,18.32-.87,20.06-10.45,0,0,15.37-.74,14-6.83L0,.54Z"/><path class="cls-10" d="M405.91,96.39,915.63,488l102.59-130.24,28.9-101.46h26.68l4.63-109.89L542.12,78.5S432,24.15,405.91,96.39Z"/><path class="cls-11" d="M470.51,59l604.67,164.46,3.25-77.09L542.12,78.5S506.19,60.77,470.51,59Z"/><path class="cls-11" d="M437.45,63.41a51.91,51.91,0,0,0-16.57,10l613.74,226.8,12.5-43.88h26.68l.53-12.49Z"/><path class="cls-11" d="M414.61,80.19a55.39,55.39,0,0,0-4.84,7.53L999.55,381.46l18.68-23.71,8.22-28.86Z"/><path class="cls-11" d="M406.87,93.92c-.33.81-.66,1.62-1,2.47L915.63,488l64.29-81.61Z"/><circle class="cls-12" cx="1020.45" cy="313.77" r="177.09"/><circle class="cls-13" cx="1020.45" cy="313.77" r="116.75"/><path class="cls-14" d="M1273.22,581.4l5.11,11a54,54,0,0,0,3.84-27.43l5.25,23.62,4-8.42,3.34,8.57,1.75-3.5a37.13,37.13,0,0,0,20.09-6.38,11.6,11.6,0,0,0,13.65,8.78l.38-27.07L1342,583.47l5.24-7.28,8,11.73c14.52,3.32,29,10.64,43.57,14-9.34-2.14-31.28,3.57-41.57,5.12a324.09,324.09,0,0,1-43.94,3.58c-9.8.13-35.37,3.21-43.89-2.4C1258.37,600.88,1267.49,591.46,1273.22,581.4Z"/><circle class="cls-15" cx="1020.45" cy="313.77" r="57.98"/><path class="cls-16" d="M0,104s35.5,17,57.31-9.11c0,0,58.6,56.53,190.79,7.37,0,0,49.06,19.62,84.49-7.37,0,0,47.7,24.38,83.13-5.22,0,0,35.43,22.63,61.33-7.83,0,0,68.14,13.93,92.67-24.38,0,0,42.25,13.06,53.15-10.45,0,0,71.27,4,101.25-46.47H0Z"/><path class="cls-14" d="M164.68,607.72l4.18,13.18a99.49,99.49,0,0,1,19.49-41.7l-9.76,38.53a28.41,28.41,0,0,1,17-19.34A15.09,15.09,0,0,1,193.89,614a68.67,68.67,0,0,0,44.38-38.62A96.89,96.89,0,0,1,221,615.94l28.84-15.81-9.37,16.82a114,114,0,0,1,63.39-23.1,36,36,0,0,0-10.19,21l16.74-9.8-3.46,11.32,16.64.14,8.76-10.45-.84,9.94a39.72,39.72,0,0,1,20.36-11.18L344,619.76l8.46-5.08c5,3.22,3.92,11.54-.62,15.43s-10.93,4.58-16.89,5.09l-91.33,7.89c-20.7,1.79-42,3.45-62.6-.61-6.39-1.26-25.72-4.52-29-11.08C147.8,623,159.59,613.92,164.68,607.72Z"/><path class="cls-17" d="M0,613.87s17.29-2.15,41.65,9.32,60.89-7.33,81.93-4.74,42.07,7.61,81.93,1.87,44.29,4.3,62,0,26.57,8.2,67.54,6.61,52-11.95,77.5-13.22,46.5,4.46,62,3.74,60.89-15.06,70.86-15.77,15.5,6.45,23.25,6.45,24.36-24.38,21-31.55,3.32-23.66,6.64-20.08,4.43,35.85,10,38.72,6.64-12.19,12.18-11.47,5.54,16.49,11.07,16.49,3.32-10.24,15.5-8.71,12.18-40,18.82-40,3.32,52.34,13.29,51.62,4.43-12.61,16.61-13.83,2.21,16,11.07,14.55,1.15-7.89,11.65-7.89-1.68,8.6,11.6,10,7.75-23.66,13.29-22.94,4.43,24.38,12.18,23.66,7.75-11.47,15.5-10-2.21,8.6,8.86,8.6,12.18-7.89,17.71-8.6-2.21,6.45,4.43,6.45,10-5.74,19.93-5.74,3.32,16.49,38.75,12.91,26.57-7.17,47.61-7.17,17.1,9.32,36.23,7.89,20.32-7.17,41.32-6.45,8.77,7.17,31.49,5.74,82.57-2.87,95.27-2.15,66.95-6.45,81.34-5.74,68.8-4.3,82-2.87,57.49,0,68.56,0,57.47.72,57.47.72v80.3s-184.68,85-321.57,85c-163.42,0-235.07-85-377.71-85-202.56,0-224.81,85-387.72,85-160.32,0-313-85-313-85Z"/><path class="cls-18" d="M785.09,605.26c6.59,0,9.65-2.8,12.22-5.21.4-1.85,1.3-3.78-1.7-3.39-4.83.63-6.29,6.7-13.92,8.25A13,13,0,0,0,785.09,605.26Z"/><path class="cls-18" d="M865.91,610.28c32.65-3.3,27.69-6.61,43.17-7.11-.87,0-1.78-.06-2.76-.06-21,0-12.18,3.59-47.61,7.17-2,.2-3.81.33-5.54.42A81.79,81.79,0,0,0,865.91,610.28Z"/><path class="cls-18" d="M807.23,603.11c5.49,0,8.72-3.91,15.3-5.27a6.66,6.66,0,0,0-2.56-.47c-7.43,0-11.17,3.19-15.35,4.81C805,602.74,805.73,603.11,807.23,603.11Z"/><path class="cls-18" d="M760.73,606.7c5.72-.53,7.22-6.52,10.72-9a5,5,0,0,0-2.42-1c-6.15-1.14-7.42,5.4-11.56,8.51A3.68,3.68,0,0,0,760.73,606.7Z"/><path class="cls-18" d="M735.27,606c8.32.9,9.26-8.61,10.16-15.66-1-3.9-2.11-7-4.07-7.28-4.86-.63-1.2,18.6-9.19,22.37A17.78,17.78,0,0,0,735.27,606Z"/><path class="cls-18" d="M1022.55,610.28c17.54-1.11,57.22-2.21,80.24-2.33-20.84-.14-67.88,1.1-87.43,2.33l-1.83.1A69,69,0,0,0,1022.55,610.28Z"/><path class="cls-18" d="M1346.89,599.55l-4.36,0c-6.87,0-26.51.55-43.59.63C1315.46,600.24,1337,599.66,1346.89,599.55Z"/><path class="cls-18" d="M949.75,611c16.76-1.26,19.76-5.82,34.36-6.44h-.24c-21-.72-22.19,5-41.22,6.45A41.33,41.33,0,0,0,949.75,611Z"/><path class="cls-18" d="M1270.41,599.31c-15-.44-52.26,2.64-70.93,3.1C1211.63,602.92,1249.74,599.72,1270.41,599.31Z"/><path class="cls-18" d="M1117.82,608.13c11.27.64,55.26-4.94,75.08-5.7l-.93,0c-12.69-.63-56.38,4.87-75.23,5.68Z"/><path class="cls-18" d="M712,603.83c7.36-1.19,3.29-5.85,7.73-7.39a8.29,8.29,0,0,0-3.27-.5c-8.36,0-5.18,4.1-8,6.49C709,603.54,710.05,604.15,712,603.83Z"/><path class="cls-18" d="M122.57,618.36c-15.11-1.36-37.65,7.43-58,8.47C83.69,627.86,106,619.58,122.57,618.36Z"/><path class="cls-18" d="M342.24,626.93c41-1.59,52-12,77.5-13.22,1.32-.07,2.62-.1,3.91-.13-3.61-.08-7.3-.06-11.11.13C387.08,615,376,625.34,335,626.93c-1.2,0-2.36.08-3.5.1C334.85,627.1,338.4,627.08,342.24,626.93Z"/><path class="cls-18" d="M212.7,620.32a170.12,170.12,0,0,1,19.16-1.76,150.11,150.11,0,0,0-26.35,1.76,245.65,245.65,0,0,1-31,2.6A235.24,235.24,0,0,0,212.7,620.32Z"/><path class="cls-18" d="M274.7,620.32a32.07,32.07,0,0,1,3.92-.69,31.34,31.34,0,0,0-11.11.69,39,39,0,0,1-5.35.92A36.47,36.47,0,0,0,274.7,620.32Z"/><path class="cls-18" d="M7.19,680.54V613.87l.3,0a44.84,44.84,0,0,0-7.5,0v66.68s152.68,85,313,85l4.4,0C158.1,764.54,7.19,680.54,7.19,680.54Z"/><path class="cls-18" d="M707.91,680.54l-5.11,0c141.25.83,213,85,375.62,85l4,0C921.27,764.4,849.61,680.54,707.91,680.54Z"/><path class="cls-18" d="M684.34,603.11c9-.65,5.33-10.47,13.61-13.22a7,7,0,0,0-4.2-.61c-9.77,1-8.14,8.83-12.26,12.26A3.26,3.26,0,0,0,684.34,603.11Z"/><path class="cls-18" d="M636.73,600.24c5.54,0,3.32-10.24,15.5-8.71,9.15,1.15,11.42-22,14.8-33.62-.74-3.92-1.72-6.43-3.18-6.43-6.64,0-6.64,41.59-18.82,40-8.07-1-9.82,3.13-11.69,6C634.23,599.17,635.3,600.24,636.73,600.24Z"/><path class="cls-18" d="M613.48,595.22c3.88,2,5.59-4.78,8.16-8.78-.84-1.48-1.85-2.52-3.18-2.69-3.34-.43-5.07,4.88-7.13,8.53A5.83,5.83,0,0,0,613.48,595.22Z"/><path class="cls-18" d="M481.74,617.45c14.53-.67,55.32-13.31,68.58-15.49a19.05,19.05,0,0,0-4.92-.29c-9.85.71-54.3,14.72-70.29,15.74C477.41,617.52,479.63,617.55,481.74,617.45Z"/><path class="cls-18" d="M571.35,607.36a14.57,14.57,0,0,0,4.5.77c7.75,0,24.36-24.38,21-31.55-1.78-3.85-.7-10.37,1.21-15-.53-2.49-1.1-4.33-1.76-5-3.32-3.59-10,12.91-6.64,20.08C592.66,583,579.66,603.2,571.35,607.36Z"/><path class="cls-19" d="M1018.49,184.76s-4.2-2.8-4.2-12.59c-1.4-5.6-2.8-11.19,4.2-15.39s7,0,14-1.4,7-7,12.59-7c8.39,1.4,29.38,2.8,40.57,29.38S1108,196,1119.22,201.55s14,25.18,21,30.78,22.38,1.4,29.38,11.19,11.19,33.58-16.79,43.37-51.77,7-51.77,7-14-4.2-15.39-14-14-32.18-19.59-35-26.58-9.79-26.58-14S1015.69,196,1018.49,184.76Z"/><path class="cls-20" d="M1059.06,207.15s5.68,14.2,16.24,19.54,14.54,10,18.73,21.54,14.36,25.14,30.62,29.41l16.27,4.26"/><line class="cls-21" x1="1024.09" y1="172.17" x2="1026.04" y2="162.14"/><path class="cls-20" d="M1032.57,160.43s20.41-.43,25.45,0,14.39,10.23,17.28,21.74,8.86,24.41,15.26,26.91,15.77,2.5,23.87,9.75,3.89,32.75,45.6,49.17"/><path class="cls-20" d="M1134.46,235.44s23.06,12.33,30.71,28.54"/><path class="cls-20" d="M1032.57,167.16s12-3.08,16.46,0,8,8.55,15.72,15.32,0,26.39,10.56,34.14,20.37,2.17,28,10.07,5.11,24.92,18.75,37.29,24.11,11,24.11,11"/><path class="cls-20" d="M1052.45,214.86s3.17,14.62,13.4,18.88,21.09,15.77,23.55,25.57,15.5,26.1,29,26.9"/><path class="cls-22" d="M965.67,494.59l-.77,10.57s-9.28,5.15-18.72,4l-3.09-12Z"/><path class="cls-23" d="M983.27,317.61s-12,16.3-24.88,25.29-26.14,28.28-30.42,40.7c0,0-4.28,8.57-7.28,12.43a76.15,76.15,0,0,0,3,24.42s-12.85,41.56-32.56,78c0,0,1.71,9,13.71,16.71S922.4,519,922.4,519l2.14-15s6-10.28,12.66-17.14a39.78,39.78,0,0,1,3.63,15.85s15,3,24.85-8.14c0,0,3.86-36-5.57-53.56,0,0,3-11.57,26.14-24.42s53.61-29.15,48-72.85l-5-18.85-18.16-2.57-9.85-8.57Z"/><path class="cls-22" d="M1073.8,295l8.85,9.88s4.1,4.9,12,3.71,43.83-21.45,56.54-26.22c0,0,22,4.63,35.62-4.63,0,0,4.1-3.18,1.59-6.75,0,0,3.75-4.37.82-7,0,0,4.08-3.84-.55-7.68,0,0,.26-6.62-6.62-4,0,0-10,7.68-19.36,9.67,0,0,2-6.49,5.73-7.55s3.58-4.9.93-4.5-10.2,1.19-15.23,9.53-3.71,8.61-6.75,10.2-9.4,5.69-22.51,7-29.46,9-29.46,9l-4.88-5.77Z"/><path class="cls-24" d="M968,252.43l25-22.52s6.26-6.26,13.76-6.26a78.41,78.41,0,0,1,13.76,1.25l26.27,5s20,6.26,23.77,10,12.51,20,20,40c0,0-7.51,12.51-20,16.26a92,92,0,0,1-12.51-20,31.89,31.89,0,0,0-7.51,26.27c2.5,16.26,12.51,32.53,8.76,50s-8.76,18.77-8.76,18.77-8.76,3.75-16.26-10a52.2,52.2,0,0,0,0-17.51c-1.92-2.15-8.76-2.5-8.76-7.51s-2.5-8.76-11.26-6.26-6.26,0-8.76-5-8.76-2.5-13.76-2.5-10-3.75-8.76-8.76,13.76-15,13.76-31.28a55,55,0,0,0-1.25-11.26c-1.25-5-3.75-6.26-3.75-8.76,0,0-12.51,12.51-18.77,13.76Z"/><path class="cls-22" d="M1025.43,212.87s1.32,8.29-4.94,12c0,0-1.25,10,10,13.76s15-8.76,15-8.76-5-2.5,1.25-13.76Z"/><path class="cls-25" d="M891.12,498.44s1.71,9,13.71,16.71S922.4,519,922.4,519C913.35,498.89,891.12,498.44,891.12,498.44Z"/><path class="cls-26" d="M897.18,499.21l-4.1,7.59L908.86,520,915,508.65S909.68,502.69,897.18,499.21Z"/><path class="cls-27" d="M1024.09,172.17s-4.2,9.79-4.2,12.59,1.4,5.6,0,9.79a23.84,23.84,0,0,0,0,14c1.4,4.2,7,16.79,15.39,14s16.79-4.2,23.78-15.39c0,0-2.8-1.4-1.4-8.39s0-16.79-4.2-16.79-5.6-7-5.6-9.79S1035.28,176.37,1024.09,172.17Z"/><path class="cls-22" d="M971.71,226.16s16.26,38.78,1.25,50c0,0-16.26-2.5-16.26-12.51s0-42.53-1.25-48.79a91.91,91.91,0,0,0-2.5-10s-11.26-13.76-11.26-18.77,1.25-20,3.75-20c0,0,1.25-.46,1.82,1.52,0,0,1-7.11,2.76-7s3.25.85,3.22,4.35c0,0,1.56-7.46,4.81-6.93s2.16,5.73,2.26,6.68c0,0,1.13-2.76,2.86-2.3s2.76,1.84,2.33,5.55-1.63,14-1.63,14,.46,5.76,3.43,8,2.3-13.26,5.3-13.33,3.78,3.15,3.15,12.34-8,16.86-8,16.86S965.38,213.14,971.71,226.16Z"/><path class="cls-24" d="M946,513.76c-3.42-.3-6.15,13.74-8.82,16.61s-12.1,13.94-8.82,16.2,15,8.61,27.27-8.61a29.06,29.06,0,0,1,9.84-10.25c6.36-3.69,11.48-12.1,8-16.2l-4.92-4.72S962.37,515.2,946,513.76Z"/><path class="cls-28" d="M944.33,508.84l1.64,4.92s13.94,2.26,22.55-7v-3.49S955,511.3,944.33,508.84Z"/><path class="cls-24" d="M864.38,492.61s11.68,0,24.39,11.51c0,0,10.79,1.9,17.36,8.41,7.65,9,4.37,19.89-2.4,26Z"/><path class="cls-29" d="M859.45,494.59c4.68-6.41,20.28,3.59,31.67,15.69s19.18,20.5,12.62,28.29-25.83-7.26-36.49-18.59S854.74,501,859.45,494.59Z"/><path class="cls-20" d="M991.87,334.14s1.8,7.55-32.71,43.13-33.4,36.84-35.48,43.19"/><path class="cls-21" d="M960.1,441s-9.75,25.22-22.91,45.85"/><path class="cls-20" d="M1058,276.2s3.6-3.06,1.25-26.3"/><path class="cls-20" d="M991.72,262.44s-.57-8.71,4.1-12.54,6.47-12.81,6.47-12.81"/><path class="cls-20" d="M1032.12,282.74s8.84,3.49,16.17,0"/><path class="cls-20" d="M1002.29,273.76s6.11,4.67,11.86,4"/><path class="cls-30" d="M970.38,508.57l-1.86-1.78s-6.15,8.41-22.55,7c-3.27-.29-5.9,12.48-8.45,16.14,4.12,2.47,11.57,4.31,20.14-5.69A70,70,0,0,1,970.38,508.57Z"/><path class="cls-23" d="M1136.46,272.77s6.47,6.56,6,15.24c0,0,4.17,4.25,8.86-3,0,0,.18-11.7-7.44-16.22S1136.46,272.77,1136.46,272.77Z"/><path class="cls-29" d="M1034.26,343.76a52.2,52.2,0,0,1,0,17.51c7.51,13.76,16.26,10,16.26,10C1055,356.32,1034.26,343.76,1034.26,343.76Z"/><path class="cls-31" d="M1043,189.47s3.7-1.88,9.44.94"/><path class="cls-31" d="M1025.49,185.7s3.36-2.08,10.72,0"/><path class="cls-31" d="M1040.86,196.53a10,10,0,0,0,9.21,1.74"/><path class="cls-31" d="M1025.49,192s4.56,4.14,8.85,1.45"/><line class="cls-31" x1="1026.04" y1="192.4" x2="1025.49" y2="193.57"/><line class="cls-31" x1="1028.32" y1="193.7" x2="1027.88" y2="194.85"/><line class="cls-31" x1="1030.85" y1="194.31" x2="1030.85" y2="195.55"/><line class="cls-31" x1="1033.4" y1="193.89" x2="1033.85" y2="194.85"/><line class="cls-31" x1="1041.63" y1="197.09" x2="1040.86" y2="198.46"/><line class="cls-31" x1="1043.76" y1="198.15" x2="1043.44" y2="199.37"/><line class="cls-31" x1="1046.44" y1="198.73" x2="1046.44" y2="200.3"/><line class="cls-31" x1="1049.03" y1="198.55" x2="1049.33" y2="199.95"/><path class="cls-31" d="M1033.63,200.3s-2.64,2.14-2.3,3.35a2.06,2.06,0,0,0,2.53,1.54"/><path class="cls-31" d="M1026.84,207.19s5.62,7.43,15.8,1.41"/><path class="cls-21" d="M981.68,419.28s-20.51,14.73-27.74,16"/><line class="cls-21" x1="924.54" y1="504.01" x2="925.81" y2="492.59"/><path class="cls-20" d="M943.27,516.28a28,28,0,0,0,16.08,0"/><path class="cls-20" d="M941.62,520s6,4,14.8,1.26"/><path class="cls-20" d="M939.83,524.78a12.55,12.55,0,0,0,11.47,1.76"/><path class="cls-21" d="M967.3,189.91s-1.92,4.68-3.06,5.55"/><line class="cls-21" x1="960.3" y1="164.73" x2="959.41" y2="176.76"/><line class="cls-21" x1="953.23" y1="164.98" x2="953.23" y2="178.16"/><line class="cls-21" x1="947.25" y1="167.63" x2="947.25" y2="182.48"/><path class="cls-21" d="M1188.71,256.29s-7.91,6.25-16.16,9.24"/><path class="cls-21" d="M1189.27,264s-7.46,5.55-15.15,7"/><path class="cls-21" d="M1188.45,271s-6.36,4.35-13.05,4.5"/><ellipse class="cls-32" cx="1192.14" cy="634.45" rx="207.86" ry="21.88"/><path class="cls-33" d="M49.16,642.74c25.44.94,53.38-4.95,69.45-24.52-21.46.29-54.42,15.59-77,5C17.29,611.71,0,613.87,0,613.87V640C20.31,642.64,42.3,642.48,49.16,642.74Z"/><path class="cls-33" d="M389,619.76a6,6,0,0,0-.6-1.92c-13.28,3.51-27.24,8.08-53.34,9.1-41,1.59-49.82-10.91-67.54-6.61s-22.14-5.73-62,0c-3.07.44-6,.81-8.86,1.13-.42,3.47,1.77,7.37,4.94,9.26,4.13,2.45,9.21,2.44,14,2.36l69.9-1.17a22.27,22.27,0,0,1,0,10.67,7.17,7.17,0,0,0,8.81,8.57L383.18,628A7.65,7.65,0,0,0,389,619.76Z"/><path class="cls-33" d="M700.72,680.54c43.23,0,79.94,7.81,114.65,18.69-92.88-33-194.27-42.14-291.45-25.41-63.88,11-125.54,32.73-189.44,43.61A563.17,563.17,0,0,1,228,725.22,577.22,577.22,0,0,1,39.19,689.15C28.81,685.29,14.45,676.54,0,669.74v10.8s152.68,85,313,85C475.91,765.54,498.16,680.54,700.72,680.54Z"/></g></g></g></svg>