<svg xmlns="http://www.w3.org/2000/svg" viewBox="0 0 672.24 114.41">
  <defs>
    <style>
      .cls-1 {
        fill: #ff3f09;
      }

      .cls-2 {
        fill: #ff9b02;
      }

      .cls-3 {
        fill: #454545;
      }

      .cls-4 {
        fill: #010101;
      }

      .cls-5 {
        fill: #fff;
      }
    </style>
  </defs>
  <title>Asset 1</title>
  <g id="Layer_2" data-name="Layer 2">
    <g id="Layer_2-2" data-name="Layer 2">
      <g>
        <path class="cls-1" d="M44.25,36.51a26.28,26.28,0,0,1,9.57,10.35A31.06,31.06,0,0,1,57.3,61.58a29.31,29.31,0,0,1-3.74,14.72,27.35,27.35,0,0,1-10.35,10.4,28.79,28.79,0,0,1-14.61,3.8A28.05,28.05,0,0,1,3.8,76.29,29,29,0,0,1,0,61.58V14.15a5.1,5.1,0,0,1,1.51-3.85A5.24,5.24,0,0,1,5.3,8.85a5.21,5.21,0,0,1,3.85,1.46,5.21,5.21,0,0,1,1.46,3.85V42.23a25.57,25.57,0,0,1,20.07-9.46A25.38,25.38,0,0,1,44.25,36.51ZM38,78.58a18.27,18.27,0,0,0,6.66-7,20.48,20.48,0,0,0,2.44-10,20.19,20.19,0,0,0-2.44-9.93,18.39,18.39,0,0,0-6.66-7,17.83,17.83,0,0,0-9.41-2.55,17.88,17.88,0,0,0-16,9.52,20.52,20.52,0,0,0-2.39,9.93,20.81,20.81,0,0,0,2.39,10,17.8,17.8,0,0,0,16,9.57A17.82,17.82,0,0,0,38,78.58Z"/>
        <path class="cls-1" d="M107.43,34.23q3.12,1.66,3.12,4.16a3.68,3.68,0,0,1-.1,1,4,4,0,0,1-4.16,3.33,8.64,8.64,0,0,1-1.56-.21A41.11,41.11,0,0,0,98,41.82q-7.49,0-12.06,3.43a11,11,0,0,0-4.58,9.26V84.87A5.33,5.33,0,0,1,80,88.72a5.17,5.17,0,0,1-3.9,1.35,5.32,5.32,0,0,1-3.85-1.3,5.17,5.17,0,0,1-1.35-3.9V38.39a4.71,4.71,0,0,1,5.2-5.2q5.2,0,5.2,5.2v2A22,22,0,0,1,89,34.64a23.35,23.35,0,0,1,9.78-2.08A18.55,18.55,0,0,1,107.43,34.23Z"/>
        <path class="cls-1" d="M155.43,36.57A28,28,0,0,1,165.72,47a29,29,0,0,1,3.8,14.72V84.87a5.3,5.3,0,1,1-10.61,0V81a26.18,26.18,0,0,1-33.64,5.72A26.26,26.26,0,0,1,115.7,76.4a31,31,0,0,1-3.48-14.72A29.31,29.31,0,0,1,116,47a27.36,27.36,0,0,1,10.35-10.4,28.8,28.8,0,0,1,14.61-3.8A28.24,28.24,0,0,1,155.43,36.57Zm-5.1,42a18,18,0,0,0,6.6-7,20.53,20.53,0,0,0,2.39-9.93,20.84,20.84,0,0,0-2.39-10,18.34,18.34,0,0,0-25.43-7,18.28,18.28,0,0,0-6.66,7,20.47,20.47,0,0,0-2.44,10,20.17,20.17,0,0,0,2.44,9.93,18.35,18.35,0,0,0,6.66,7,18.65,18.65,0,0,0,18.82,0Z"/>
        <path class="cls-1" d="M184.65,21.9a6.78,6.78,0,0,1,0-9.67,6.78,6.78,0,0,1,9.67,0,6.78,6.78,0,0,1,0,9.67,6.78,6.78,0,0,1-9.67,0Zm1,66.66a5.14,5.14,0,0,1-1.51-3.8V38.49a5.1,5.1,0,0,1,1.51-3.85,5.28,5.28,0,0,1,9.1,3.85V84.77a5.25,5.25,0,0,1-1.46,3.8,5.6,5.6,0,0,1-7.64,0Z"/>
        <path class="cls-1" d="M253.55,35.79a22,22,0,0,1,8.94,9.1,30,30,0,0,1,3.22,14.4V84.87a5.3,5.3,0,1,1-10.61,0V59.29q0-8.42-4.52-12.74t-12-4.32a17.76,17.76,0,0,0-8,1.77A14.12,14.12,0,0,0,225,48.79a11.85,11.85,0,0,0-2,6.76V84.87a5.25,5.25,0,0,1-1.46,3.8,5.33,5.33,0,0,1-9.15-3.8V38.49a5.1,5.1,0,0,1,1.51-3.85,5.28,5.28,0,0,1,9.1,3.85v1.14a23.12,23.12,0,0,1,7.9-5.15,26.22,26.22,0,0,1,9.78-1.82A26.49,26.49,0,0,1,253.55,35.79Z"/>
        <path class="cls-2" d="M402.79,34.54a5.21,5.21,0,0,1,1.46,3.85V84.77a5.25,5.25,0,0,1-1.46,3.8,5.33,5.33,0,0,1-9.15-3.8V83.63a23.09,23.09,0,0,1-7.9,5.15A26.2,26.2,0,0,1,376,90.59a26.48,26.48,0,0,1-12.9-3.12,22,22,0,0,1-8.94-9.1A30,30,0,0,1,350.89,64V38.39a5.3,5.3,0,1,1,10.61,0V64q0,8.42,4.52,12.74T378,81a17.74,17.74,0,0,0,8-1.77,14.09,14.09,0,0,0,5.62-4.78,11.84,11.84,0,0,0,2-6.76V38.39a5.1,5.1,0,0,1,1.51-3.85,5.74,5.74,0,0,1,7.64,0Z"/>
        <path class="cls-2" d="M462,35.79a22,22,0,0,1,8.94,9.1,30,30,0,0,1,3.22,14.4V84.87a5.3,5.3,0,1,1-10.61,0V59.29q0-8.42-4.52-12.74t-12-4.32A17.76,17.76,0,0,0,439,44a14.11,14.11,0,0,0-5.62,4.78,11.84,11.84,0,0,0-2,6.76V84.87a5.24,5.24,0,0,1-1.46,3.8,5.33,5.33,0,0,1-9.15-3.8V38.49a5.1,5.1,0,0,1,1.51-3.85,5.28,5.28,0,0,1,9.1,3.85v1.14a23.12,23.12,0,0,1,7.9-5.15,26.22,26.22,0,0,1,9.78-1.82A26.49,26.49,0,0,1,462,35.79Z"/>
        <path class="cls-2" d="M542.46,10.31a5.2,5.2,0,0,1,1.46,3.85V61.58a29,29,0,0,1-3.8,14.72,28.05,28.05,0,0,1-24.8,14.2,28.78,28.78,0,0,1-14.61-3.8,27.34,27.34,0,0,1-10.35-10.4,29.31,29.31,0,0,1-3.74-14.72,31,31,0,0,1,3.48-14.72,26.27,26.27,0,0,1,9.57-10.35,25.94,25.94,0,0,1,33.64,5.72V14.15a5.11,5.11,0,0,1,1.51-3.85,5.74,5.74,0,0,1,7.64,0ZM524.73,78.58a17.9,17.9,0,0,0,6.6-7,20.83,20.83,0,0,0,2.39-10,20.54,20.54,0,0,0-2.39-9.93,17.88,17.88,0,0,0-16-9.52,17.83,17.83,0,0,0-9.41,2.55,18.37,18.37,0,0,0-6.66,7,20.18,20.18,0,0,0-2.44,9.93,20.46,20.46,0,0,0,2.44,10,18.25,18.25,0,0,0,6.66,7,18.66,18.66,0,0,0,18.82,0Z"/>
        <path class="cls-2" d="M562,21.9a6.78,6.78,0,0,1,0-9.67,6.78,6.78,0,0,1,9.67,0,6.78,6.78,0,0,1,0,9.67,6.78,6.78,0,0,1-9.67,0Zm1,66.66a5.14,5.14,0,0,1-1.51-3.8V38.49A5.1,5.1,0,0,1,563,34.64a5.28,5.28,0,0,1,9.1,3.85V84.77a5.24,5.24,0,0,1-1.46,3.8,5.6,5.6,0,0,1-7.64,0Z"/>
        <path class="cls-2" d="M617.07,81.13a5.42,5.42,0,0,1,1.3,3.74,4.68,4.68,0,0,1-1.72,3.74,6.59,6.59,0,0,1-4.42,1.46h-1.87a17.12,17.12,0,0,1-9.31-2.65,18.47,18.47,0,0,1-6.6-7.23,21.87,21.87,0,0,1-2.39-10.3V44.21h-4.78A5,5,0,0,1,583.74,43a4.07,4.07,0,0,1-1.35-3.12,4.31,4.31,0,0,1,1.35-3.33,5,5,0,0,1,3.54-1.25h4.78v-15a5.2,5.2,0,1,1,10.4,0v15h8.84a5,5,0,0,1,3.54,1.25,4.32,4.32,0,0,1,1.35,3.33A4.07,4.07,0,0,1,614.84,43a5,5,0,0,1-3.54,1.25h-8.84V69.9a10.66,10.66,0,0,0,2.29,7,7,7,0,0,0,5.62,2.81h3.54A4.1,4.1,0,0,1,617.07,81.13Z"/>
        <path class="cls-2" d="M636.57,88.31a25.5,25.5,0,0,1-9.78-5.72,4.4,4.4,0,0,1-1.35-3.22,4.84,4.84,0,0,1,2.08-4.06,6.31,6.31,0,0,1,3.64-1.46,5.57,5.57,0,0,1,4,1.87,16,16,0,0,0,5.93,3.8,22.07,22.07,0,0,0,8.42,1.61q5.93,0,9.2-2a6,6,0,0,0,3.28-5.3,6.28,6.28,0,0,0-3.22-5.36q-3.23-2.13-10.92-3.59-20-3.85-20-16.43a12.85,12.85,0,0,1,3-8.63,18.34,18.34,0,0,1,7.9-5.3,30.35,30.35,0,0,1,10.4-1.77A31.86,31.86,0,0,1,661.27,35a20.72,20.72,0,0,1,8.48,6,5.29,5.29,0,0,1,1.35,3.33,4.17,4.17,0,0,1-1.77,3.22,4.82,4.82,0,0,1-2.91.83,7.1,7.1,0,0,1-4.89-2A15.57,15.57,0,0,0,656,43a22.18,22.18,0,0,0-7.07-1,16.82,16.82,0,0,0-7.85,1.61Q638,45.25,638,48.16a5.68,5.68,0,0,0,1,3.48,9.22,9.22,0,0,0,4,2.6,50.11,50.11,0,0,0,8.42,2.34q11.33,2.29,16.07,6.34a13.19,13.19,0,0,1,4.73,10.5,15.33,15.33,0,0,1-2.6,8.68A17.32,17.32,0,0,1,662,88.25a29.75,29.75,0,0,1-12.12,2.24A40,40,0,0,1,636.57,88.31Z"/>
        <g id="_Group_" data-name="&lt;Group&gt;">
          <path class="cls-2" d="M338.41,61.68a31.08,31.08,0,0,1-3.48,14.72,26.35,26.35,0,0,1-9.57,10.35,25.44,25.44,0,0,1-13.57,3.74c-.79,0-1.56,0-2.32-.1V32.78h.24a28.79,28.79,0,0,1,14.61,3.8A27.35,27.35,0,0,1,334.67,47,29.34,29.34,0,0,1,338.41,61.68Z"/>
          <path class="cls-3" d="M328.47,0c0,.07,0,1.12-.15,2.94q0,.28-.06.6c0,.09,0,.36-.08.82s-.09.7-.13,1.07-.1.72-.21,1.37c-.05.31-.1.63-.16,1v0q-.17.88-.36,1.8c0,.21-.1.42-.14.64l-.32,1.28-.18.66q-.18.64-.39,1.32c-.07.22-.15.44-.22.66,0,.07-.1.29-.23.67-2.46,6.89-7.2,13.82-16.37,15v-21l.28-.14.23-.11.49-.22.51-.22.43-.17A19.17,19.17,0,0,1,314,7.1l.21,0,.27-.06s-3,3-3,5a14.84,14.84,0,0,1,9-5C326.32,6,328.36.3,328.47,0Z"/>
          <path d="M328.26,3.54q0-.31.06-.6Q328.29,3.22,328.26,3.54Z"/>
          <path d="M328.18,4.36c0,.34-.08.7-.13,1.07C328.09,5.06,328.14,4.7,328.18,4.36Z"/>
          <path d="M327.84,6.8c0,.31-.1.62-.16,1C327.74,7.43,327.79,7.11,327.84,6.8Z"/>
          <path d="M327.32,9.58q.2-.91.36-1.8Q327.53,8.65,327.32,9.58Z"/>
          <path d="M327.18,10.22c0-.22.09-.43.14-.64C327.28,9.79,327.23,10,327.18,10.22Z"/>
          <path d="M326.68,12.16l.18-.66Q326.79,11.83,326.68,12.16Z"/>
          <path d="M326.29,13.48q.21-.68.39-1.32Q326.5,12.82,326.29,13.48Z"/>
          <path d="M326.07,14.14c.07-.22.15-.44.22-.66C326.22,13.7,326.15,13.92,326.07,14.14Z"/>
          <path d="M314.2,7.05l-.21,0Z"/>
          <path d="M311.41,7.92l-.43.17Z"/>
          <path d="M310.47,8.31l-.49.22Z"/>
          <path class="cls-4" d="M309.47,29.8c9.17-1.17,13.91-8.1,16.37-15-2.7,7.62-8.2,15.29-19.37,15.18-3.13,0-9-3-6-11a16.91,16.91,0,0,1,9-10.21Z"/>
          <path d="M309.75,8.64l-.28.14Z"/>
          <path class="cls-1" d="M309.47,81.12v9.27A25.53,25.53,0,0,1,291.71,81v28.08a5.4,5.4,0,0,1-9.09,3.84,5.08,5.08,0,0,1-1.51-3.84V61.68A29,29,0,0,1,284.9,47a28,28,0,0,1,24.57-14.19v9.36a17.76,17.76,0,0,0-15.78,9.56,20.76,20.76,0,0,0-2.39,10,20.43,20.43,0,0,0,2.39,9.93,18,18,0,0,0,6.6,7A17.74,17.74,0,0,0,309.47,81.12Z"/>
          <path class="cls-1" d="M309.47,42.14v39a17.74,17.74,0,0,1-9.18-2.54,18,18,0,0,1-6.6-7,20.43,20.43,0,0,1-2.39-9.93,20.76,20.76,0,0,1,2.39-10,17.76,17.76,0,0,1,15.78-9.56Z"/>
        </g>
        <g>
          <rect class="cls-5" x="297.47" y="44.99" width="24" height="4" rx="2" ry="2"/>
          <rect class="cls-5" x="297.47" y="51.99" width="24" height="4" rx="2" ry="2"/>
          <rect class="cls-5" x="297.47" y="58.99" width="24" height="4" rx="2" ry="2"/>
        </g>
      </g>
    </g>
  </g>
</svg>
