<svg xmlns="http://www.w3.org/2000/svg" viewBox="0 0 475.46 438.12"><defs><style>.cls-1{isolation:isolate;}.cls-2{mix-blend-mode:multiply;}.cls-11,.cls-17,.cls-3{fill:#fff;}.cls-10,.cls-11,.cls-12,.cls-13,.cls-14,.cls-15,.cls-16,.cls-17,.cls-18,.cls-19,.cls-20,.cls-21,.cls-22,.cls-23,.cls-24,.cls-25,.cls-26,.cls-27,.cls-28,.cls-29,.cls-3,.cls-30,.cls-31,.cls-35,.cls-37,.cls-38,.cls-39,.cls-4,.cls-40,.cls-42,.cls-43,.cls-44,.cls-45,.cls-46,.cls-5,.cls-6,.cls-7,.cls-8,.cls-9{stroke:#353535;}.cls-10,.cls-11,.cls-20,.cls-22,.cls-23,.cls-24,.cls-25,.cls-26,.cls-27,.cls-28,.cls-29,.cls-3,.cls-30,.cls-32,.cls-33,.cls-34,.cls-35,.cls-37,.cls-38,.cls-39,.cls-4,.cls-40,.cls-41,.cls-42,.cls-43,.cls-44,.cls-45,.cls-46,.cls-5,.cls-6,.cls-7,.cls-8,.cls-9{stroke-linecap:round;stroke-linejoin:round;}.cls-4{fill:#b0d6ed;}.cls-5{fill:#a4ddc5;}.cls-6{fill:#f2cb75;}.cls-7{fill:#bac5ce;}.cls-8{fill:#c5a9d8;}.cls-9{fill:#e0c2b1;}.cls-10{fill:#9e8475;}.cls-11{stroke-width:0.5px;}.cls-12{fill:#d6d6d6;}.cls-12,.cls-13,.cls-14,.cls-15,.cls-16,.cls-17,.cls-18,.cls-19,.cls-21,.cls-31{stroke-miterlimit:10;}.cls-13{fill:#c673bc;}.cls-14{fill:#9277af;}.cls-15{fill:#4f4f4f;}.cls-16{fill:#8fb8d1;}.cls-18{fill:#e5b561;}.cls-19{fill:#d6788c;}.cls-20{fill:#ef5076;}.cls-21{fill:#dbba9c;}.cls-22,.cls-32,.cls-33,.cls-34,.cls-41{fill:none;}.cls-23{fill:#afafaf;}.cls-24,.cls-40{fill:#e57c95;}.cls-25{fill:#b2d6cf;}.cls-26{fill:#ceb6a5;}.cls-27{fill:#87a4c1;}.cls-28{fill:#728ba0;}.cls-29{fill:#89aecc;}.cls-30{fill:#537da0;}.cls-31{fill:#4a7384;}.cls-32{stroke:#6f9fb2;}.cls-33{stroke:#d6ab4c;}.cls-34{stroke:#92d6a5;}.cls-35{fill:#bfeeff;}.cls-36{fill:#353535;}.cls-37{fill:#94ffdc;}.cls-38{fill:#e2e2e2;}.cls-39{fill:#548faf;}.cls-39,.cls-40,.cls-41{stroke-width:2px;}.cls-41{stroke:#f2c7d4;}.cls-42{fill:#83b6c4;}.cls-43{fill:#eaeeef;}.cls-44{fill:#d8aa39;}.cls-45{fill:#d4d5d6;}.cls-46{fill:#999898;}.cls-47{fill:#b4cad1;}</style></defs><title>Asset 2</title><g class="cls-1"><g id="Layer_2" data-name="Layer 2"><g id="Layer_2-2" data-name="Layer 2" class="cls-2"><rect class="cls-3" x="374.04" y="321.67" width="31.9" height="34.2" transform="translate(867.37 141.37) rotate(116.56)"/><rect class="cls-4" x="379.12" y="328.57" width="27.79" height="23.43" transform="translate(873.1 140.85) rotate(116.56)"/><polygon class="cls-5" points="388.75 322.61 394.9 334.44 390.15 337.68 396.48 349.97 376.32 347.47 388.75 322.61"/><circle class="cls-6" cx="401.93" cy="336.77" r="2.59" transform="translate(-79 545.74) rotate(-63.44)"/><rect class="cls-3" x="347.98" y="302.95" width="31.9" height="34.2" transform="translate(833.01 441.9) rotate(153.23)"/><rect class="cls-4" x="351.56" y="311.35" width="27.79" height="23.43" transform="translate(837.25 446.93) rotate(153.23)"/><polygon class="cls-5" points="372.59 306.35 370.46 319.51 364.71 319.27 362.45 332.91 347.77 318.87 372.59 306.35"/><circle class="cls-6" cx="374.7" cy="325.57" r="2.59" transform="translate(-106.48 203.64) rotate(-26.77)"/><rect class="cls-4" x="310.98" y="261.55" width="66.8" height="44.41" rx="6.16" ry="6.16" transform="translate(783.7 205.54) rotate(130.42)"/><circle class="cls-3" cx="342.45" cy="286.02" r="15.84" transform="translate(-97.34 361.29) rotate(-49.58)"/><circle class="cls-7" cx="342.45" cy="286.02" r="11.97" transform="translate(-97.34 361.29) rotate(-49.58)"/><circle class="cls-7" cx="338.51" cy="315.27" r="2.69" transform="translate(-120.99 368.58) rotate(-49.58)"/><rect class="cls-7" x="366.2" y="273.24" width="11.64" height="5.38" rx="1.71" ry="1.71" transform="translate(823.3 171.6) rotate(130.42)"/><polygon class="cls-7" points="366.64 291.86 377.45 279.17 379.22 283.38 371.08 292.94 366.64 291.86"/><rect class="cls-4" x="371.3" y="287.77" width="9.37" height="2.19" transform="translate(839.69 189.92) rotate(130.42)"/><path class="cls-8" d="M318.42,280.66h10.2a0,0,0,0,1,0,0v91.13a2.75,2.75,0,0,1-2.75,2.75h-4.71a2.75,2.75,0,0,1-2.75-2.75V280.66a0,0,0,0,1,0,0Z" transform="translate(776.33 410.95) rotate(145.07)"/><rect class="cls-3" x="294.52" y="292.87" width="10.2" height="1.01" transform="translate(713.24 362.35) rotate(145.07)"/><rect class="cls-3" x="334.53" y="350.16" width="10.2" height="1.01" transform="translate(818.87 443.71) rotate(145.07)"/><path class="cls-3" d="M343.49,354.85h6.75a0,0,0,0,1,0,0v9a3.38,3.38,0,0,1-3.38,3.38h0a3.38,3.38,0,0,1-3.38-3.38v-9A0,0,0,0,1,343.49,354.85Z" transform="translate(837.95 458.42) rotate(145.07)"/><ellipse class="cls-3" cx="331.82" cy="339.48" rx="2.77" ry="3.8" transform="translate(-134.6 251.14) rotate(-34.93)"/><ellipse class="cls-3" cx="322.12" cy="325.6" rx="2.77" ry="3.8" transform="translate(-128.4 243.09) rotate(-34.93)"/><ellipse class="cls-3" cx="312.42" cy="311.71" rx="2.77" ry="3.8" transform="translate(-122.19 235.03) rotate(-34.93)"/><polygon class="cls-6" points="299.13 299.19 306.94 295.09 305.45 303.79 311.77 309.94 303.04 311.21 299.13 319.13 295.23 311.21 286.5 309.94 292.81 303.79 291.32 295.09 299.13 299.19"/><polygon class="cls-9" points="400.59 236.54 402.03 225.87 466.11 236.02 465.06 243.78 400.59 236.54"/><rect class="cls-10" x="458.48" y="230.69" width="13.76" height="18.35" rx="3.24" ry="3.24" transform="translate(765.39 -189.17) rotate(97.7)"/><path class="cls-9" d="M373,250.35s9-4.67,17.34,0a11.72,11.72,0,0,0,1.63,1.08h0a10.39,10.39,0,0,0,3.56,1.17c8.14,1.1,16.05-7.77,17.68-19.82s-3.65-22.7-11.79-23.8a10.39,10.39,0,0,0-3.74.18h0a12,12,0,0,0-2.52.9c-3.87,1.07-11.32,1.88-15.93-5.72-2.92-4.63-7-7.72-11.84-8.38-11.22-1.52-22.14,10.72-24.39,27.33s5,31.31,16.26,32.83C364.12,256.81,369,254,373,250.35Z"/><circle class="cls-10" cx="377.99" cy="228.06" r="8.52" transform="translate(101.36 572.09) rotate(-82.3)"/><rect class="cls-10" x="348.83" y="222.82" width="20.08" height="5.3" transform="matrix(-0.13, 0.99, -0.99, -0.13, 630.37, -99.96)"/><circle class="cls-3" cx="469.97" cy="243.13" r="1.48" transform="matrix(0.13, -0.99, 0.99, 0.13, 166.09, 676.3)"/><circle class="cls-3" cx="470.67" cy="237.95" r="1.48" transform="translate(171.83 672.51) rotate(-82.3)"/><circle class="cls-3" cx="464.93" cy="242.45" r="1.48" transform="translate(162.4 670.72) rotate(-82.3)"/><circle class="cls-3" cx="465.63" cy="237.26" r="1.48" transform="translate(168.14 666.92) rotate(-82.3)"/><circle class="cls-3" cx="459.89" cy="241.76" r="1.48" transform="matrix(0.13, -0.99, 0.99, 0.13, 158.71, 665.13)"/><circle class="cls-3" cx="460.59" cy="236.58" r="1.48" transform="translate(164.45 661.34) rotate(-82.3)"/><line class="cls-11" x1="460.09" y1="240.3" x2="357.95" y2="232.29"/><line class="cls-11" x1="460.39" y1="238.04" x2="359.79" y2="218.66"/><line class="cls-11" x1="465.13" y1="240.98" x2="358.33" y2="229.45"/><line class="cls-11" x1="465.44" y1="238.73" x2="359.4" y2="221.5"/><line class="cls-11" x1="470.17" y1="241.67" x2="358.66" y2="226.99"/><line class="cls-11" x1="470.48" y1="239.41" x2="359.02" y2="224.34"/><circle class="cls-11" cx="357.95" cy="232.29" r="0.9" transform="translate(79.81 555.9) rotate(-82.3)"/><circle class="cls-11" cx="358.33" cy="229.45" r="0.9" transform="translate(82.96 553.82) rotate(-82.3)"/><circle class="cls-11" cx="358.66" cy="226.99" r="0.9" transform="translate(85.68 552.02) rotate(-82.3)"/><circle class="cls-11" cx="359.02" cy="224.34" r="0.9" transform="translate(88.61 550.08) rotate(-82.3)"/><circle class="cls-11" cx="359.38" cy="221.67" r="0.9" transform="translate(91.58 548.12) rotate(-82.3)"/><circle class="cls-11" cx="359.79" cy="218.66" r="0.9" transform="translate(94.91 545.92) rotate(-82.3)"/><path class="cls-12" d="M413.16,200.26c6-5.86,9.56-16.75-.82-25.23s-13.48,3.32-20.25-4.49c-6.62-7.63,5.28-9.29-1.64-20.77s-18.22-9.46-24.87-4.39c-10.37,7.9-17.43,30-1,48.94S403.87,209.4,413.16,200.26Z"/><path class="cls-13" d="M407.32,188.08c-1.59,1.16-2.08,3.27-3.36,4.76s-3,2.2-3.8,3.8a3.51,3.51,0,0,0,1.28,4.39,5.78,5.78,0,0,0,4.95.3,14.37,14.37,0,0,0,4.53-2.84,8.33,8.33,0,0,0,2.74-3.56C414.66,191.7,411.4,185.1,407.32,188.08Z"/><path class="cls-14" d="M387.06,191.78a7,7,0,0,0-1.82,5.21,7.92,7.92,0,0,0,2.15,4.77,3.85,3.85,0,0,0,1.69,1.17,4.33,4.33,0,0,0,2.77-.32C401.91,198.52,393.39,185,387.06,191.78Z"/><path class="cls-15" d="M376.54,187.88a3.37,3.37,0,0,0-3.29-1.71,4,4,0,0,0-3.19,2.45,5.27,5.27,0,0,0,.24,3.64,4.48,4.48,0,0,0,1.51,2.28,3.09,3.09,0,0,0,3.09.11C377.06,193.52,377.48,189.65,376.54,187.88Z"/><path class="cls-16" d="M368,177.49a3.3,3.3,0,0,0-4.07.27,3.81,3.81,0,0,0-.66,3.65,3.21,3.21,0,0,0,2,2.44,3.41,3.41,0,0,0,2.89-.76C370.71,181.11,370.46,179.11,368,177.49Z"/><path class="cls-17" d="M360.32,167.08a6,6,0,0,0,1.35,3.52,4.29,4.29,0,0,0,2.34,1.81,4.53,4.53,0,0,0,3.42-.87c3.1-2.08,4.48-7.45.91-9.23C365.3,160.79,360.32,163.43,360.32,167.08Z"/><path class="cls-18" d="M379.3,147.77a3.64,3.64,0,0,0-3.62-1,6.15,6.15,0,0,0-4.33,3.87,5.21,5.21,0,0,0,1.06,5.28,2.59,2.59,0,0,0,2.06.91,3.65,3.65,0,0,0,1.79-.86C378.68,154.11,381.49,150.52,379.3,147.77Z"/><path class="cls-5" d="M379.38,158.8a4.87,4.87,0,0,0-3.09,5.53c.3,1,1,2.06.6,3.13s-1.88,1.55-2.42,2.59c-.67,1.29.42,2.72,1.75,3.09a5.84,5.84,0,0,0,5.35-1.69C384.73,168.39,386.75,156.23,379.38,158.8Z"/><path class="cls-19" d="M389,177.33a12.19,12.19,0,0,1,6.09-.21,8.13,8.13,0,0,1,3.9,1.69,4,4,0,0,1,1.34,3.87,3.44,3.44,0,0,1-3.31,2.65c-1.72-.15-2.83-2-4.58-1.93-1.12.07-2.08.93-3.15,1.35-2.22.87-5.07-.51-5-2.95C384.27,179.63,387.15,177.93,389,177.33Z"/><path class="cls-20" d="M389.29,137.33h0a6.85,6.85,0,0,0,.09-9.69l-.36-.37.37-.36a6.85,6.85,0,1,0-9.6-9.78l-.37.36-9.78,9.6,9.6,9.78.36.37A6.85,6.85,0,0,0,389.29,137.33Z"/><path class="cls-21" d="M369.49,124.8q11.09-6.48,22.07-13.17T413.3,97.89a1.17,1.17,0,0,0-1.17-2q-11.47,5.83-22.73,12T367,120.47c-14.85,8.54-29.62,17.22-44.1,26.4a1.75,1.75,0,0,0,1.75,3C339.81,141.91,354.69,133.42,369.49,124.8Z"/><ellipse class="cls-22" cx="414.21" cy="96.02" rx="0.62" ry="1.28" transform="translate(7.64 220.47) rotate(-30.07)"/><ellipse class="cls-22" cx="415.28" cy="95.4" rx="0.62" ry="1.28" transform="translate(8.09 220.93) rotate(-30.07)"/><ellipse class="cls-22" cx="416.35" cy="94.78" rx="0.62" ry="1.28" transform="translate(8.55 221.38) rotate(-30.07)"/><path class="cls-23" d="M416.56,93.9s-.73-3.3,1.63-4.9,11.24-.79,14.41-3.63c0,0-6.39,12.16-15.47,9.68A2.69,2.69,0,0,0,416.56,93.9Z"/><path class="cls-21" d="M392.55,157.21q14-3.72,27.92-7.69t27.74-8.4a1.32,1.32,0,0,0-.66-2.54q-14.21,2.89-28.3,6.24t-28.11,6.95c-18.69,4.83-37.34,9.82-55.82,15.46a2,2,0,0,0,1,3.81C355.18,166.9,373.89,162.14,392.55,157.21Z"/><ellipse class="cls-22" cx="449.75" cy="139.35" rx="0.7" ry="1.44" transform="matrix(0.97, -0.25, 0.25, 0.97, -20.62, 118.23)"/><ellipse class="cls-22" cx="451.1" cy="139" rx="0.7" ry="1.44" transform="translate(-20.49 118.56) rotate(-14.64)"/><ellipse class="cls-22" cx="452.45" cy="138.65" rx="0.7" ry="1.44" transform="translate(-20.35 118.89) rotate(-14.64)"/><path class="cls-23" d="M452.94,137.76s.2-3.8,3.24-4.84,12.44,2.51,16.74.38c0,0-10.59,11.29-19.71,5.88A3,3,0,0,0,452.94,137.76Z"/><path class="cls-6" d="M335.93,86.9s-9-20.11,3.4-30.42,16.65,5.63,25.34-1S359.33,45.21,370,37.61s12.6,5.48,17.12,2.86.24-7.85,5.71-10.94,10.23,6.24,13.56-5.68c0,0,4,10.91-9.28,9.49-7.5,2-.71,8.38-6.9,10.65-9.51,5.29-11.15-5.26-15.8-2.25s6.19,14.32-5.77,20.44-15.76-5.38-23.85,1c0,0-5.47,6.17,1,20.17,0,0,2.38,5.2-.24,12.81Z"/><path class="cls-24" d="M253.61,292s-17.29,13.65-11.09,28.52,17.37,2.73,22,12.66-9.48,6.6-3.52,18.3,13.71,1,16.5,5.4-3.43,7.06,0,12.34,12-.78,9.38,11.32c0,0,8.64-7.79-3.82-12.71-5.73-5.23,3.25-7.75-1.17-12.63-6-9.1-12.32-.51-15-5.34s12.12-9.82,4.36-20.78-16.46-2.54-20.68-11.91c0,0-2-8,10.2-17.43,0,0,4.52-3.5,5.73-11.46Z"/><path class="cls-25" d="M283.72,340s12.42-3.37,17,5-4.92,9.36-2,15.18,6.4-2.17,9.66,4.94-4.42,7-3.39,9.91,4.46.91,5.67,4.47-4.61,5.47,1.86,8.62c0,0-6.65,1.33-4.48-6.45-.37-4.66-4.72-1.25-5.38-5.15-2.05-6.18,4.15-6.12,2.9-9.18s-8.82,2.27-11.1-5.44,4.69-8.85,1.89-14.29c0,0-3-3.86-11.63-1.42a10.27,10.27,0,0,1-7.3-1.4Z"/><path class="cls-25" d="M354.56,93.29s1.66-17,12.74-20.64,8,9,15.62,6.8.39-8.88,9.5-11.11,5.66,7.65,9.3,7.13,2.9-5.52,7.28-6.09,4,7.48,10.16,0c0,0-1.4,9-8.92,4-5.21-.82-3.38,5.75-7.9,5.53-7.59.93-4.86-7.06-8.72-6.3s-1.31,12-10.66,12.83-7.6-8.52-14.7-6.41c0,0-5.46,2.77-6.52,14.64,0,0-.4,4.41-4.65,9Z"/><path class="cls-20" d="M364.42,105.12h0a14.2,14.2,0,0,0-16.61-11.3l-1,.2-.2-1a14.2,14.2,0,1,0-27.91,5.3l.2,1,5.3,27.91,27.91-5.3,1-.2A14.2,14.2,0,0,0,364.42,105.12Z"/><path class="cls-20" d="M382.46,87.18h0a5.08,5.08,0,0,0-5.94-4l-.38.07-.07-.38a5.08,5.08,0,1,0-10,1.9l.07.38,1.9,10,10-1.9.38-.07A5.08,5.08,0,0,0,382.46,87.18Z"/><path class="cls-20" d="M376.49,109.2h0a2.41,2.41,0,0,0-2.82-1.92l-.18,0,0-.18a2.41,2.41,0,0,0-4.74.9l0,.18.9,4.74,4.74-.9.18,0A2.41,2.41,0,0,0,376.49,109.2Z"/><path class="cls-26" d="M307.06,25.54c-6.81-2.55-12-6.94-14-11.39l-6.2,24.23a14.51,14.51,0,0,0,9,17.18h0a14.51,14.51,0,0,0,18-7.09L325.1,26.12C320.64,28.14,313.87,28.08,307.06,25.54Zm-14,3.25a7.51,7.51,0,0,0,8.06-.07C297.45,38,293.08,28.79,293.08,28.79Zm.24,16s8.09-3.48,11.46,4.28C304.79,49.1,299.13,44.72,293.33,44.81Zm16.11-13a7.51,7.51,0,0,0,6,5.34S306.16,41.23,309.44,31.82Z"/><path class="cls-26" d="M320.32,55.4c-5.46-3.5-9.12-8.29-10.07-12.55l-9.94,20a12.93,12.93,0,0,0,4.6,16.66h0A12.93,12.93,0,0,0,322,76.67l14-17.39C331.67,60.21,325.78,58.89,320.32,55.4Zm-11.51,1.28s4.41-5.06,5.25,2C314.07,58.72,311.91,55.78,308.81,56.68ZM305.15,69s3.46,6.39,8.7,5.57C313.86,74.53,306.34,79.44,305.15,69Zm14.77-6.49c6.8-2.21,4.05,3.92,4.05,3.92C323.49,63.19,319.92,62.46,319.92,62.46Z"/><rect class="cls-27" x="64.29" y="60.01" width="44.91" height="106.13" transform="translate(-54.08 135.01) rotate(-61.36)"/><rect class="cls-28" x="101.04" y="45.84" width="34.34" height="77.98" transform="translate(-12.9 147.92) rotate(-61.36)"/><line class="cls-3" x1="38.72" y1="112.44" x2="60.25" y2="73.02"/><line class="cls-3" x1="47.43" y1="117.19" x2="68.96" y2="77.78"/><line class="cls-3" x1="56.15" y1="121.95" x2="77.67" y2="82.54"/><line class="cls-3" x1="64.86" y1="126.71" x2="86.38" y2="87.3"/><line class="cls-3" x1="73.57" y1="131.47" x2="95.1" y2="92.06"/><line class="cls-3" x1="82.29" y1="136.23" x2="103.81" y2="96.81"/><line class="cls-3" x1="91" y1="140.99" x2="112.52" y2="101.57"/><line class="cls-3" x1="99.71" y1="145.74" x2="121.24" y2="106.33"/><line class="cls-3" x1="108.42" y1="150.5" x2="129.95" y2="111.09"/><rect class="cls-29" x="27.79" y="90.03" width="13.8" height="4.96" transform="translate(-63.13 78.62) rotate(-61.36)"/><rect class="cls-28" x="35.49" y="79.75" width="13.8" height="2.48" transform="translate(-49.01 79.38) rotate(-61.36)"/><rect class="cls-29" x="71.11" y="68.56" width="13.8" height="4.96" transform="translate(-21.72 105.46) rotate(-61.36)"/><rect class="cls-30" x="78.82" y="58.28" width="13.8" height="2.48" transform="translate(-7.6 106.22) rotate(-61.36)"/><line class="cls-3" x1="81.51" y1="84.35" x2="97.93" y2="54.27"/><line class="cls-3" x1="89.75" y1="88.85" x2="106.18" y2="58.78"/><line class="cls-3" x1="98" y1="93.36" x2="114.43" y2="63.28"/><line class="cls-3" x1="106.25" y1="97.86" x2="122.67" y2="67.79"/><line class="cls-3" x1="114.49" y1="102.36" x2="130.92" y2="72.29"/><line class="cls-3" x1="122.74" y1="106.87" x2="139.17" y2="76.79"/><line class="cls-3" x1="130.99" y1="111.37" x2="147.41" y2="81.3"/><line class="cls-3" x1="139.23" y1="115.87" x2="155.66" y2="85.8"/><rect class="cls-31" x="95.91" y="258.3" width="3.12" height="6.86" transform="translate(-100.46 458.76) rotate(-114.44)"/><path class="cls-27" d="M67.09,275.54a15.58,15.58,0,1,0,7.74-20.64A15.58,15.58,0,0,0,67.09,275.54ZM90.31,265a9.92,9.92,0,1,1-13.14-4.93A9.92,9.92,0,0,1,90.31,265Z"/><rect class="cls-27" x="108.87" y="241.97" width="7.06" height="25.95" rx="2.32" ry="2.32" transform="translate(-73.17 462.76) rotate(-114.44)"/><line class="cls-32" x1="26.93" y1="214.33" x2="28.33" y2="188.61"/><line class="cls-33" x1="10.86" y1="212.88" x2="12.27" y2="187.16"/><line class="cls-34" x1="44.21" y1="220.47" x2="46.11" y2="185.65"/><line class="cls-33" x1="36.35" y1="221.76" x2="38.46" y2="182.95"/><line class="cls-34" x1="75.92" y1="218.77" x2="77.32" y2="193.05"/><line class="cls-32" x1="59.14" y1="221.82" x2="61.04" y2="187"/><line class="cls-33" x1="66.79" y1="224.52" x2="68.9" y2="185.71"/><line class="cls-32" x1="3.16" y1="218.76" x2="5.28" y2="179.95"/><line class="cls-32" x1="87.3" y1="217.88" x2="88.49" y2="195.98"/><line class="cls-33" x1="96.93" y1="228.25" x2="99.16" y2="187.45"/><line class="cls-34" x1="105.99" y1="222.68" x2="107.49" y2="195.21"/><line class="cls-22" x1="119.95" y1="223.33" x2="121.42" y2="196.47"/><line class="cls-22" x1="125.36" y1="229.82" x2="127.48" y2="191.02"/><path class="cls-22" d="M.5,219.52c13.76,1.25,24-38.83,39.73-37.4s9.22,41.84,25,43.26,20.51-39.15,34-37.93S115,229.88,129,231.15"/><path class="cls-22" d="M2.73,178.72C16.49,180,22.27,221.49,38,222.91s13.67-39.76,29.41-38.34S83.47,227,96.93,228.25s20.27-39.17,34.29-37.9"/><polygon class="cls-35" points="421.76 118.19 414.48 118.31 339.33 151.56 341.63 156.77 416.79 123.51 421.76 118.19"/><polygon class="cls-36" points="421.76 118.19 418.42 118.25 419.48 120.63 421.76 118.19"/><line class="cls-22" x1="414.48" y1="118.3" x2="415.93" y2="121.58"/><line class="cls-22" x1="346.3" y1="148.48" x2="347.75" y2="151.75"/><polygon class="cls-37" points="428.22 169.34 421.11 167.81 340.42 183.42 341.5 189 422.19 173.4 428.22 169.34"/><polygon class="cls-36" points="428.22 169.34 424.96 168.64 425.45 171.2 428.22 169.34"/><line class="cls-22" x1="421.11" y1="167.82" x2="421.79" y2="171.33"/><line class="cls-22" x1="347.9" y1="181.97" x2="348.58" y2="185.48"/><rect class="cls-38" x="19.86" y="151.77" width="126.08" height="19.36" transform="matrix(0.99, 0.14, -0.14, 0.99, 23.48, -10.04)"/><line class="cls-22" x1="23.32" y1="162.78" x2="24.9" y2="151.58"/><line class="cls-22" x1="39.77" y1="165.11" x2="41.36" y2="153.92"/><line class="cls-22" x1="56.23" y1="167.44" x2="57.82" y2="156.25"/><line class="cls-22" x1="72.69" y1="169.78" x2="74.27" y2="158.58"/><line class="cls-22" x1="89.14" y1="172.11" x2="90.73" y2="160.92"/><line class="cls-22" x1="105.6" y1="174.44" x2="107.19" y2="163.25"/><line class="cls-22" x1="122.06" y1="176.78" x2="123.65" y2="165.58"/><line class="cls-22" x1="138.52" y1="179.11" x2="140.1" y2="167.91"/><line class="cls-22" x1="26.51" y1="163.23" x2="27.44" y2="156.62"/><line class="cls-22" x1="29.5" y1="163.65" x2="30.44" y2="157.05"/><line class="cls-22" x1="32.49" y1="164.08" x2="33.43" y2="157.47"/><line class="cls-22" x1="35.48" y1="164.5" x2="36.42" y2="157.89"/><line class="cls-22" x1="44.45" y1="165.77" x2="45.39" y2="159.17"/><line class="cls-22" x1="47.45" y1="166.2" x2="48.38" y2="159.59"/><line class="cls-22" x1="50.44" y1="166.62" x2="51.37" y2="160.01"/><line class="cls-22" x1="53.43" y1="167.05" x2="54.36" y2="160.44"/><line class="cls-22" x1="56.42" y1="167.47" x2="57.36" y2="160.86"/><line class="cls-22" x1="59.41" y1="167.89" x2="60.35" y2="161.29"/><line class="cls-22" x1="62.4" y1="168.32" x2="63.34" y2="161.71"/><line class="cls-22" x1="65.39" y1="168.74" x2="66.33" y2="162.14"/><line class="cls-22" x1="68.38" y1="169.17" x2="69.32" y2="162.56"/><line class="cls-22" x1="77.36" y1="170.44" x2="78.29" y2="163.83"/><line class="cls-22" x1="80.35" y1="170.86" x2="81.28" y2="164.26"/><line class="cls-22" x1="83.34" y1="171.29" x2="84.28" y2="164.68"/><line class="cls-22" x1="86.33" y1="171.71" x2="87.27" y2="165.1"/><line class="cls-22" x1="89.32" y1="172.13" x2="90.26" y2="165.53"/><line class="cls-22" x1="92.31" y1="172.56" x2="93.25" y2="165.95"/><line class="cls-22" x1="95.3" y1="172.98" x2="96.24" y2="166.38"/><line class="cls-22" x1="98.3" y1="173.41" x2="99.23" y2="166.8"/><line class="cls-22" x1="101.29" y1="173.83" x2="102.22" y2="167.22"/><line class="cls-22" x1="110.26" y1="175.1" x2="111.2" y2="168.5"/><line class="cls-22" x1="113.25" y1="175.53" x2="114.19" y2="168.92"/><line class="cls-22" x1="116.24" y1="175.95" x2="117.18" y2="169.34"/><line class="cls-22" x1="119.23" y1="176.37" x2="120.17" y2="169.77"/><line class="cls-22" x1="122.22" y1="176.8" x2="123.16" y2="170.19"/><line class="cls-22" x1="125.22" y1="177.22" x2="126.15" y2="170.62"/><line class="cls-22" x1="128.21" y1="177.65" x2="129.14" y2="171.04"/><line class="cls-22" x1="131.2" y1="178.07" x2="132.13" y2="171.46"/><line class="cls-22" x1="134.19" y1="178.49" x2="135.13" y2="171.89"/><path class="cls-39" d="M223.18,80.7s5.42-23.17-18.24-19.22c0,0-16.27-11.34-31.05,6.41,0,0-21.19-1-19.72,22.18,0,0-20.7,0-17.74,24.15,0,0-15.77,6.9-9.86,26.12,0,0-16.76,3.94-8.38,25.63,0,0-15,12.32-2.35,34,0,0-13.92,12.32.37,32,0,0-11.34,17.25,12.82,33.52,0,0,3,20.21,24.15,17.25,0,0,8.87,19.22,31.55,13.8,0,0,43.17,12.82,43.52-21.69,0,0,1.33-26.12-3.1-31.05,0,0,3.94-20.21-.49-29.57,0,0,3.94-25.14-1-30.56,0,0,6.9-23.66-.49-32,0,0,5.91-21.19.49-28.1,0,0,4.93-16.27,0-22.67C223.68,100.9,229.1,90.06,223.18,80.7Z"/><path class="cls-40" d="M238.67,80.7s-5.42-23.17,18.24-19.22c0,0,16.27-11.34,31.05,6.41,0,0,21.19-1,19.72,22.18,0,0,20.7,0,17.74,24.15,0,0,15.77,6.9,9.86,26.12,0,0,16.76,3.94,8.38,25.63,0,0,15,12.32,2.35,34,0,0,13.92,12.32-.37,32,0,0,11.34,17.25-12.82,33.52,0,0-3,20.21-24.15,17.25,0,0-8.87,19.22-31.55,13.8,0,0-43.17,12.82-43.52-21.69,0,0-1.33-26.12,3.1-31.05,0,0-3.94-20.21.49-29.57,0,0-3.94-25.14,1-30.56,0,0-6.9-23.66.49-32,0,0-5.91-21.19-.49-28.1,0,0-4.93-16.27,0-22.67C238.18,100.9,232.75,90.06,238.67,80.7Z"/><polyline class="cls-22" points="214.12 291.91 214.12 283.24 169.11 283.24 169.11 276.22 220.31 276.22 220.31 257.63 200.49 257.63 200.49 249.37 220.31 249.37"/><polyline class="cls-22" points="213.29 267.96 191.4 267.96 191.4 249.37 125.72 249.37 125.72 240.28 163.31 240.28 163.31 209.72 196.77 209.72 196.77 178.41 213.29 178.41 213.29 164.69 160.84 164.69 160.84 150.65 138.12 150.65 138.12 137.84 194.71 137.84 194.71 122.56 213.29 122.56 213.29 110.17 167.44 110.17 167.44 99.02 191.81 99.02 191.81 85.8 213.29 85.8 213.29 75.06 173.64 75.06"/><polyline class="cls-22" points="183.97 267.96 169.51 267.96 169.51 261.35 183.97 261.35 183.97 254.74 125.72 254.74"/><polyline class="cls-22" points="162.49 276.22 145.97 276.22 145.97 265.89 162.49 265.89"/><polyline class="cls-22" points="217.06 240.34 172.16 240.34 172.16 219.47 197.11 219.47 197.11 228.09 179.42 228.09 179.42 232.62 217.06 232.62"/><polyline class="cls-22" points="213.29 185 203.46 185 203.46 223.55 213.29 223.55 213.29 199.06 208.37 199.06 208.37 208.59"/><polyline class="cls-22" points="156.74 234.44 156.74 201.78 189.85 201.78 189.85 171.51 206.18 171.51"/><polyline class="cls-22" points="148.57 234.44 125.72 234.44 125.72 225.82 148.57 225.82 148.57 194.07 181.46 194.07 181.46 171.51 125.72 171.51 125.72 180.92 169.51 180.92 169.51 185 139.05 185 139.05 217.66 131.34 217.66 131.34 185 120.91 185 120.91 214.48"/><polyline class="cls-22" points="213.29 128.75 213.29 157.33 169.11 157.33 169.11 145.08 145.97 145.08"/><polyline class="cls-22" points="175.92 144.65 203.46 144.65 203.46 130.31"/><line class="cls-22" x1="175.92" y1="150.11" x2="203.46" y2="150.11"/><polyline class="cls-22" points="154.84 165.13 125.72 165.13 125.72 155.57 154.23 155.57 154.23 160.35 133.59 160.35"/><polyline class="cls-22" points="189.69 131.64 134.63 131.64 134.63 123.75 188.47 123.75"/><polyline class="cls-22" points="206.18 116.09 143.72 116.09 143.72 106.28 162.16 106.28"/><polyline class="cls-22" points="148.75 100.78 160.23 100.78 160.23 92.88 184.64 92.88 184.64 80.68 207.37 80.68"/><polyline class="cls-22" points="213.29 68.95 216.94 68.95 216.94 90.73 197.32 90.73 197.32 97.67 216.94 97.67 216.94 104.84 172.91 104.84"/><polyline class="cls-22" points="179.63 88.09 163.1 88.09 163.1 80.68 178.06 80.68"/><line class="cls-22" x1="207.37" y1="68.95" x2="182.48" y2="68.95"/><path class="cls-41" d="M253.72,63.14s3.6,11.89,21.85,8S299.27,84,297.52,90.57c-1.81,6.8-9.65,15.91-22.72,14.25C261,103.07,258.1,84.09,268.38,80c6.64-2.49,15.66-3.74,18,6.18,2.59,12.56-10.29,12-13,9.87-4.2-3.37-1.38-12,4.15-9.87"/><path class="cls-41" d="M285.4,133.72s.78,10.72,16.92,10.91,17.58,15.3,14.85,20.54a17.66,17.66,0,0,1-21.87,7.72c-11.3-4.09-10.17-20.66-.72-22.15,6.07-.84,13.93-.19,14,8.62-.19,11.09-11,8.21-12.84,5.86-2.91-3.64,1.1-10.38,5.37-7.54"/><path class="cls-41" d="M310.18,93s-.39,5.41-8.54,5.5-8.87,7.72-7.49,10.36a8.91,8.91,0,0,0,11,3.9c5.7-2.06,5.13-10.42.36-11.18-3.06-.43-7-.1-7.07,4.35.1,5.6,5.53,4.14,6.48,3,1.47-1.84-.56-5.24-2.71-3.8"/><path class="cls-41" d="M270.17,107.14s.47,6.43,10.15,6.55,10.55,9.18,8.91,12.33a10.6,10.6,0,0,1-13.12,4.63c-6.78-2.45-6.1-12.4-.43-13.29,3.64-.51,8.36-.12,8.4,5.17-.12,6.66-6.58,4.92-7.71,3.52-1.75-2.18.66-6.23,3.22-4.53"/><path class="cls-41" d="M321.82,141.8s.47,6.43,10.15,6.55,10.55,9.18,8.91,12.33a10.6,10.6,0,0,1-13.12,4.63c-6.78-2.45-6.1-12.4-.43-13.29,3.64-.51,8.36-.12,8.4,5.17-.12,6.66-6.58,4.92-7.71,3.52-1.75-2.18.66-6.23,3.22-4.53"/><path class="cls-41" d="M291.06,112.26s.47,6.43,10.15,6.55,10.55,9.18,8.91,12.33A10.6,10.6,0,0,1,297,135.76c-6.78-2.45-6.1-12.4-.43-13.29,3.64-.51,8.36-.12,8.4,5.17-.12,6.66-6.58,4.92-7.71,3.52-1.75-2.18.66-6.23,3.22-4.53"/><path class="cls-41" d="M241.81,109.49s.47,6.43,10.15,6.55,10.55,9.18,8.91,12.33A10.6,10.6,0,0,1,247.75,133c-6.78-2.45-6.1-12.4-.43-13.29,3.64-.51,8.36-.12,8.4,5.17-.12,6.66-6.58,4.92-7.71,3.52-1.75-2.18.66-6.23,3.22-4.53"/><path class="cls-41" d="M335.55,192.78s3.64-4.21-2.2-10.2-.84-12,2.09-13a9.15,9.15,0,0,1,10.84,5.18c2.64,5.64-3.84,11.29-7.85,8.38-2.53-1.92-5.17-5-2-8.29,4.13-4,7,1,6.85,2.56-.27,2.4-4.21,3.4-4.73.8"/><path class="cls-41" d="M245.72,93s4.18-3.68-.8-10.4.8-12,3.82-12.56a9.15,9.15,0,0,1,10,6.6c1.86,5.95-5.34,10.67-8.91,7.24-2.25-2.24-4.44-5.68-.83-8.48,4.64-3.4,6.82,2,6.44,3.46-.59,2.34-4.63,2.8-4.79.15"/><path class="cls-41" d="M312,112.26s.47,6.43,10.15,6.55S332.66,128,331,131.13a10.6,10.6,0,0,1-13.12,4.63c-6.78-2.45-6.1-12.4-.43-13.29,3.64-.51,8.36-.12,8.4,5.17-.12,6.66-6.58,4.92-7.71,3.52-1.75-2.18.66-6.23,3.22-4.53"/><path class="cls-41" d="M265.39,281.48s-5.54,3.3-11.19-4.57-13.57-3.38-15.21-.23a10.6,10.6,0,0,0,3.73,13.41c5.9,4.15,13.65-2.11,11.14-7.27-1.68-3.28-4.7-6.91-9.05-3.92-5.39,3.91-.26,8.22,1.53,8.33,2.79.18,4.72-4.11,1.86-5.24"/><path class="cls-41" d="M295,285.17s-5.54,3.3-11.19-4.57-13.57-3.38-15.21-.23a10.6,10.6,0,0,0,3.73,13.41c5.9,4.15,13.65-2.11,11.14-7.27-1.68-3.28-4.7-6.91-9.05-3.92-5.39,3.91-.26,8.22,1.53,8.33,2.79.18,4.72-4.11,1.86-5.24"/><path class="cls-41" d="M283,271.16s5.84-2.73,10.67,5.66,13.17,4.72,15.11,1.75a10.6,10.6,0,0,0-2.37-13.71c-5.46-4.72-13.8.73-11.81,6.12,1.34,3.43,4,7.35,8.62,4.8,5.75-3.35,1.08-8.15-.7-8.44-2.76-.46-5.11,3.62-2.37,5"/><path class="cls-41" d="M266.46,119s5.05,12.55-13.09,21.71-11.41,27-5.41,31.45c6.17,4.54,19,6.94,29-3.38,10.52-10.88.06-29-11.45-25.45-7.34,2.41-15.85,7.49-11.06,17.5,6.36,12.43,16.95,3.2,17.77-.48,1.27-5.73-7-11.13-10.25-5.55"/><path class="cls-41" d="M295,228s10.57,2.07,8.82,18.15,13.11,19.33,18.66,17.24a17.7,17.7,0,0,0,10.31-20.84c-2.71-11.74-19.33-12.6-22-3.38-1.57,5.94-1.87,13.83,6.89,15,11.06,1.14,9.48-9.93,7.38-12.07-3.27-3.33-10.46-.15-8.15,4.44"/><path class="cls-41" d="M252.86,89.21s3.23,4.32-2.82,9.7-1.63,11.59,1.13,12.67A8.87,8.87,0,0,0,262,107.32c2.94-5.27-2.95-11.17-7-8.63-2.58,1.68-5.34,4.51-2.47,7.88,3.72,4.14,6.86-.5,6.8-2-.1-2.34-3.84-3.57-4.52-1.09"/><path class="cls-41" d="M283,166.08s-4.71,13.86-24.23,18.92-20.46,24.34-15.28,33.51,18.42,5,18.42,5,12.86-6,4.63-17.27c0,0,1.07,8.7-7.29,6.82-8.52-1.92-7.64-15.5,15.52-24.69C283,185,287.21,176,283,166.08Z"/><path class="cls-41" d="M274.44,205.05s.7,9.31,5.55,16.89,2.26,28.7-20,29.72c0,0-7.28,0-8.79-5.16s2.43-3.88,4.85-3.88c0,0-9.85-8.85-12.81,1.46s.85,26.61,19.41,28.32,31.8-14.75,29.93-35.43C292.1,222.51,275.56,214.55,274.44,205.05Z"/><path class="cls-41" d="M270.19,197.61s-.27,9.15,4,15.88,2,25.48-17.76,26.38c0,0-6.46,0-7.81-4.58s2.15-7,4.31-7c0,0-8.74-4.31-11.37,4.84s.75,23.62,17.23,25.13,28.23-13.09,26.57-31.44C285,214,271.19,206,270.19,197.61Z"/><path class="cls-41" d="M289.27,179a46.23,46.23,0,0,1,3.65,15.25c.36,8.07,13.17,22.22,30,11.46,0,0,5.34-3.76,3.79-8.32s-3.79-1.6-5.56-.34c0,0,2.65-11.58,10.15-5.54s13.12,20,.39,30.8-30.95,5.61-40.25-10.53C284.33,200.91,293.35,186.53,289.27,179Z"/><path class="cls-41" d="M287.54,171.34s4.92,6.57,5.24,13.73,11.69,19.72,26.65,10.17c0,0,4.74-3.34,3.36-7.39s-5.19-4-6.77-2.91c0,0,4.19-7.67,10.84-2.32s11.65,17.71.34,27.33-27.47,5-35.73-9.34C285.15,191,291.16,178,287.54,171.34Z"/><polyline class="cls-22" points="157.23 75.85 145.97 67.8 147.02 60.81 138.71 53.6"/><polyline class="cls-22" points="140.46 73.27 145.97 76.76 149.78 70.53"/><polyline class="cls-22" points="142.09 56.54 136.53 64.72 119.26 55.56"/><polyline class="cls-22" points="110.74 34.37 125.72 49.45 123.67 57.91"/><polyline class="cls-22" points="122.1 37.86 125.72 41.14 122.1 45.8"/><polyline class="cls-22" points="97.63 41.83 110.74 47.04 117.17 40.84"/><polyline class="cls-22" points="89.76 21.69 100.91 25.41 99.38 34.37 109.77 39.17 112.81 36.45"/><circle class="cls-42" cx="87.67" cy="20.72" r="2.09"/><circle class="cls-42" cx="109.49" cy="32.52" r="2.09"/><circle class="cls-42" cx="120.32" cy="35.77" r="2.09"/><circle class="cls-42" cx="95.54" cy="40.76" r="2.09"/><circle class="cls-42" cx="137.31" cy="52.19" r="2.09"/><circle class="cls-42" cx="138.91" cy="71.82" r="2.09"/><circle class="cls-42" cx="117.17" cy="54.77" r="2.09"/><path class="cls-5" d="M162.32,56.86a12.07,12.07,0,0,1-10.72-8.95c-2.62-8.73,4.86-10.05,4.86-10.05l.22-3.25,1.77,2.46s4.36-2.53,7.73,2.1c0,0-.37,1.19,2.12,2.66,0,0-.75,3.3-3.86,1s-5.48,1.22-4.24,3,6.23,0,8.1,1.24a12.34,12.34,0,0,1,3.07,3.06l1.37-1.37,1.58,1.58L175.63,49l3.52,3.67L165.93,65.37l-2.83-3,1.33-1.12-1.33-1.11,2-1.63S164.73,57.31,162.32,56.86Z"/><line class="cls-22" x1="165.09" y1="56.39" x2="170.54" y2="51.28"/><line class="cls-22" x1="166.31" y1="60.14" x2="173.96" y2="52.49"/><path class="cls-5" d="M181.63,24.8a12.07,12.07,0,0,0-.31-14c-5.19-7.49-10.89-2.47-10.89-2.47l-2.68-1.85.82,2.92s-4.69,1.84-3.18,7.35c0,0,1.16.45.76,3.31,0,0,3,1.47,3.2-2.39s4.37-3.53,5-1.47-3.89,4.87-4.08,7.11a12.34,12.34,0,0,0,.48,4.31l-1.92.22L169,30.1l-1.84.21.68,5L186,32.93l-.58-4.08-1.71.34,0-1.73-2.52.54S180.48,27,181.63,24.8Z"/><line class="cls-22" x1="179.53" y1="26.68" x2="172.14" y2="27.75"/><line class="cls-22" x1="181.71" y1="29.97" x2="170.95" y2="31.18"/><path class="cls-5" d="M215.91,48.54s-6.36.75-6.86-.62a4.34,4.34,0,0,0,3.37-4c.25-3.38-5.48.72-5.86-16.72,0,0,3.49-3.11-.62-3.11,0,0,1.37-3.17-1-3.17s-1,3.17-1,3.17c-4.11,0-.62,3.11-.62,3.11-.37,17.44-6.11,13.35-5.86,16.72a4.34,4.34,0,0,0,3.37,4c-.5,1.37-6.86.62-6.86.62,0,2.24,3.37,2.74,3.37,2.74a3.27,3.27,0,0,0-2.42,3h20a3.27,3.27,0,0,0-2.42-3S215.91,50.78,215.91,48.54Z"/><path class="cls-43" d="M35.7,239.75l.64,3.47,2.6,14.1.64,3.47,3.88-.72h0A3.53,3.53,0,0,1,46.29,256l57.51-10.6a7.17,7.17,0,0,0,5.75-8.35h0a7.17,7.17,0,0,0-8.35-5.75l-57.51,10.6A3.53,3.53,0,0,1,39.58,239h0Z"/><path class="cls-5" d="M70,251.6l33.81-6.23a7.17,7.17,0,1,0-2.6-14.1L67.39,237.5Z"/><circle class="cls-3" cx="85.63" cy="239.42" r="1.52" transform="translate(-41.98 19.49) rotate(-10.44)"/><circle class="cls-3" cx="92.76" cy="242.55" r="1.52" transform="translate(-42.43 20.83) rotate(-10.44)"/><circle class="cls-3" cx="72.38" cy="245.42" r="1.52" transform="translate(-43.28 17.18) rotate(-10.44)"/><circle class="cls-5" cx="56.73" cy="243.91" r="1.52" transform="translate(-43.27 14.32) rotate(-10.44)"/><path class="cls-43" d="M121,338.25l2.26,1.5,9.16,6.1,2.26,1.5,1.68-2.52h0a2.71,2.71,0,0,1-.75-3.76l24.9-37.38a5.5,5.5,0,0,0-1.53-7.63h0a5.5,5.5,0,0,0-7.63,1.53L126.47,335a2.71,2.71,0,0,1-3.76.75h0Z"/><path class="cls-6" d="M145.89,325.67l14.64-22a5.5,5.5,0,1,0-9.16-6.1l-14.64,22Z"/><circle class="cls-3" cx="147.54" cy="310.54" r="1.17" transform="translate(-192.7 261.16) rotate(-56.33)"/><circle class="cls-3" cx="153.07" cy="308.28" r="1.17" transform="translate(-188.36 264.76) rotate(-56.33)"/><circle class="cls-3" cx="143.76" cy="321.05" r="1.17" transform="translate(-203.14 262.7) rotate(-56.33)"/><circle class="cls-44" cx="134.56" cy="328.87" r="1.17" transform="translate(-213.74 258.53) rotate(-56.33)"/><path class="cls-45" d="M135.45,290h-3.7a.4.4,0,0,1-.39-.31,14.72,14.72,0,0,0-1.82-4.39.4.4,0,0,1,.05-.49l2.61-2.62a.4.4,0,0,0,0-.57l-3.8-3.8a.4.4,0,0,0-.57,0l-2.61,2.62a.4.4,0,0,1-.49.05,14.72,14.72,0,0,0-4.39-1.82.4.4,0,0,1-.31-.39v-3.7a.4.4,0,0,0-.4-.4h-5.38a.4.4,0,0,0-.4.4v3.7a.4.4,0,0,1-.31.39,14.72,14.72,0,0,0-4.39,1.82.4.4,0,0,1-.49-.05l-2.61-2.62a.4.4,0,0,0-.57,0l-3.8,3.8a.4.4,0,0,0,0,.57l2.61,2.62a.4.4,0,0,1,.05.49,14.72,14.72,0,0,0-1.82,4.39.4.4,0,0,1-.39.31h-3.7a.4.4,0,0,0-.4.4v5.38a.4.4,0,0,0,.4.4h3.7a.4.4,0,0,1,.39.31,14.72,14.72,0,0,0,1.82,4.39.4.4,0,0,1-.05.49l-2.61,2.62a.4.4,0,0,0,0,.57l3.8,3.8a.4.4,0,0,0,.57,0l2.61-2.61a.4.4,0,0,1,.49-.05,14.72,14.72,0,0,0,4.39,1.82.4.4,0,0,1,.31.39v3.7a.4.4,0,0,0,.4.4h5.38a.4.4,0,0,0,.4-.4v-3.7a.4.4,0,0,1,.31-.39,14.72,14.72,0,0,0,4.39-1.82.4.4,0,0,1,.49.05l2.61,2.61a.4.4,0,0,0,.57,0l3.8-3.8a.4.4,0,0,0,0-.57l-2.61-2.62a.4.4,0,0,1-.05-.49,14.72,14.72,0,0,0,1.82-4.39.4.4,0,0,1,.39-.31h3.7a.4.4,0,0,0,.4-.4v-5.38A.4.4,0,0,0,135.45,290ZM117,302.19a9.14,9.14,0,1,1,9.14-9.14A9.14,9.14,0,0,1,117,302.19Z"/><polyline class="cls-22" points="179.75 297.42 176.58 310.54 169.51 309.37 163.95 330.04"/><circle class="cls-42" cx="163.49" cy="332.32" r="2.48"/><circle class="cls-42" cx="171.85" cy="367.9" r="2.48"/><circle class="cls-42" cx="181.95" cy="353.26" r="2.48"/><circle class="cls-42" cx="207.08" cy="342.45" r="2.48"/><circle class="cls-42" cx="216.77" cy="343.45" r="2.48"/><circle class="cls-42" cx="224.98" cy="327.7" r="2.48"/><circle class="cls-42" cx="193.21" cy="320.54" r="2.48"/><circle class="cls-42" cx="187.5" cy="323.53" r="2.48"/><circle class="cls-42" cx="187.5" cy="377.05" r="2.48"/><circle class="cls-42" cx="194.71" cy="392.54" r="2.48"/><polyline class="cls-22" points="184.74 296.58 181.41 315.33 173.89 315.33 167.71 341.65 176.23 343.26 171.85 366.62"/><polyline class="cls-22" points="177.65 315.33 176.23 332.32 181.95 332.32 181.95 350.78"/><polyline class="cls-22" points="181.95 342.45 189.47 343.8 187.59 374.95"/><polyline class="cls-22" points="188.5 359.88 193.23 359.88 194.71 390.79"/><polyline class="cls-22" points="199.5 298.86 199.5 304.89 194.71 305.76 193.21 318.11"/><polyline class="cls-22" points="194.38 308.49 188.5 309.45 187.5 321.05"/><polyline class="cls-22" points="202.75 298.91 202.75 318.57 207.08 321.05 207.08 339.34"/><polyline class="cls-22" points="213.29 297.42 213.29 303.38 220.31 303.38 223.98 325.67"/><polyline class="cls-22" points="221.49 310.54 213.29 313.73 216.18 340.86"/><rect class="cls-22" x="253.21" y="41.72" width="12.1" height="6.81" rx="1.53" ry="1.53"/><line class="cls-22" x1="253.21" y1="43.98" x2="265.31" y2="43.98"/><line class="cls-22" x1="253.21" y1="46.25" x2="265.31" y2="46.25"/><path class="cls-46" d="M253.85,48.65a5.41,5.41,0,0,0,10.81,0Z"/><path class="cls-6" d="M270.74,27.28h0a12.6,12.6,0,1,0-23,0h0l0,0a12.6,12.6,0,0,0,1.72,2.78c1.94,3.28,4.78,8.61,4.71,11.61h10s.24-3.87,4.92-11.89a12.57,12.57,0,0,0,1.51-2.48Z"/><path class="cls-22" d="M256.64,41.72l-4.77-19.8s3.52.3,4.85-1.3a8.64,8.64,0,0,0,5.18-.28s3.09,2.36,5.32,2.25l-4.79,19.13Z"/><line class="cls-22" x1="261.9" y1="20.34" x2="261.02" y2="41.74"/><line class="cls-22" x1="256.72" y1="20.61" x2="258.1" y2="41.72"/><path class="cls-22" d="M276.41,22.43h3.85"/><path class="cls-22" d="M275.24,15.5l4.3-2.69"/><path class="cls-22" d="M272.08,9.43l3.85-4.09"/><path class="cls-22" d="M265.78,5.59a8.23,8.23,0,0,1,.53-5.06"/><path class="cls-22" d="M257.29,5.06,256,.5"/><path class="cls-22" d="M251.38,7.5,249,4.37"/><path class="cls-22" d="M246.52,12.41l-4-1.85"/><path class="cls-22" d="M244.41,17.57l-6.26-1.2"/><path class="cls-22" d="M243.2,23.43l-5.3.42"/><polygon class="cls-6" points="301.68 330.27 305.8 328.1 305.01 332.69 308.35 335.94 303.74 336.61 301.68 340.78 299.62 336.61 295.01 335.94 298.35 332.69 297.56 328.1 301.68 330.27"/><polygon class="cls-6" points="282.99 323.43 285.54 322.1 285.05 324.93 287.11 326.94 284.26 327.35 282.99 329.93 281.72 327.35 278.87 326.94 280.93 324.93 280.44 322.1 282.99 323.43"/><polygon class="cls-6" points="267.53 305.7 270.08 304.36 269.59 307.19 271.65 309.2 268.8 309.62 267.53 312.19 266.26 309.62 263.41 309.2 265.47 307.19 264.99 304.36 267.53 305.7"/><polygon class="cls-6" points="284.65 303.04 288.67 300.93 287.9 305.4 291.15 308.56 286.66 309.22 284.65 313.29 282.64 309.22 278.15 308.56 281.4 305.4 280.63 300.93 284.65 303.04"/><ellipse class="cls-47" cx="237.73" cy="424.39" rx="231.74" ry="13.73"/></g></g></g></svg>