<?xml version="1.0" encoding="utf-8"?>
<!-- Generator: Adobe Illustrator 19.2.0, SVG Export Plug-In . SVG Version: 6.00 Build 0)  -->
<svg version="1.1" id="Layer_1" xmlns="http://www.w3.org/2000/svg" xmlns:xlink="http://www.w3.org/1999/xlink" x="0px" y="0px"
	 viewBox="0 0 512 512" style="enable-background:new 0 0 512 512;" xml:space="preserve">
<style type="text/css">
	.st0{fill:#DDDDDD;}
	.st1{fill:#FFFFFF;}
	.st2{fill:#EDEDED;}
	.st3{fill:#C7CFE2;}
</style>
<path class="st0" d="M268.5,386.6L256,512l-12.5-125.4c-0.5-4.7-0.7-9.4-0.7-14.1V256h26.5v116.5C269.2,377.2,269,381.9,268.5,386.6
	z"/>
<path class="st1" d="M326.6,26.5V8.8H185.4v17.7h8c5,0,9.1,4.2,8.8,9.2l-8,167.3h123.6l-8-167.3c-0.2-5,3.8-9.2,8.8-9.2
	C318.6,26.5,326.6,26.5,326.6,26.5z"/>
<g>
	<path class="st1" d="M335.4,26.5H176.6c-4.9,0-8.8-4-8.8-8.8V8.8c0-4.9,4-8.8,8.8-8.8h158.9c4.9,0,8.8,4,8.8,8.8v8.8
		C344.3,22.5,340.3,26.5,335.4,26.5z"/>
	<path class="st1" d="M194.2,203l-46.6,38.8c-4,3.4-6.4,8.3-6.4,13.6v9.4h229.5v-9.4c0-5.2-2.3-10.2-6.4-13.6L317.8,203H194.2
		L194.2,203z"/>
</g>
<path class="st2" d="M361.9,273.7H150.1c-4.9,0-8.8-4-8.8-8.8V256c0-4.9,4-8.8,8.8-8.8H362c4.9,0,8.8,4,8.8,8.8v8.8
	C370.8,269.7,366.8,273.7,361.9,273.7z"/>
<path class="st2" d="M238.3,203l1.3-167.3c0-9.9-5.7-10.5-5.7-18.1V8.8h-48.5v17.7h8c5,0,9.1,4.2,8.8,9.2l-8,167.3H238.3L238.3,203z
	"/>
<g>
	<path class="st2" d="M233.9,17.7V8.8c0-4.9,4.3-8.8,9.5-8.8h-66.9c-4.9,0-8.8,4-8.8,8.8v8.8c0,4.9,4,8.8,8.8,8.8h60.6
		C235.6,23.9,233.9,21.8,233.9,17.7z"/>
	<path class="st2" d="M230.6,241.9l7.7-38.8h-44.1l-46.6,38.8c-4,3.4-6.4,8.3-6.4,13.6v9.4h88.3c0,0,0-6.6,0-8.8
		C229.5,249.6,229.9,245.2,230.6,241.9z"/>
</g>
<path class="st2" d="M229.5,264.8c0,0,0-6.6,0-8.8c0-3.5,0.1-6.4,0.3-8.8H150c-4.9,0-8.8,4-8.8,8.8v8.8c0,4.9,4,8.8,8.8,8.8h89
	C233.8,273.7,229.5,269.7,229.5,264.8z"/>
<rect x="242.8" y="273.7" class="st3" width="26.5" height="17.7"/>
</svg>
