<?xml version="1.0" encoding="utf-8"?>
<!-- Generator: Adobe Illustrator 21.0.0, SVG Export Plug-In . SVG Version: 6.00 Build 0)  -->
<svg version="1.1" id="Layer_2" xmlns="http://www.w3.org/2000/svg" xmlns:xlink="http://www.w3.org/1999/xlink" x="0px" y="0px"
	 viewBox="0 0 1572.7 765" style="enable-background:new 0 0 1572.7 765;" xml:space="preserve">
<style type="text/css">
	.st0{fill:url(#SVGID_1_);}
	.st1{fill:url(#SVGID_2_);}
	.st2{fill:url(#SVGID_3_);}
	.st3{fill:url(#SVGID_4_);}
	.st4{fill:url(#SVGID_5_);}
	.st5{fill:url(#SVGID_6_);}
	.st6{fill:url(#SVGID_7_);}
	.st7{fill:#E2F3F7;}
	.st8{fill:#FFFFFF;}
	.st9{opacity:0.32;fill:#FCB7A2;}
	.st10{opacity:0.3;fill:#FCB7A2;}
	.st11{fill:#95DBA4;}
	.st12{opacity:0.5;fill:#FCB7A2;}
	.st13{fill:url(#SVGID_8_);}
	.st14{fill:#B4EFC0;}
	.st15{fill:#89CE97;}
	.st16{fill:#666666;stroke:#353535;stroke-width:2;stroke-miterlimit:10;}
	.st17{fill:none;stroke:#353535;stroke-width:2;stroke-linecap:round;stroke-linejoin:round;stroke-miterlimit:10;}
	.st18{fill:#FFFFFF;stroke:#353535;stroke-width:2;stroke-linecap:round;stroke-linejoin:round;stroke-miterlimit:10;}
	.st19{fill:#FFC2B6;stroke:#353535;stroke-width:2;stroke-miterlimit:10;}
	.st20{fill:#ED88A0;stroke:#353535;stroke-width:2;stroke-miterlimit:10;}
	.st21{fill:#8CA3E0;stroke:#353535;stroke-width:2;stroke-miterlimit:10;}
	.st22{fill:#754B58;stroke:#353535;stroke-width:2;stroke-linecap:round;stroke-linejoin:round;stroke-miterlimit:10;}
	.st23{fill:#FFC2B6;stroke:#353535;stroke-width:2;stroke-linecap:round;stroke-linejoin:round;stroke-miterlimit:10;}
	.st24{fill:#FFD0CA;stroke:#353535;stroke-width:2;stroke-linecap:round;stroke-linejoin:round;stroke-miterlimit:10;}
	.st25{fill:#E2E2E2;stroke:#353535;stroke-width:2;stroke-linecap:round;stroke-linejoin:round;stroke-miterlimit:10;}
	.st26{fill:#57627A;stroke:#353535;stroke-width:2;stroke-miterlimit:10;}
	.st27{fill:#7F8DA5;stroke:#353535;stroke-width:2;stroke-miterlimit:10;}
	.st28{fill:none;stroke:#353535;stroke-linecap:round;stroke-linejoin:round;stroke-miterlimit:10;}
	.st29{opacity:0.17;}
	.st30{opacity:0.46;fill:#FFFFFF;}
	.st31{fill:#FFFFFF;stroke:#353535;stroke-linecap:round;stroke-linejoin:round;stroke-miterlimit:10;}
	.st32{fill:#B0D6ED;stroke:#353535;stroke-linecap:round;stroke-linejoin:round;stroke-miterlimit:10;}
	.st33{fill:#A4DDC5;stroke:#353535;stroke-linecap:round;stroke-linejoin:round;stroke-miterlimit:10;}
	.st34{fill:#F2CB75;stroke:#353535;stroke-linecap:round;stroke-linejoin:round;stroke-miterlimit:10;}
	.st35{fill:#BAC5CE;stroke:#353535;stroke-linecap:round;stroke-linejoin:round;stroke-miterlimit:10;}
	.st36{fill:#C5A9D8;stroke:#353535;stroke-linecap:round;stroke-linejoin:round;stroke-miterlimit:10;}
	.st37{fill:#E0C2B1;stroke:#353535;stroke-linecap:round;stroke-linejoin:round;stroke-miterlimit:10;}
	.st38{fill:#9E8475;stroke:#353535;stroke-linecap:round;stroke-linejoin:round;stroke-miterlimit:10;}
	.st39{fill:#FFFFFF;stroke:#353535;stroke-width:0.5;stroke-linecap:round;stroke-linejoin:round;stroke-miterlimit:10;}
	.st40{fill:#D6D6D6;stroke:#353535;stroke-miterlimit:10;}
	.st41{fill:#C673BC;stroke:#353535;stroke-miterlimit:10;}
	.st42{fill:#9277AF;stroke:#353535;stroke-miterlimit:10;}
	.st43{fill:#4F4F4F;stroke:#353535;stroke-miterlimit:10;}
	.st44{fill:#8FB8D1;stroke:#353535;stroke-miterlimit:10;}
	.st45{fill:#FFFFFF;stroke:#353535;stroke-miterlimit:10;}
	.st46{fill:#E5B561;stroke:#353535;stroke-miterlimit:10;}
	.st47{fill:#D6788C;stroke:#353535;stroke-miterlimit:10;}
	.st48{fill:#EF5076;stroke:#353535;stroke-linecap:round;stroke-linejoin:round;stroke-miterlimit:10;}
	.st49{fill:#DBBA9C;stroke:#353535;stroke-miterlimit:10;}
	.st50{fill:#AFAFAF;stroke:#353535;stroke-linecap:round;stroke-linejoin:round;stroke-miterlimit:10;}
	.st51{fill:#E57C95;stroke:#353535;stroke-linecap:round;stroke-linejoin:round;stroke-miterlimit:10;}
	.st52{fill:#B2D6CF;stroke:#353535;stroke-linecap:round;stroke-linejoin:round;stroke-miterlimit:10;}
	.st53{fill:#CEB6A5;stroke:#353535;stroke-linecap:round;stroke-linejoin:round;stroke-miterlimit:10;}
	.st54{fill:#87A4C1;stroke:#353535;stroke-linecap:round;stroke-linejoin:round;stroke-miterlimit:10;}
	.st55{fill:#728BA0;stroke:#353535;stroke-linecap:round;stroke-linejoin:round;stroke-miterlimit:10;}
	.st56{fill:#89AECC;stroke:#353535;stroke-linecap:round;stroke-linejoin:round;stroke-miterlimit:10;}
	.st57{fill:#537DA0;stroke:#353535;stroke-linecap:round;stroke-linejoin:round;stroke-miterlimit:10;}
	.st58{fill:#4A7384;stroke:#353535;stroke-miterlimit:10;}
	.st59{fill:none;stroke:#6F9FB2;stroke-linecap:round;stroke-linejoin:round;stroke-miterlimit:10;}
	.st60{fill:none;stroke:#D6AB4C;stroke-linecap:round;stroke-linejoin:round;stroke-miterlimit:10;}
	.st61{fill:none;stroke:#92D6A5;stroke-linecap:round;stroke-linejoin:round;stroke-miterlimit:10;}
	.st62{fill:#BFEEFF;stroke:#353535;stroke-linecap:round;stroke-linejoin:round;stroke-miterlimit:10;}
	.st63{fill:#353535;}
	.st64{fill:#94FFDC;stroke:#353535;stroke-linecap:round;stroke-linejoin:round;stroke-miterlimit:10;}
	.st65{fill:#E2E2E2;stroke:#353535;stroke-linecap:round;stroke-linejoin:round;stroke-miterlimit:10;}
	.st66{fill:#548FAF;stroke:#353535;stroke-width:2;stroke-linecap:round;stroke-linejoin:round;stroke-miterlimit:10;}
	.st67{fill:#E57C95;stroke:#353535;stroke-width:2;stroke-linecap:round;stroke-linejoin:round;stroke-miterlimit:10;}
	.st68{fill:none;stroke:#F2C7D4;stroke-width:2;stroke-linecap:round;stroke-linejoin:round;stroke-miterlimit:10;}
	.st69{fill:#83B6C4;stroke:#353535;stroke-linecap:round;stroke-linejoin:round;stroke-miterlimit:10;}
	.st70{fill:#EAEEEF;stroke:#353535;stroke-linecap:round;stroke-linejoin:round;stroke-miterlimit:10;}
	.st71{fill:#D8AA39;stroke:#353535;stroke-linecap:round;stroke-linejoin:round;stroke-miterlimit:10;}
	.st72{fill:#D4D5D6;stroke:#353535;stroke-linecap:round;stroke-linejoin:round;stroke-miterlimit:10;}
	.st73{fill:#999898;stroke:#353535;stroke-linecap:round;stroke-linejoin:round;stroke-miterlimit:10;}
	.st74{fill:#B4CAD1;}
	.st75{fill:#3B687F;stroke:#353535;stroke-linecap:round;stroke-linejoin:round;stroke-miterlimit:10;}
	.st76{fill:#5C676D;stroke:#353535;stroke-width:2;stroke-linecap:round;stroke-linejoin:round;stroke-miterlimit:10;}
	.st77{fill:#424242;stroke:#353535;stroke-width:2;stroke-linecap:round;stroke-linejoin:round;stroke-miterlimit:10;}
	.st78{fill:#DFE7ED;stroke:#353535;stroke-width:2;stroke-linecap:round;stroke-linejoin:round;stroke-miterlimit:10;}
	.st79{fill:#FFCDC2;stroke:#353535;stroke-width:2;stroke-linecap:round;stroke-linejoin:round;stroke-miterlimit:10;}
	.st80{fill:#D86681;stroke:#353535;stroke-linecap:round;stroke-linejoin:round;stroke-miterlimit:10;}
	.st81{fill:#E54C54;stroke:#353535;stroke-linecap:round;stroke-linejoin:round;stroke-miterlimit:10;}
	.st82{fill:#6898BC;stroke:#353535;stroke-width:2;stroke-linecap:round;stroke-linejoin:round;stroke-miterlimit:10;}
	.st83{fill:#527789;}
	.st84{fill:#7C7C7C;stroke:#353535;stroke-width:2;stroke-linecap:round;stroke-linejoin:round;stroke-miterlimit:10;}
	.st85{fill:#EFBAB1;stroke:#353535;stroke-linecap:round;stroke-linejoin:round;stroke-miterlimit:10;}
	.st86{fill:#555656;stroke:#353535;stroke-width:2;stroke-linecap:round;stroke-linejoin:round;stroke-miterlimit:10;}
	.st87{fill:#757575;stroke:#353535;stroke-width:2;stroke-linecap:round;stroke-linejoin:round;stroke-miterlimit:10;}
	.st88{fill:#757575;stroke:#353535;stroke-linecap:round;stroke-linejoin:round;stroke-miterlimit:10;}
	.st89{opacity:0.1;fill:#FFFFFF;}
	.st90{fill:#E5E5E5;stroke:#353535;stroke-width:2;stroke-miterlimit:10;}
	.st91{fill:#E0E0E0;stroke:#353535;stroke-width:2;stroke-linecap:round;stroke-linejoin:round;stroke-miterlimit:10;}
	.st92{fill:url(#SVGID_9_);}
	.st93{opacity:4.000000e-02;}
	.st94{fill:url(#SVGID_10_);}
	.st95{fill:#F98764;}
	.st96{opacity:0.28;fill:#F98764;}
	.st97{opacity:8.000000e-02;}
	.st98{fill:#FFF2F0;}
	.st99{fill:none;}
	.st100{fill:#818181;}
	.st101{fill:#3D5A80;}
	.st102{fill:#EF8EBA;}
	.st103{fill:#F4BDD8;}
	.st104{fill:#282828;}
	.st105{fill:#595959;}
	.st106{fill:#C64476;}
	.st107{fill:#87234C;}
	.st108{fill:#FFB6D4;}
	.st109{fill:#6D6D6D;}
	.st110{fill:#494949;}
	.st111{fill:#C6C6C6;}
	.st112{opacity:0.65;fill:#D8D8D8;}
	.st113{opacity:0.44;}
	.st114{fill:#C1C1C1;}
	.st115{fill:#FFDBCF;}
	.st116{fill:#777777;}
	.st117{fill:#DDDDDD;}
	.st118{fill:#898989;}
	.st119{fill:#AA8D77;}
	.st120{fill:#EACEBB;}
	.st121{fill:#BFBFBF;}
	.st122{fill:#666666;}
	.st123{fill:#FFCBB6;}
	.st124{fill:#E8A391;}
	.st125{fill:#ACE8E6;}
	.st126{fill:#76ADAA;}
	.st127{fill:#F9CCA0;}
	.st128{fill:#2D2D2D;}
	.st129{fill:#545454;}
	.st130{fill:#5BB5B1;}
	.st131{fill:#FFF1AE;}
	.st132{fill:#CEBD76;}
	.st133{fill:#F7CD79;}
	.st134{fill:#BCA57D;}
	.st135{fill:#3B687F;}
	.st136{fill:#5C676D;}
	.st137{fill:#424242;}
	.st138{fill:#DFE7ED;}
	.st139{fill:#FFCDC2;}
	.st140{fill:#D86681;}
	.st141{fill:#E54C54;}
	.st142{fill:#6898BC;}
	.st143{fill:#7C7C7C;}
	.st144{fill:#EFBAB1;}
	.st145{fill:#555656;}
	.st146{fill:#757575;}
	.st147{opacity:0.1;}
	.st148{fill:#E5E5E5;}
	.st149{fill:#E0E0E0;}
	.st150{opacity:0.13;}
	.st151{fill:#1A9CAD;}
	.st152{fill:#34B5BF;}
	.st153{fill:#1C1C1C;}
	.st154{fill:none;stroke:#34B5BF;stroke-width:0.67;stroke-linecap:round;stroke-linejoin:round;stroke-miterlimit:10;}
	.st155{fill:none;stroke:#34B5BF;stroke-width:0.335;stroke-linecap:round;stroke-linejoin:round;stroke-miterlimit:10;}
	.st156{fill:#9FF7E7;}
	.st157{fill:#FFBCB3;}
	.st158{fill:#FFF0D9;}
	.st159{fill:#FCECCA;}
	.st160{fill:#F2C85F;}
	.st161{fill:#B2B2B2;}
	.st162{fill:#7A7A7A;}
</style>
<g>
	<g>
		<linearGradient id="SVGID_1_" gradientUnits="userSpaceOnUse" x1="792.0779" y1="-97.4827" x2="792.0779" y2="707.5733">
			<stop  offset="0" style="stop-color:#FFFFFF"/>
			<stop  offset="1" style="stop-color:#CFF1F9"/>
		</linearGradient>
		<path class="st0" d="M1469.9,495.3c-23.2-20.8-56.3-34.7-67.3-63.1c-10.1-26.1,2-57.5-12.6-81.7c-11.1-18.3-35.1-26.8-57.4-26.5
			c-22.4,0.4-43.8,8-64.8,15.1c-35.2,11.8-71.6,22.5-109,22.7c-37.4,0.2-76.4-11.4-101-37.9c-26.2-28.1-32.5-67.9-52.5-100.1
			c-24.2-39-69.6-65.6-117.5-68.8c-47.8-3.2-96.8,17.1-126.6,52.6c-17.6,20.9-33,49.1-61.1,51.8c-31.1,2.9-52.7-27.4-79.6-42.6
			c-45.1-25.5-106.8-4.2-140.1,34.2c-33.3,38.4-45,89-55.1,137.7c-11.2,54.2-29.3,117.6-84.4,136.4
			c-55.5,18.9-115.8-19.9-174.4-13.4c-49.4,5.5-89.3,43.2-109.2,86.2c-19.9,42.9-23.4,90.8-26.6,137.5l1522.7,0.1
			C1514.1,658.4,1535.5,554.3,1469.9,495.3z"/>
		<path class="st93" d="M130.2,731.4l761.8,0c-3.6-38.8-7.5-80.7-23.4-116.6c-16-36.2-46.4-68.9-86.6-78.8
			c-26.9-6.6-59-4.1-78.2-23.1c-19.1-19-14.7-49.2-22.6-74.2c-11.3-35.6-52-60.6-91.1-55.8c-18.7,2.3-35.9,10.3-54.1,14.9
			c-18.2,4.6-39.3,5.2-54-5.9c-18.3-13.8-20.3-40.7-38.3-54.8c-6.1-4.8-13.2-7.4-20.7-8.3c-5.4,18.4-9.5,37.2-13.4,55.8
			c-11.2,54.2-29.3,117.6-84.4,136.4c-55.5,18.9-115.8-19.9-174.4-13.4c-20.8,2.3-39.8,10.3-56.5,22
			C94.6,597.3,111.8,665.4,130.2,731.4z"/>
		<g>
			<linearGradient id="SVGID_2_" gradientUnits="userSpaceOnUse" x1="487.8266" y1="36.1187" x2="487.8266" y2="734.396">
				<stop  offset="0" style="stop-color:#FFFFFF"/>
				<stop  offset="1" style="stop-color:#D8EEEF"/>
			</linearGradient>
			<path class="st1" d="M886.7,736.3c-3.7-39-7.5-81.3-23.5-117.5c-16-36.2-46.4-68.9-86.6-78.8c-26.9-6.6-59-4.1-78.2-23.1
				c-19.1-19-14.7-49.2-22.6-74.2c-11.3-35.6-52-60.6-91.1-55.8c-18.7,2.3-35.9,10.3-54.1,14.9c-18.2,4.6-39.3,5.2-54-5.9
				c-18.3-13.8-20.3-40.7-38.3-54.8c-20.5-16.1-52.9-8-72.8,8.8c-19.9,16.7-32,40.1-48.9,59.5c-16.9,19.4-42.8,35.9-68.8,30.2
				c-32.2-7-50.3-44.5-83.1-48.5c-18.7-2.3-37.4,7.9-48.8,22.1c-11.4,14.2-16.7,31.9-20.2,49.4C77.2,553.3,100,646.4,125,735.7
				L886.7,736.3z"/>
		</g>
	</g>
	<rect x="198.9" y="735.4" class="st8" width="1187.5" height="29.6"/>
</g>
</svg>
