<svg id="Layer_1" data-name="Layer 1" xmlns="http://www.w3.org/2000/svg" viewBox="0 0 57 57"><defs><style>.cls-1{fill:#fff;}</style></defs><title>appointment</title><path class="cls-1" d="M24.12,7.35a3.35,3.35,0,1,0-6.71,0v3.35h6.71Z" transform="translate(-4 -4)"/><path class="cls-1" d="M50.94,10.71H47.59v3.35a3.35,3.35,0,1,1-6.71,0V10.71H24.12v3.35a3.35,3.35,0,1,1-6.71,0V10.71H14.06A10.06,10.06,0,0,0,4,20.76V50.94A10.06,10.06,0,0,0,14.06,61H50.94A10.06,10.06,0,0,0,61,50.94V20.76A10.06,10.06,0,0,0,50.94,10.71Zm0,46.94H14.06a6.71,6.71,0,0,1-6.71-6.71V27.47a6.71,6.71,0,0,1,6.71-6.71H50.94a6.71,6.71,0,0,1,6.71,6.71V50.94A6.71,6.71,0,0,1,50.94,57.65Z" transform="translate(-4 -4)"/><path class="cls-1" d="M47.59,7.35a3.35,3.35,0,1,0-6.71,0v3.35h6.71Z" transform="translate(-4 -4)"/><polygon class="cls-1" points="23.67 45.57 15.19 37.08 19.58 32.69 23.67 36.78 34.07 26.42 38.46 30.81 23.67 45.57"/></svg>