<svg id="Layer_1" data-name="Layer 1" xmlns="http://www.w3.org/2000/svg" viewBox="0 0 59.99 54.99"><defs><style>.cls-1{fill:#fff;}.cls-2{fill:none;stroke:#fff;stroke-width:2px;}</style></defs><title>organization</title><path class="cls-1" d="M9.51,59.49h0A7.5,7.5,0,1,1,17,52a7.51,7.51,0,0,1-7.5,7.5" transform="translate(-2.01 -4.51)"/><path class="cls-1" d="M32,59.49h0a7.5,7.5,0,1,1,7.5-7.5,7.51,7.51,0,0,1-7.5,7.5" transform="translate(-2.01 -4.51)"/><path class="cls-1" d="M32,19.5h0a7.5,7.5,0,1,1,7.5-7.5A7.51,7.51,0,0,1,32,19.5" transform="translate(-2.01 -4.51)"/><path class="cls-1" d="M54.5,59.49h0A7.5,7.5,0,1,1,62,52a7.51,7.51,0,0,1-7.5,7.5" transform="translate(-2.01 -4.51)"/><path class="cls-2" d="M32,52V12" transform="translate(-2.01 -4.51)"/><path class="cls-2" d="M54.5,52V33.43A1.43,1.43,0,0,0,53.07,32H10.94a1.43,1.43,0,0,0-1.43,1.43V52" transform="translate(-2.01 -4.51)"/></svg>