<svg id="Layer_1" data-name="Layer 1" xmlns="http://www.w3.org/2000/svg" viewBox="0 0 62 62"><defs><style>.cls-1{fill:#fff;}</style></defs><title>Patient management</title><path class="cls-1" d="M41.09,37H39.8V35.67a.23.23,0,0,0-.21-.24H38.31a.23.23,0,0,0-.21.24V37H36.81a.23.23,0,0,0-.24.21v1.27a.23.23,0,0,0,.24.21H38.1V40a.23.23,0,0,0,.21.24h1.28A.23.23,0,0,0,39.8,40V38.66h1.29a.23.23,0,0,0,.24-.21V37.17A.23.23,0,0,0,41.09,37Z" transform="translate(-1 -1)"/><path class="cls-1" d="M60,26.51l-4.64-.84A24.08,24.08,0,0,0,53,19.89L55.72,16a3.57,3.57,0,0,0-.4-4.58L52.54,8.66A3.57,3.57,0,0,0,48,8.26L44.09,11a24.07,24.07,0,0,0-5.76-2.4L37.49,4A3.57,3.57,0,0,0,34,1H30a3.57,3.57,0,0,0-3.52,3l-.84,4.64A24.1,24.1,0,0,0,19.89,11L16,8.28a3.57,3.57,0,0,0-4.57.4L8.67,11.46A3.57,3.57,0,0,0,8.28,16L11,19.9a24,24,0,0,0-2.39,5.77L4,26.51A3.57,3.57,0,0,0,1,30V34a3.57,3.57,0,0,0,3,3.51l4.64.84A24,24,0,0,0,11,44.11L8.28,48a3.57,3.57,0,0,0,.4,4.57l2.78,2.78a3.57,3.57,0,0,0,4.57.4L19.9,53a24.12,24.12,0,0,0,5.78,2.39l.82,4.64A3.57,3.57,0,0,0,30,63H34a3.57,3.57,0,0,0,3.52-3l.84-4.64A24.1,24.1,0,0,0,44.11,53L48,55.72a3.57,3.57,0,0,0,4.58-.4l2.78-2.78a3.57,3.57,0,0,0,.4-4.57L53,44.09a24.08,24.08,0,0,0,2.4-5.76l4.64-.82A3.57,3.57,0,0,0,63,34V30A3.57,3.57,0,0,0,60,26.51Zm-33-4.7a6,6,0,0,1,12,0,6.8,6.8,0,0,1,.07,1c0,.13,0,.27,0,.4s0,.38-.06.57v.17c-.38,4.32-2.91,7.67-6,7.67s-5.6-3.34-6-7.67v-.17c0-.19,0-.38-.06-.57s0-.26,0-.4A6.76,6.76,0,0,1,27,21.82ZM39,43.15v.39a4.06,4.06,0,0,1-4.06,4.06H25.12a4.06,4.06,0,0,1-4.06-4.06v-.75a4,4,0,0,1,.4-1.75A4.85,4.85,0,0,1,21,38.8a7.92,7.92,0,0,1,4.35-7.07l-.74,7-.2,1.86a2.27,2.27,0,0,0-1.57,2.16v.75a2.27,2.27,0,0,0,2.28,2.28h9.81a2.27,2.27,0,0,0,2.27-2.28v-.75a2.28,2.28,0,0,0-2.27-2.27H32.39l-.77-1.78-2.83-6.57A6.17,6.17,0,0,0,33,33.52c2.64,0,4.78-1.17,4.81-2.61A7.92,7.92,0,0,1,45,38.8C45,42.51,42.44,43.07,39,43.15Z" transform="translate(-1 -1)"/><path class="cls-1" d="M33,30.66c2.68,0,4.9-2.91,5.24-6.69a2.55,2.55,0,0,0-.84.39s.6-3.56-.67-4.05a10.27,10.27,0,0,1-3.74.9,10.28,10.28,0,0,1-3.74-.9c-1.26.5-.67,4.05-.67,4.05a2.55,2.55,0,0,0-.84-.39C28.1,27.75,30.32,30.66,33,30.66Z" transform="translate(-1 -1)"/></svg>