<svg id="Layer_1" data-name="Layer 1" xmlns="http://www.w3.org/2000/svg" viewBox="0 0 59.82 55.95"><defs><style>.cls-1{fill:#fff;}</style></defs><title>pharma box</title><path class="cls-1" d="M15.44,15.5V6a1.89,1.89,0,0,1,1.89-1.89H46.66A1.89,1.89,0,0,1,48.55,6V15.5a1,1,0,0,1-1,1H44.36a1,1,0,0,1-1-1V11.13a1.89,1.89,0,0,0-1.89-1.89h-19a1.89,1.89,0,0,0-1.89,1.89V15.5a1,1,0,0,1-1,1H16.42A1,1,0,0,1,15.44,15.5Z" transform="translate(-2.18 -4.06)"/><path class="cls-1" d="M55.91,18.92q-23.82,0-47.64,0c-4.1,0-6.06,1.93-6.07,6q0,14.57,0,29.14c0,4,2,5.91,5.9,5.91H32.17q12,0,24.07,0C60.05,60,62,58.07,62,54.27q0-14.7,0-29.4C62,20.78,60.1,18.92,55.91,18.92ZM43.38,41.55A1.41,1.41,0,0,1,42,43H35.71v6.26a1.41,1.41,0,0,1-1.41,1.41H30.73a1.41,1.41,0,0,1-1.41-1.41V43H23.06a1.41,1.41,0,0,1-1.41-1.41V38a1.41,1.41,0,0,1,1.41-1.41h6.26V30.3a1.41,1.41,0,0,1,1.41-1.41H34.3a1.41,1.41,0,0,1,1.41,1.41v6.26H42A1.41,1.41,0,0,1,43.38,38Z" transform="translate(-2.18 -4.06)"/></svg>