<svg id="Layer_1" data-name="Layer 1" xmlns="http://www.w3.org/2000/svg" viewBox="0 0 57 57"><defs><style>.cls-1{fill:#fff;}</style></defs><title>prescription white</title><path class="cls-1" d="M3,52.94V12.06A8.06,8.06,0,0,1,11.06,4H51.94A8.06,8.06,0,0,1,60,12.06V52.94A8.06,8.06,0,0,1,51.94,61H11.06A8.06,8.06,0,0,1,3,52.94ZM33.68,52V48H31.86l3.74-5.15L39.54,48H37.8V52H49.59V47.8H46.75l-6.53-8.46,5.91-8.19h2.71V26.91h-9.6v4h1.51l-3.4,4.68-6.89-8.8.81-.11q4.36-2,4.36-6.25a7.22,7.22,0,0,0-1.89-4.89q-1.89-2.16-6.17-2.16H13.18v4.25h2.68V34.28H13.18v4.25H24.78V34.28H22.4V27.52h1.36l2.81,3.64h0l6.13,8L26.55,47.8H23.62V52ZM22.4,23.51V17.63h2.84a4.22,4.22,0,0,1,2.61.72,2.58,2.58,0,0,1,.95,2.19q0,3-4.16,3Z" transform="translate(-3 -4)"/></svg>