<svg id="Layer_1" data-name="Layer 1" xmlns="http://www.w3.org/2000/svg" viewBox="0 0 48 59.37"><defs><style>.cls-1{fill:#fff;}</style></defs><title>shared records</title><path class="cls-1" d="M55.62,11.79,46.27,2.69a1.15,1.15,0,0,0-.88-.38h-25a2,2,0,0,0-2,2V7.49h16.8a6.31,6.31,0,0,1,4.42,1.77L43,12.55s.51.51.51,0V5.35c0-.25.25-.38.38-.13l9.22,9a.24.24,0,0,1-.13.38H45.64c-.38,0-.13.38-.13.38l3.54,3.41a6,6,0,0,1,1.77,4.29V51.71H54a2,2,0,0,0,2-2V12.55A.9.9,0,0,0,55.62,11.79Z" transform="translate(-8 -2.32)"/><path class="cls-1" d="M45.26,21.77l-9.35-9.09a1.15,1.15,0,0,0-.88-.38H10.15A2.31,2.31,0,0,0,8,14.44V59.66a2,2,0,0,0,2,2H43.49a2,2,0,0,0,2-2v-37A.78.78,0,0,0,45.26,21.77Zm-6.82,33.6H14.32a1.89,1.89,0,0,1,0-3.79H38.57a1.94,1.94,0,0,1,1.89,1.89A2,2,0,0,1,38.44,55.37Zm0-9.73H14.32a1.89,1.89,0,1,1,0-3.79H38.57a1.94,1.94,0,0,1,1.89,1.89A2,2,0,0,1,38.44,45.64Zm0-9.73H14.32a1.89,1.89,0,0,1,0-3.79H38.57A1.94,1.94,0,0,1,40.46,34,2,2,0,0,1,38.44,35.92Zm4-11.37H35.16a2,2,0,0,1-2-2v-7.2c0-.25.25-.38.38-.13l9.22,9C42.86,24.29,42.74,24.55,42.48,24.55Z" transform="translate(-8 -2.32)"/></svg>