<svg id="Layer_1" data-name="Layer 1" xmlns="http://www.w3.org/2000/svg" viewBox="0 0 20 29.6"><defs><style>.cls-1{fill:#92a6af;}</style></defs><title>Birthday Date</title><path class="cls-1" d="M21.63,10.2H18.28l3.28-1.12A.91.91,0,1,0,21,7.35L17,8.69l3.46-5.57a.91.91,0,1,0-1.55-1L16,6.94V1.12a.91.91,0,1,0-1.83,0v6.2L11.07,2.17A.91.91,0,0,0,9.5,3.1l3.33,5.58L9,7.35a.91.91,0,0,0-.61,1.72l3.19,1.12H8.37A3.37,3.37,0,0,0,5,13.57V26.43A3.38,3.38,0,0,0,8.37,29.8H21.63A3.38,3.38,0,0,0,25,26.43V13.57A3.38,3.38,0,0,0,21.63,10.2Zm2.11,3.37v5H16.47V11.46h5.15A2.12,2.12,0,0,1,23.74,13.57ZM8.37,11.46h5.15v7.07H6.26v-5A2.12,2.12,0,0,1,8.37,11.46Zm-2.11,15v-5h7.27v7.07H8.37A2.12,2.12,0,0,1,6.26,26.43Zm15.37,2.11H16.47V21.47h7.27v5A2.12,2.12,0,0,1,21.63,28.54Z" transform="translate(-5 -0.2)"/></svg>