<svg id="Layer_1" data-name="Layer 1" xmlns="http://www.w3.org/2000/svg" viewBox="0 0 27.52 27.5"><defs><style>.cls-1{fill:#92a6af;}</style></defs><title>contact icon</title><path class="cls-1" d="M27.5,20.7c-1.2-1.1-2.3-2.3-3.4-3.4a2.9,2.9,0,0,0-4.2,0l-.2.1c-.6.6-1.2,1.1-1.8,1.8a.37.37,0,0,0-.3-.1,3,3,0,0,1-.8-.4,21.45,21.45,0,0,1-5.1-4.6A11.48,11.48,0,0,1,10,11.5L11.5,10l.4-.4a2.86,2.86,0,0,0,0-4.3L10.7,4.1l-.3-.5h0l-.5-.5L8.7,1.9a2.9,2.9,0,0,0-4.2,0l-.9.9L2.4,4A4.69,4.69,0,0,0,1,6.9a9.27,9.27,0,0,0,.8,4.6,29.91,29.91,0,0,0,4.7,7.9,29.1,29.1,0,0,0,9.6,7.5,14.58,14.58,0,0,0,5.5,1.6H22a4.38,4.38,0,0,0,3.6-1.6l1.2-1.2a4.35,4.35,0,0,1,.7-.6A3,3,0,0,0,27.5,20.7Zm-1.3,3.1a4.35,4.35,0,0,1-.7.6,17.88,17.88,0,0,0-1.3,1.4,2.91,2.91,0,0,1-2.6.9,14.87,14.87,0,0,1-4.8-1.4,29.55,29.55,0,0,1-9.1-7.1,26.8,26.8,0,0,1-4.4-7.3,11.06,11.06,0,0,1-.6-3.8,2.72,2.72,0,0,1,.8-1.7A15.93,15.93,0,0,0,4.8,4.1l.8-.8a1.87,1.87,0,0,1,1-.5,1.38,1.38,0,0,1,.9.5L8.7,4.5l.5.5.5.5,1.2,1.2c.7.7.7,1.2,0,1.8l-.5.4c-.5.5-1.1,1.1-1.7,1.6A1.28,1.28,0,0,0,8.4,12a13.22,13.22,0,0,0,2,3.3,21.35,21.35,0,0,0,5.5,5,4.05,4.05,0,0,0,.9.5c.2.1.3.1.5.2a1.51,1.51,0,0,0,1.7-.2c.7-.6,1.3-1.3,1.9-1.9l.2-.1a1.12,1.12,0,0,1,1.8,0l3.4,3.4C26.8,22.5,26.8,23.2,26.2,23.8Z" transform="translate(-0.95 -1)"/></svg>