<svg id="Layer_1" data-name="Layer 1" xmlns="http://www.w3.org/2000/svg" viewBox="0 0 22 28.46"><defs><style>.cls-1{fill:#92a6af;}</style></defs><title>location</title><path class="cls-1" d="M15,29.78l1.08-1.08C19.54,25.21,26,18.78,26,12.32a11,11,0,1,0-22,0c0,6.46,6.46,12.88,9.92,16.35ZM15,4.41a7.93,7.93,0,0,1,7.91,7.91c0,4.63-4.67,9.79-7.91,13.07-3.24-3.31-7.91-8.47-7.91-13.07A7.93,7.93,0,0,1,15,4.41Z" transform="translate(-4 -1.32)"/><path class="cls-1" d="M19.63,12.14A4.63,4.63,0,1,0,15,16.77,4.63,4.63,0,0,0,19.63,12.14Zm-6.18,0A1.54,1.54,0,1,1,15,13.68,1.55,1.55,0,0,1,13.46,12.14Z" transform="translate(-4 -1.32)"/></svg>