<svg id="Layer_1" data-name="Layer 1" xmlns="http://www.w3.org/2000/svg" viewBox="0 0 28 21"><defs><style>.cls-1{fill:#92a6af;}</style></defs><title>message icon</title><path class="cls-1" d="M26.17,25.5H3.83A2.84,2.84,0,0,1,1,22.67V7.34A2.84,2.84,0,0,1,3.83,4.5H26.17A2.84,2.84,0,0,1,29,7.34V22.67A2.84,2.84,0,0,1,26.17,25.5ZM3.83,6A1.29,1.29,0,0,0,2.55,7.34V22.67A1.29,1.29,0,0,0,3.83,24H26.17a1.29,1.29,0,0,0,1.29-1.29V7.34A1.29,1.29,0,0,0,26.17,6ZM24.08,21.22a.77.77,0,0,1-.53-.21L18.2,16l-2.48,2.42a.77.77,0,0,1-1.07,0l-2.82-2.65L6.47,21a.77.77,0,0,1-1.08-1.11l5.3-5.17-5.3-5A.77.77,0,0,1,6.45,8.6l8.72,8.18,8.37-8.16a.77.77,0,1,1,1.08,1.11l-5.3,5.17,5.3,5a.77.77,0,0,1-.53,1.34Z" transform="translate(-1 -4.5)"/></svg>