<svg id="Layer_1" data-name="Layer 1" xmlns="http://www.w3.org/2000/svg" viewBox="0 0 28.07 27.84"><defs><style>.cls-1{fill:#92a6af;}</style></defs><title>User Profile</title><path class="cls-1" d="M15,16.81a4.7,4.7,0,0,1-3.29-2A9.15,9.15,0,0,1,10,11.29a1.08,1.08,0,1,0-2.1.44c1,4.38,4.12,7.23,7,7.23,3.46,0,7.32-4.08,7.32-9.91,0-4.74-3-8-7.32-8A7,7,0,0,0,8.05,6.16a1.06,1.06,0,0,0,1,1.36h0a1,1,0,0,0,1-.75,4.86,4.86,0,0,1,4.82-3.55c3.07,0,5.17,2.37,5.17,5.88C20.15,13.83,17.09,16.81,15,16.81Z" transform="translate(-0.93 -1.03)"/><path class="cls-1" d="M27,20.36a8.46,8.46,0,0,0-6.71-2.67,1.19,1.19,0,0,0-1.18.88A1.14,1.14,0,0,0,20.29,20c2.28,0,3.95.61,5,1.89a7.26,7.26,0,0,1,1.45,4.74H19.14A1.13,1.13,0,0,0,18,27.73a1.16,1.16,0,0,0,1.14,1.14h9.61l.18-1C28.92,27.73,29.58,23.39,27,20.36Z" transform="translate(-0.93 -1.03)"/><path class="cls-1" d="M10,26.59H3.23a7.33,7.33,0,0,1,1.45-4.74,6.32,6.32,0,0,1,5-1.89,1.18,1.18,0,0,0,1.14-1.4,1.14,1.14,0,0,0-1.18-.88,8.4,8.4,0,0,0-6.71,2.67C.34,23.39,1,27.73,1,27.91l.18,1H10a1.13,1.13,0,0,0,1.14-1.14A1.17,1.17,0,0,0,10,26.59Z" transform="translate(-0.93 -1.03)"/></svg>